%TF.GenerationSoftware,KiCad,Pcbnew,6.0.9-8da3e8f707~116~ubuntu20.04.1*%
%TF.CreationDate,2022-11-22T17:17:17+01:00*%
%TF.ProjectId,sda_keyboard,7364615f-6b65-4796-926f-6172642e6b69,rev?*%
%TF.SameCoordinates,Original*%
%TF.FileFunction,Soldermask,Top*%
%TF.FilePolarity,Negative*%
%FSLAX46Y46*%
G04 Gerber Fmt 4.6, Leading zero omitted, Abs format (unit mm)*
G04 Created by KiCad (PCBNEW 6.0.9-8da3e8f707~116~ubuntu20.04.1) date 2022-11-22 17:17:17*
%MOMM*%
%LPD*%
G01*
G04 APERTURE LIST*
G04 Aperture macros list*
%AMRoundRect*
0 Rectangle with rounded corners*
0 $1 Rounding radius*
0 $2 $3 $4 $5 $6 $7 $8 $9 X,Y pos of 4 corners*
0 Add a 4 corners polygon primitive as box body*
4,1,4,$2,$3,$4,$5,$6,$7,$8,$9,$2,$3,0*
0 Add four circle primitives for the rounded corners*
1,1,$1+$1,$2,$3*
1,1,$1+$1,$4,$5*
1,1,$1+$1,$6,$7*
1,1,$1+$1,$8,$9*
0 Add four rect primitives between the rounded corners*
20,1,$1+$1,$2,$3,$4,$5,0*
20,1,$1+$1,$4,$5,$6,$7,0*
20,1,$1+$1,$6,$7,$8,$9,0*
20,1,$1+$1,$8,$9,$2,$3,0*%
G04 Aperture macros list end*
%ADD10C,3.400000*%
%ADD11R,1.800000X1.800000*%
%ADD12C,1.800000*%
%ADD13C,1.500000*%
%ADD14RoundRect,0.075000X-0.075000X0.662500X-0.075000X-0.662500X0.075000X-0.662500X0.075000X0.662500X0*%
%ADD15RoundRect,0.075000X-0.662500X0.075000X-0.662500X-0.075000X0.662500X-0.075000X0.662500X0.075000X0*%
%ADD16C,2.000000*%
%ADD17RoundRect,0.250000X-0.450000X0.350000X-0.450000X-0.350000X0.450000X-0.350000X0.450000X0.350000X0*%
%ADD18R,0.400000X1.000000*%
%ADD19R,2.000000X1.300000*%
%ADD20O,1.000000X1.000000*%
%ADD21R,1.000000X1.000000*%
%ADD22R,1.700000X1.700000*%
%ADD23O,1.700000X1.700000*%
%ADD24RoundRect,0.250000X0.475000X-0.337500X0.475000X0.337500X-0.475000X0.337500X-0.475000X-0.337500X0*%
%ADD25RoundRect,0.250000X-0.475000X0.337500X-0.475000X-0.337500X0.475000X-0.337500X0.475000X0.337500X0*%
%ADD26RoundRect,0.250000X0.475000X-0.250000X0.475000X0.250000X-0.475000X0.250000X-0.475000X-0.250000X0*%
G04 APERTURE END LIST*
D10*
%TO.C,REF\u002A\u002A*%
X163100000Y-83200000D03*
%TD*%
D11*
%TO.C,D3*%
X162560000Y-67310000D03*
D12*
X162560000Y-69850000D03*
%TD*%
D11*
%TO.C,D2*%
X137160000Y-67310000D03*
D12*
X137160000Y-69850000D03*
%TD*%
D11*
%TO.C,D1*%
X149860000Y-67310000D03*
D12*
X149860000Y-69850000D03*
%TD*%
D13*
%TO.C,Y1*%
X126365000Y-84910000D03*
X126365000Y-80010000D03*
%TD*%
D14*
%TO.C,U1*%
X149435000Y-74577500D03*
X148935000Y-74577500D03*
X148435000Y-74577500D03*
X147935000Y-74577500D03*
X147435000Y-74577500D03*
X146935000Y-74577500D03*
X146435000Y-74577500D03*
X145935000Y-74577500D03*
X145435000Y-74577500D03*
X144935000Y-74577500D03*
X144435000Y-74577500D03*
X143935000Y-74577500D03*
D15*
X142522500Y-75990000D03*
X142522500Y-76490000D03*
X142522500Y-76990000D03*
X142522500Y-77490000D03*
X142522500Y-77990000D03*
X142522500Y-78490000D03*
X142522500Y-78990000D03*
X142522500Y-79490000D03*
X142522500Y-79990000D03*
X142522500Y-80490000D03*
X142522500Y-80990000D03*
X142522500Y-81490000D03*
D14*
X143935000Y-82902500D03*
X144435000Y-82902500D03*
X144935000Y-82902500D03*
X145435000Y-82902500D03*
X145935000Y-82902500D03*
X146435000Y-82902500D03*
X146935000Y-82902500D03*
X147435000Y-82902500D03*
X147935000Y-82902500D03*
X148435000Y-82902500D03*
X148935000Y-82902500D03*
X149435000Y-82902500D03*
D15*
X150847500Y-81490000D03*
X150847500Y-80990000D03*
X150847500Y-80490000D03*
X150847500Y-79990000D03*
X150847500Y-79490000D03*
X150847500Y-78990000D03*
X150847500Y-78490000D03*
X150847500Y-77990000D03*
X150847500Y-77490000D03*
X150847500Y-76990000D03*
X150847500Y-76490000D03*
X150847500Y-75990000D03*
%TD*%
D16*
%TO.C,RESET*%
X130175000Y-66330000D03*
X123675000Y-66330000D03*
X130175000Y-70830000D03*
X123675000Y-70830000D03*
%TD*%
D17*
%TO.C,R5*%
X130810000Y-77380000D03*
X130810000Y-79380000D03*
%TD*%
%TO.C,R4*%
X130810000Y-81820000D03*
X130810000Y-83820000D03*
%TD*%
%TO.C,R3*%
X158750000Y-67580000D03*
X158750000Y-69580000D03*
%TD*%
%TO.C,R2*%
X140970000Y-67310000D03*
X140970000Y-69310000D03*
%TD*%
%TO.C,R1*%
X146050000Y-67310000D03*
X146050000Y-69310000D03*
%TD*%
D18*
%TO.C,J3*%
X133864000Y-86708000D03*
X134864000Y-86708000D03*
X135864000Y-86708000D03*
X136864000Y-86708000D03*
X137864000Y-86708000D03*
X138864000Y-86708000D03*
X139864000Y-86708000D03*
X140864000Y-86708000D03*
X141864000Y-86708000D03*
X142864000Y-86708000D03*
X143864000Y-86708000D03*
X144864000Y-86708000D03*
X145864000Y-86708000D03*
X146864000Y-86708000D03*
X147864000Y-86708000D03*
X148864000Y-86708000D03*
X149864000Y-86708000D03*
X150864000Y-86708000D03*
X151864000Y-86708000D03*
X152864000Y-86708000D03*
X153864000Y-86708000D03*
X154864000Y-86708000D03*
X155864000Y-86708000D03*
X156864000Y-86708000D03*
X157864000Y-86708000D03*
X158864000Y-86708000D03*
X159864000Y-86708000D03*
X160864000Y-86708000D03*
D19*
X163664000Y-89408000D03*
X131064000Y-89408000D03*
%TD*%
D20*
%TO.C,PROG*%
X117500000Y-72390000D03*
X117500000Y-71120000D03*
X117500000Y-69850000D03*
X117500000Y-68580000D03*
X117500000Y-67310000D03*
D21*
X117500000Y-66040000D03*
%TD*%
D22*
%TO.C,Device*%
X117475000Y-77470000D03*
D23*
X117475000Y-80010000D03*
X117475000Y-82550000D03*
X117475000Y-85090000D03*
X117475000Y-87630000D03*
X117475000Y-90170000D03*
%TD*%
D24*
%TO.C,C8*%
X133985000Y-75100000D03*
X133985000Y-73025000D03*
%TD*%
%TO.C,C7*%
X159100000Y-75100000D03*
X159100000Y-73025000D03*
%TD*%
D25*
%TO.C,C6*%
X135890000Y-81835000D03*
X135890000Y-83910000D03*
%TD*%
D24*
%TO.C,C5*%
X156210000Y-75100000D03*
X156210000Y-73025000D03*
%TD*%
D25*
%TO.C,C4*%
X137160000Y-73025000D03*
X137160000Y-75100000D03*
%TD*%
%TO.C,C3*%
X133350000Y-81835000D03*
X133350000Y-83910000D03*
%TD*%
D26*
%TO.C,C2*%
X121920000Y-79280000D03*
X121920000Y-77380000D03*
%TD*%
%TO.C,C1*%
X121920000Y-87540000D03*
X121920000Y-85640000D03*
%TD*%
M02*
