%TF.GenerationSoftware,KiCad,Pcbnew,6.0.9-8da3e8f707~116~ubuntu20.04.1*%
%TF.CreationDate,2022-11-22T16:10:42+01:00*%
%TF.ProjectId,sda_keyboard,7364615f-6b65-4796-926f-6172642e6b69,rev?*%
%TF.SameCoordinates,Original*%
%TF.FileFunction,Drillmap*%
%TF.FilePolarity,Positive*%
%FSLAX45Y45*%
G04 Gerber Fmt 4.5, Leading zero omitted, Abs format (unit mm)*
G04 Created by KiCad (PCBNEW 6.0.9-8da3e8f707~116~ubuntu20.04.1) date 2022-11-22 16:10:42*
%MOMM*%
%LPD*%
G01*
G04 APERTURE LIST*
%ADD10C,0.100000*%
%ADD11C,0.200000*%
%ADD12C,0.040000*%
%ADD13C,0.070000*%
%ADD14C,0.080000*%
%ADD15C,0.090000*%
%ADD16C,0.110000*%
G04 APERTURE END LIST*
D10*
X11366500Y-9461500D02*
X11366500Y-6350000D01*
X16662400Y-9461500D02*
X11366500Y-9461500D01*
X16662400Y-6350000D02*
X16662400Y-9461500D01*
X11366500Y-6350000D02*
X16662400Y-6350000D01*
D11*
D12*
X11981500Y-8971600D02*
X12021500Y-9011600D01*
X12021500Y-8971600D02*
X11981500Y-9011600D01*
X11981500Y-9073200D02*
X12021500Y-9113200D01*
X12021500Y-9073200D02*
X11981500Y-9113200D01*
X12591100Y-8971600D02*
X12631100Y-9011600D01*
X12631100Y-8971600D02*
X12591100Y-9011600D01*
X12591100Y-9073200D02*
X12631100Y-9113200D01*
X12631100Y-9073200D02*
X12591100Y-9113200D01*
X12730800Y-7295200D02*
X12770800Y-7335200D01*
X12770800Y-7295200D02*
X12730800Y-7335200D01*
X12730800Y-7625400D02*
X12770800Y-7665400D01*
X12770800Y-7625400D02*
X12730800Y-7665400D01*
X13238800Y-7841300D02*
X13278800Y-7881300D01*
X13278800Y-7841300D02*
X13238800Y-7881300D01*
X13251500Y-7714300D02*
X13291500Y-7754300D01*
X13291500Y-7714300D02*
X13251500Y-7754300D01*
X13442000Y-7688900D02*
X13482000Y-7728900D01*
X13482000Y-7688900D02*
X13442000Y-7728900D01*
X13442000Y-7968300D02*
X13482000Y-8008300D01*
X13482000Y-7968300D02*
X13442000Y-8008300D01*
X13569000Y-8527100D02*
X13609000Y-8567100D01*
X13609000Y-8527100D02*
X13569000Y-8567100D01*
X13581700Y-8806500D02*
X13621700Y-8846500D01*
X13621700Y-8806500D02*
X13581700Y-8846500D01*
X13680000Y-8830000D02*
X13720000Y-8870000D01*
X13720000Y-8830000D02*
X13680000Y-8870000D01*
X13734100Y-9060000D02*
X13774100Y-9100000D01*
X13774100Y-9060000D02*
X13734100Y-9100000D01*
X13823000Y-7841300D02*
X13863000Y-7881300D01*
X13863000Y-7841300D02*
X13823000Y-7881300D01*
X13886500Y-7219000D02*
X13926500Y-7259000D01*
X13926500Y-7219000D02*
X13886500Y-7259000D01*
X13912760Y-7714300D02*
X13952760Y-7754300D01*
X13952760Y-7714300D02*
X13912760Y-7754300D01*
X13950000Y-8806500D02*
X13990000Y-8846500D01*
X13990000Y-8806500D02*
X13950000Y-8846500D01*
X13988100Y-8006400D02*
X14028100Y-8046400D01*
X14028100Y-8006400D02*
X13988100Y-8046400D01*
X14000800Y-7244400D02*
X14040800Y-7284400D01*
X14040800Y-7244400D02*
X14000800Y-7284400D01*
X14000800Y-7587300D02*
X14040800Y-7627300D01*
X14040800Y-7587300D02*
X14000800Y-7627300D01*
X14051600Y-7765100D02*
X14091600Y-7805100D01*
X14091600Y-7765100D02*
X14051600Y-7805100D01*
X14077000Y-7320600D02*
X14117000Y-7360600D01*
X14117000Y-7320600D02*
X14077000Y-7360600D01*
X14077000Y-8323900D02*
X14117000Y-8363900D01*
X14117000Y-8323900D02*
X14077000Y-8363900D01*
X14077000Y-8438200D02*
X14117000Y-8478200D01*
X14117000Y-8438200D02*
X14077000Y-8478200D01*
X14077000Y-9069450D02*
X14117000Y-9109450D01*
X14117000Y-9069450D02*
X14077000Y-9109450D01*
X14102400Y-8806500D02*
X14142400Y-8846500D01*
X14142400Y-8806500D02*
X14102400Y-8846500D01*
X14229400Y-8235000D02*
X14269400Y-8275000D01*
X14269400Y-8235000D02*
X14229400Y-8275000D01*
X14229400Y-8362000D02*
X14269400Y-8402000D01*
X14269400Y-8362000D02*
X14229400Y-8402000D01*
X14356400Y-8108000D02*
X14396400Y-8148000D01*
X14396400Y-8108000D02*
X14356400Y-8148000D01*
X14394500Y-7600000D02*
X14434500Y-7640000D01*
X14434500Y-7600000D02*
X14394500Y-7640000D01*
X14401700Y-8788300D02*
X14441700Y-8828300D01*
X14441700Y-8788300D02*
X14401700Y-8828300D01*
X14483400Y-8108000D02*
X14523400Y-8148000D01*
X14523400Y-8108000D02*
X14483400Y-8148000D01*
X14489750Y-7669850D02*
X14529750Y-7709850D01*
X14529750Y-7669850D02*
X14489750Y-7709850D01*
X14533770Y-9123570D02*
X14573770Y-9163570D01*
X14573770Y-9123570D02*
X14533770Y-9163570D01*
X14550000Y-8790000D02*
X14590000Y-8830000D01*
X14590000Y-8790000D02*
X14550000Y-8830000D01*
X14610000Y-7150000D02*
X14650000Y-7190000D01*
X14650000Y-7150000D02*
X14610000Y-7190000D01*
X14610400Y-7638100D02*
X14650400Y-7678100D01*
X14650400Y-7638100D02*
X14610400Y-7678100D01*
X14623046Y-8095246D02*
X14663046Y-8135246D01*
X14663046Y-8095246D02*
X14623046Y-8135246D01*
X14635800Y-9124000D02*
X14675800Y-9164000D01*
X14675800Y-9124000D02*
X14635800Y-9164000D01*
X14695600Y-7972000D02*
X14735600Y-8012000D01*
X14735600Y-7972000D02*
X14695600Y-8012000D01*
X14700000Y-7150000D02*
X14740000Y-7190000D01*
X14740000Y-7150000D02*
X14700000Y-7190000D01*
X14737400Y-8997000D02*
X14777400Y-9037000D01*
X14777400Y-8997000D02*
X14737400Y-9037000D01*
X14788200Y-8489000D02*
X14828200Y-8529000D01*
X14828200Y-8489000D02*
X14788200Y-8529000D01*
X14813600Y-7854000D02*
X14853600Y-7894000D01*
X14853600Y-7854000D02*
X14813600Y-7894000D01*
X14813600Y-7968300D02*
X14853600Y-8008300D01*
X14853600Y-7968300D02*
X14813600Y-8008300D01*
X14813600Y-8095300D02*
X14853600Y-8135300D01*
X14853600Y-8095300D02*
X14813600Y-8135300D01*
X14864400Y-7663500D02*
X14904400Y-7703500D01*
X14904400Y-7663500D02*
X14864400Y-7703500D01*
X14915200Y-7231700D02*
X14955200Y-7271700D01*
X14955200Y-7231700D02*
X14915200Y-7271700D01*
X14966000Y-8793800D02*
X15006000Y-8833800D01*
X15006000Y-8793800D02*
X14966000Y-8833800D01*
X14966000Y-8895400D02*
X15006000Y-8935400D01*
X15006000Y-8895400D02*
X14966000Y-8935400D01*
X14966000Y-8997000D02*
X15006000Y-9037000D01*
X15006000Y-8997000D02*
X14966000Y-9037000D01*
X15054900Y-7371400D02*
X15094900Y-7411400D01*
X15094900Y-7371400D02*
X15054900Y-7411400D01*
X15067600Y-8336600D02*
X15107600Y-8376600D01*
X15107600Y-8336600D02*
X15067600Y-8376600D01*
X15067600Y-9098600D02*
X15107600Y-9138600D01*
X15107600Y-9098600D02*
X15067600Y-9138600D01*
X15080300Y-7168200D02*
X15120300Y-7208200D01*
X15120300Y-7168200D02*
X15080300Y-7208200D01*
X15131100Y-7447600D02*
X15171100Y-7487600D01*
X15171100Y-7447600D02*
X15131100Y-7487600D01*
X15232700Y-6533200D02*
X15272700Y-6573200D01*
X15272700Y-6533200D02*
X15232700Y-6573200D01*
X15232700Y-8120700D02*
X15272700Y-8160700D01*
X15272700Y-8120700D02*
X15232700Y-8160700D01*
D13*
X11785000Y-6604000D02*
G75*
G03*
X11785000Y-6604000I-35000J0D01*
G01*
X11785000Y-6731000D02*
G75*
G03*
X11785000Y-6731000I-35000J0D01*
G01*
X11785000Y-6858000D02*
G75*
G03*
X11785000Y-6858000I-35000J0D01*
G01*
X11785000Y-6985000D02*
G75*
G03*
X11785000Y-6985000I-35000J0D01*
G01*
X11785000Y-7112000D02*
G75*
G03*
X11785000Y-7112000I-35000J0D01*
G01*
X11785000Y-7239000D02*
G75*
G03*
X11785000Y-7239000I-35000J0D01*
G01*
D14*
X12636500Y-7961000D02*
X12636500Y-8041000D01*
X12596500Y-8001000D02*
X12676500Y-8001000D01*
X12636500Y-8451000D02*
X12636500Y-8531000D01*
X12596500Y-8491000D02*
X12676500Y-8491000D01*
D15*
X13747820Y-6762820D02*
X13747820Y-6699180D01*
X13684180Y-6699180D01*
X13684180Y-6762820D01*
X13747820Y-6762820D01*
X13747820Y-7016820D02*
X13747820Y-6953180D01*
X13684180Y-6953180D01*
X13684180Y-7016820D01*
X13747820Y-7016820D01*
X15017820Y-6762820D02*
X15017820Y-6699180D01*
X14954180Y-6699180D01*
X14954180Y-6762820D01*
X15017820Y-6762820D01*
X15017820Y-7016820D02*
X15017820Y-6953180D01*
X14954180Y-6953180D01*
X14954180Y-7016820D01*
X15017820Y-7016820D01*
X16287820Y-6762820D02*
X16287820Y-6699180D01*
X16224180Y-6699180D01*
X16224180Y-6762820D01*
X16287820Y-6762820D01*
X16287820Y-7016820D02*
X16287820Y-6953180D01*
X16224180Y-6953180D01*
X16224180Y-7016820D01*
X16287820Y-7016820D01*
D10*
X11747500Y-7797000D02*
X11797500Y-7747000D01*
X11747500Y-7697000D01*
X11697500Y-7747000D01*
X11747500Y-7797000D01*
X11747500Y-8051000D02*
X11797500Y-8001000D01*
X11747500Y-7951000D01*
X11697500Y-8001000D01*
X11747500Y-8051000D01*
X11747500Y-8305000D02*
X11797500Y-8255000D01*
X11747500Y-8205000D01*
X11697500Y-8255000D01*
X11747500Y-8305000D01*
X11747500Y-8559000D02*
X11797500Y-8509000D01*
X11747500Y-8459000D01*
X11697500Y-8509000D01*
X11747500Y-8559000D01*
X11747500Y-8813000D02*
X11797500Y-8763000D01*
X11747500Y-8713000D01*
X11697500Y-8763000D01*
X11747500Y-8813000D01*
X11747500Y-9067000D02*
X11797500Y-9017000D01*
X11747500Y-8967000D01*
X11697500Y-9017000D01*
X11747500Y-9067000D01*
D16*
X12312500Y-6578000D02*
X12422500Y-6688000D01*
X12422500Y-6578000D02*
X12312500Y-6688000D01*
X12422500Y-6633000D02*
G75*
G03*
X12422500Y-6633000I-55000J0D01*
G01*
X12312500Y-7028000D02*
X12422500Y-7138000D01*
X12422500Y-7028000D02*
X12312500Y-7138000D01*
X12422500Y-7083000D02*
G75*
G03*
X12422500Y-7083000I-55000J0D01*
G01*
X12962500Y-6578000D02*
X13072500Y-6688000D01*
X13072500Y-6578000D02*
X12962500Y-6688000D01*
X13072500Y-6633000D02*
G75*
G03*
X13072500Y-6633000I-55000J0D01*
G01*
X12962500Y-7028000D02*
X13072500Y-7138000D01*
X13072500Y-7028000D02*
X12962500Y-7138000D01*
X13072500Y-7083000D02*
G75*
G03*
X13072500Y-7083000I-55000J0D01*
G01*
D11*
X11619119Y-9776976D02*
X11619119Y-9576976D01*
X11666738Y-9576976D01*
X11695309Y-9586500D01*
X11714357Y-9605548D01*
X11723881Y-9624595D01*
X11733405Y-9662690D01*
X11733405Y-9691262D01*
X11723881Y-9729357D01*
X11714357Y-9748405D01*
X11695309Y-9767452D01*
X11666738Y-9776976D01*
X11619119Y-9776976D01*
X11819119Y-9776976D02*
X11819119Y-9643643D01*
X11819119Y-9681738D02*
X11828643Y-9662690D01*
X11838167Y-9653167D01*
X11857214Y-9643643D01*
X11876262Y-9643643D01*
X11942928Y-9776976D02*
X11942928Y-9643643D01*
X11942928Y-9576976D02*
X11933405Y-9586500D01*
X11942928Y-9596024D01*
X11952452Y-9586500D01*
X11942928Y-9576976D01*
X11942928Y-9596024D01*
X12066738Y-9776976D02*
X12047690Y-9767452D01*
X12038167Y-9748405D01*
X12038167Y-9576976D01*
X12171500Y-9776976D02*
X12152452Y-9767452D01*
X12142928Y-9748405D01*
X12142928Y-9576976D01*
X12400071Y-9776976D02*
X12400071Y-9576976D01*
X12466738Y-9719833D01*
X12533405Y-9576976D01*
X12533405Y-9776976D01*
X12714357Y-9776976D02*
X12714357Y-9672214D01*
X12704833Y-9653167D01*
X12685786Y-9643643D01*
X12647690Y-9643643D01*
X12628643Y-9653167D01*
X12714357Y-9767452D02*
X12695309Y-9776976D01*
X12647690Y-9776976D01*
X12628643Y-9767452D01*
X12619119Y-9748405D01*
X12619119Y-9729357D01*
X12628643Y-9710310D01*
X12647690Y-9700786D01*
X12695309Y-9700786D01*
X12714357Y-9691262D01*
X12809595Y-9643643D02*
X12809595Y-9843643D01*
X12809595Y-9653167D02*
X12828643Y-9643643D01*
X12866738Y-9643643D01*
X12885786Y-9653167D01*
X12895309Y-9662690D01*
X12904833Y-9681738D01*
X12904833Y-9738881D01*
X12895309Y-9757929D01*
X12885786Y-9767452D01*
X12866738Y-9776976D01*
X12828643Y-9776976D01*
X12809595Y-9767452D01*
X12990548Y-9757929D02*
X13000071Y-9767452D01*
X12990548Y-9776976D01*
X12981024Y-9767452D01*
X12990548Y-9757929D01*
X12990548Y-9776976D01*
X12990548Y-9653167D02*
X13000071Y-9662690D01*
X12990548Y-9672214D01*
X12981024Y-9662690D01*
X12990548Y-9653167D01*
X12990548Y-9672214D01*
D12*
X11321500Y-10086500D02*
X11361500Y-10126500D01*
X11361500Y-10086500D02*
X11321500Y-10126500D01*
D11*
X11657214Y-9996976D02*
X11676262Y-9996976D01*
X11695309Y-10006500D01*
X11704833Y-10016024D01*
X11714357Y-10035071D01*
X11723881Y-10073167D01*
X11723881Y-10120786D01*
X11714357Y-10158881D01*
X11704833Y-10177929D01*
X11695309Y-10187452D01*
X11676262Y-10196976D01*
X11657214Y-10196976D01*
X11638167Y-10187452D01*
X11628643Y-10177929D01*
X11619119Y-10158881D01*
X11609595Y-10120786D01*
X11609595Y-10073167D01*
X11619119Y-10035071D01*
X11628643Y-10016024D01*
X11638167Y-10006500D01*
X11657214Y-9996976D01*
X11809595Y-10177929D02*
X11819119Y-10187452D01*
X11809595Y-10196976D01*
X11800071Y-10187452D01*
X11809595Y-10177929D01*
X11809595Y-10196976D01*
X11990548Y-10063643D02*
X11990548Y-10196976D01*
X11942928Y-9987452D02*
X11895309Y-10130310D01*
X12019119Y-10130310D01*
X12133405Y-9996976D02*
X12152452Y-9996976D01*
X12171500Y-10006500D01*
X12181024Y-10016024D01*
X12190548Y-10035071D01*
X12200071Y-10073167D01*
X12200071Y-10120786D01*
X12190548Y-10158881D01*
X12181024Y-10177929D01*
X12171500Y-10187452D01*
X12152452Y-10196976D01*
X12133405Y-10196976D01*
X12114357Y-10187452D01*
X12104833Y-10177929D01*
X12095309Y-10158881D01*
X12085786Y-10120786D01*
X12085786Y-10073167D01*
X12095309Y-10035071D01*
X12104833Y-10016024D01*
X12114357Y-10006500D01*
X12133405Y-9996976D01*
X12323881Y-9996976D02*
X12342928Y-9996976D01*
X12361976Y-10006500D01*
X12371500Y-10016024D01*
X12381024Y-10035071D01*
X12390548Y-10073167D01*
X12390548Y-10120786D01*
X12381024Y-10158881D01*
X12371500Y-10177929D01*
X12361976Y-10187452D01*
X12342928Y-10196976D01*
X12323881Y-10196976D01*
X12304833Y-10187452D01*
X12295309Y-10177929D01*
X12285786Y-10158881D01*
X12276262Y-10120786D01*
X12276262Y-10073167D01*
X12285786Y-10035071D01*
X12295309Y-10016024D01*
X12304833Y-10006500D01*
X12323881Y-9996976D01*
X12476262Y-10196976D02*
X12476262Y-10063643D01*
X12476262Y-10082690D02*
X12485786Y-10073167D01*
X12504833Y-10063643D01*
X12533405Y-10063643D01*
X12552452Y-10073167D01*
X12561976Y-10092214D01*
X12561976Y-10196976D01*
X12561976Y-10092214D02*
X12571500Y-10073167D01*
X12590548Y-10063643D01*
X12619119Y-10063643D01*
X12638167Y-10073167D01*
X12647690Y-10092214D01*
X12647690Y-10196976D01*
X12742928Y-10196976D02*
X12742928Y-10063643D01*
X12742928Y-10082690D02*
X12752452Y-10073167D01*
X12771500Y-10063643D01*
X12800071Y-10063643D01*
X12819119Y-10073167D01*
X12828643Y-10092214D01*
X12828643Y-10196976D01*
X12828643Y-10092214D02*
X12838167Y-10073167D01*
X12857214Y-10063643D01*
X12885786Y-10063643D01*
X12904833Y-10073167D01*
X12914357Y-10092214D01*
X12914357Y-10196976D01*
X13304833Y-9987452D02*
X13133405Y-10244595D01*
X13561976Y-9996976D02*
X13581024Y-9996976D01*
X13600071Y-10006500D01*
X13609595Y-10016024D01*
X13619119Y-10035071D01*
X13628643Y-10073167D01*
X13628643Y-10120786D01*
X13619119Y-10158881D01*
X13609595Y-10177929D01*
X13600071Y-10187452D01*
X13581024Y-10196976D01*
X13561976Y-10196976D01*
X13542928Y-10187452D01*
X13533405Y-10177929D01*
X13523881Y-10158881D01*
X13514357Y-10120786D01*
X13514357Y-10073167D01*
X13523881Y-10035071D01*
X13533405Y-10016024D01*
X13542928Y-10006500D01*
X13561976Y-9996976D01*
X13714357Y-10177929D02*
X13723881Y-10187452D01*
X13714357Y-10196976D01*
X13704833Y-10187452D01*
X13714357Y-10177929D01*
X13714357Y-10196976D01*
X13847690Y-9996976D02*
X13866738Y-9996976D01*
X13885786Y-10006500D01*
X13895309Y-10016024D01*
X13904833Y-10035071D01*
X13914357Y-10073167D01*
X13914357Y-10120786D01*
X13904833Y-10158881D01*
X13895309Y-10177929D01*
X13885786Y-10187452D01*
X13866738Y-10196976D01*
X13847690Y-10196976D01*
X13828643Y-10187452D01*
X13819119Y-10177929D01*
X13809595Y-10158881D01*
X13800071Y-10120786D01*
X13800071Y-10073167D01*
X13809595Y-10035071D01*
X13819119Y-10016024D01*
X13828643Y-10006500D01*
X13847690Y-9996976D01*
X14104833Y-10196976D02*
X13990548Y-10196976D01*
X14047690Y-10196976D02*
X14047690Y-9996976D01*
X14028643Y-10025548D01*
X14009595Y-10044595D01*
X13990548Y-10054119D01*
X14285786Y-9996976D02*
X14190548Y-9996976D01*
X14181024Y-10092214D01*
X14190548Y-10082690D01*
X14209595Y-10073167D01*
X14257214Y-10073167D01*
X14276262Y-10082690D01*
X14285786Y-10092214D01*
X14295309Y-10111262D01*
X14295309Y-10158881D01*
X14285786Y-10177929D01*
X14276262Y-10187452D01*
X14257214Y-10196976D01*
X14209595Y-10196976D01*
X14190548Y-10187452D01*
X14181024Y-10177929D01*
X14361976Y-9996976D02*
X14495309Y-9996976D01*
X14409595Y-10196976D01*
X14561976Y-9996976D02*
X14561976Y-10035071D01*
X14638167Y-9996976D02*
X14638167Y-10035071D01*
X14933405Y-10273167D02*
X14923881Y-10263643D01*
X14904833Y-10235071D01*
X14895309Y-10216024D01*
X14885786Y-10187452D01*
X14876262Y-10139833D01*
X14876262Y-10101738D01*
X14885786Y-10054119D01*
X14895309Y-10025548D01*
X14904833Y-10006500D01*
X14923881Y-9977929D01*
X14933405Y-9968405D01*
X15104833Y-9996976D02*
X15009595Y-9996976D01*
X15000071Y-10092214D01*
X15009595Y-10082690D01*
X15028643Y-10073167D01*
X15076262Y-10073167D01*
X15095309Y-10082690D01*
X15104833Y-10092214D01*
X15114357Y-10111262D01*
X15114357Y-10158881D01*
X15104833Y-10177929D01*
X15095309Y-10187452D01*
X15076262Y-10196976D01*
X15028643Y-10196976D01*
X15009595Y-10187452D01*
X15000071Y-10177929D01*
X15209595Y-10196976D02*
X15247690Y-10196976D01*
X15266738Y-10187452D01*
X15276262Y-10177929D01*
X15295309Y-10149357D01*
X15304833Y-10111262D01*
X15304833Y-10035071D01*
X15295309Y-10016024D01*
X15285786Y-10006500D01*
X15266738Y-9996976D01*
X15228643Y-9996976D01*
X15209595Y-10006500D01*
X15200071Y-10016024D01*
X15190548Y-10035071D01*
X15190548Y-10082690D01*
X15200071Y-10101738D01*
X15209595Y-10111262D01*
X15228643Y-10120786D01*
X15266738Y-10120786D01*
X15285786Y-10111262D01*
X15295309Y-10101738D01*
X15304833Y-10082690D01*
X15542928Y-10196976D02*
X15542928Y-9996976D01*
X15628643Y-10196976D02*
X15628643Y-10092214D01*
X15619119Y-10073167D01*
X15600071Y-10063643D01*
X15571500Y-10063643D01*
X15552452Y-10073167D01*
X15542928Y-10082690D01*
X15752452Y-10196976D02*
X15733405Y-10187452D01*
X15723881Y-10177929D01*
X15714357Y-10158881D01*
X15714357Y-10101738D01*
X15723881Y-10082690D01*
X15733405Y-10073167D01*
X15752452Y-10063643D01*
X15781024Y-10063643D01*
X15800071Y-10073167D01*
X15809595Y-10082690D01*
X15819119Y-10101738D01*
X15819119Y-10158881D01*
X15809595Y-10177929D01*
X15800071Y-10187452D01*
X15781024Y-10196976D01*
X15752452Y-10196976D01*
X15933405Y-10196976D02*
X15914357Y-10187452D01*
X15904833Y-10168405D01*
X15904833Y-9996976D01*
X16085786Y-10187452D02*
X16066738Y-10196976D01*
X16028643Y-10196976D01*
X16009595Y-10187452D01*
X16000071Y-10168405D01*
X16000071Y-10092214D01*
X16009595Y-10073167D01*
X16028643Y-10063643D01*
X16066738Y-10063643D01*
X16085786Y-10073167D01*
X16095309Y-10092214D01*
X16095309Y-10111262D01*
X16000071Y-10130310D01*
X16171500Y-10187452D02*
X16190548Y-10196976D01*
X16228643Y-10196976D01*
X16247690Y-10187452D01*
X16257214Y-10168405D01*
X16257214Y-10158881D01*
X16247690Y-10139833D01*
X16228643Y-10130310D01*
X16200071Y-10130310D01*
X16181024Y-10120786D01*
X16171500Y-10101738D01*
X16171500Y-10092214D01*
X16181024Y-10073167D01*
X16200071Y-10063643D01*
X16228643Y-10063643D01*
X16247690Y-10073167D01*
X16323881Y-10273167D02*
X16333405Y-10263643D01*
X16352452Y-10235071D01*
X16361976Y-10216024D01*
X16371500Y-10187452D01*
X16381024Y-10139833D01*
X16381024Y-10101738D01*
X16371500Y-10054119D01*
X16361976Y-10025548D01*
X16352452Y-10006500D01*
X16333405Y-9977929D01*
X16323881Y-9968405D01*
D13*
X11361500Y-10370500D02*
G75*
G03*
X11361500Y-10370500I-35000J0D01*
G01*
D11*
X11657214Y-10260976D02*
X11676262Y-10260976D01*
X11695309Y-10270500D01*
X11704833Y-10280024D01*
X11714357Y-10299071D01*
X11723881Y-10337167D01*
X11723881Y-10384786D01*
X11714357Y-10422881D01*
X11704833Y-10441929D01*
X11695309Y-10451452D01*
X11676262Y-10460976D01*
X11657214Y-10460976D01*
X11638167Y-10451452D01*
X11628643Y-10441929D01*
X11619119Y-10422881D01*
X11609595Y-10384786D01*
X11609595Y-10337167D01*
X11619119Y-10299071D01*
X11628643Y-10280024D01*
X11638167Y-10270500D01*
X11657214Y-10260976D01*
X11809595Y-10441929D02*
X11819119Y-10451452D01*
X11809595Y-10460976D01*
X11800071Y-10451452D01*
X11809595Y-10441929D01*
X11809595Y-10460976D01*
X11885786Y-10260976D02*
X12019119Y-10260976D01*
X11933405Y-10460976D01*
X12133405Y-10260976D02*
X12152452Y-10260976D01*
X12171500Y-10270500D01*
X12181024Y-10280024D01*
X12190548Y-10299071D01*
X12200071Y-10337167D01*
X12200071Y-10384786D01*
X12190548Y-10422881D01*
X12181024Y-10441929D01*
X12171500Y-10451452D01*
X12152452Y-10460976D01*
X12133405Y-10460976D01*
X12114357Y-10451452D01*
X12104833Y-10441929D01*
X12095309Y-10422881D01*
X12085786Y-10384786D01*
X12085786Y-10337167D01*
X12095309Y-10299071D01*
X12104833Y-10280024D01*
X12114357Y-10270500D01*
X12133405Y-10260976D01*
X12323881Y-10260976D02*
X12342928Y-10260976D01*
X12361976Y-10270500D01*
X12371500Y-10280024D01*
X12381024Y-10299071D01*
X12390548Y-10337167D01*
X12390548Y-10384786D01*
X12381024Y-10422881D01*
X12371500Y-10441929D01*
X12361976Y-10451452D01*
X12342928Y-10460976D01*
X12323881Y-10460976D01*
X12304833Y-10451452D01*
X12295309Y-10441929D01*
X12285786Y-10422881D01*
X12276262Y-10384786D01*
X12276262Y-10337167D01*
X12285786Y-10299071D01*
X12295309Y-10280024D01*
X12304833Y-10270500D01*
X12323881Y-10260976D01*
X12476262Y-10460976D02*
X12476262Y-10327643D01*
X12476262Y-10346690D02*
X12485786Y-10337167D01*
X12504833Y-10327643D01*
X12533405Y-10327643D01*
X12552452Y-10337167D01*
X12561976Y-10356214D01*
X12561976Y-10460976D01*
X12561976Y-10356214D02*
X12571500Y-10337167D01*
X12590548Y-10327643D01*
X12619119Y-10327643D01*
X12638167Y-10337167D01*
X12647690Y-10356214D01*
X12647690Y-10460976D01*
X12742928Y-10460976D02*
X12742928Y-10327643D01*
X12742928Y-10346690D02*
X12752452Y-10337167D01*
X12771500Y-10327643D01*
X12800071Y-10327643D01*
X12819119Y-10337167D01*
X12828643Y-10356214D01*
X12828643Y-10460976D01*
X12828643Y-10356214D02*
X12838167Y-10337167D01*
X12857214Y-10327643D01*
X12885786Y-10327643D01*
X12904833Y-10337167D01*
X12914357Y-10356214D01*
X12914357Y-10460976D01*
X13304833Y-10251452D02*
X13133405Y-10508595D01*
X13561976Y-10260976D02*
X13581024Y-10260976D01*
X13600071Y-10270500D01*
X13609595Y-10280024D01*
X13619119Y-10299071D01*
X13628643Y-10337167D01*
X13628643Y-10384786D01*
X13619119Y-10422881D01*
X13609595Y-10441929D01*
X13600071Y-10451452D01*
X13581024Y-10460976D01*
X13561976Y-10460976D01*
X13542928Y-10451452D01*
X13533405Y-10441929D01*
X13523881Y-10422881D01*
X13514357Y-10384786D01*
X13514357Y-10337167D01*
X13523881Y-10299071D01*
X13533405Y-10280024D01*
X13542928Y-10270500D01*
X13561976Y-10260976D01*
X13714357Y-10441929D02*
X13723881Y-10451452D01*
X13714357Y-10460976D01*
X13704833Y-10451452D01*
X13714357Y-10441929D01*
X13714357Y-10460976D01*
X13847690Y-10260976D02*
X13866738Y-10260976D01*
X13885786Y-10270500D01*
X13895309Y-10280024D01*
X13904833Y-10299071D01*
X13914357Y-10337167D01*
X13914357Y-10384786D01*
X13904833Y-10422881D01*
X13895309Y-10441929D01*
X13885786Y-10451452D01*
X13866738Y-10460976D01*
X13847690Y-10460976D01*
X13828643Y-10451452D01*
X13819119Y-10441929D01*
X13809595Y-10422881D01*
X13800071Y-10384786D01*
X13800071Y-10337167D01*
X13809595Y-10299071D01*
X13819119Y-10280024D01*
X13828643Y-10270500D01*
X13847690Y-10260976D01*
X13990548Y-10280024D02*
X14000071Y-10270500D01*
X14019119Y-10260976D01*
X14066738Y-10260976D01*
X14085786Y-10270500D01*
X14095309Y-10280024D01*
X14104833Y-10299071D01*
X14104833Y-10318119D01*
X14095309Y-10346690D01*
X13981024Y-10460976D01*
X14104833Y-10460976D01*
X14171500Y-10260976D02*
X14304833Y-10260976D01*
X14219119Y-10460976D01*
X14466738Y-10260976D02*
X14428643Y-10260976D01*
X14409595Y-10270500D01*
X14400071Y-10280024D01*
X14381024Y-10308595D01*
X14371500Y-10346690D01*
X14371500Y-10422881D01*
X14381024Y-10441929D01*
X14390548Y-10451452D01*
X14409595Y-10460976D01*
X14447690Y-10460976D01*
X14466738Y-10451452D01*
X14476262Y-10441929D01*
X14485786Y-10422881D01*
X14485786Y-10375262D01*
X14476262Y-10356214D01*
X14466738Y-10346690D01*
X14447690Y-10337167D01*
X14409595Y-10337167D01*
X14390548Y-10346690D01*
X14381024Y-10356214D01*
X14371500Y-10375262D01*
X14561976Y-10260976D02*
X14561976Y-10299071D01*
X14638167Y-10260976D02*
X14638167Y-10299071D01*
X14933405Y-10537167D02*
X14923881Y-10527643D01*
X14904833Y-10499071D01*
X14895309Y-10480024D01*
X14885786Y-10451452D01*
X14876262Y-10403833D01*
X14876262Y-10365738D01*
X14885786Y-10318119D01*
X14895309Y-10289548D01*
X14904833Y-10270500D01*
X14923881Y-10241929D01*
X14933405Y-10232405D01*
X15095309Y-10260976D02*
X15057214Y-10260976D01*
X15038167Y-10270500D01*
X15028643Y-10280024D01*
X15009595Y-10308595D01*
X15000071Y-10346690D01*
X15000071Y-10422881D01*
X15009595Y-10441929D01*
X15019119Y-10451452D01*
X15038167Y-10460976D01*
X15076262Y-10460976D01*
X15095309Y-10451452D01*
X15104833Y-10441929D01*
X15114357Y-10422881D01*
X15114357Y-10375262D01*
X15104833Y-10356214D01*
X15095309Y-10346690D01*
X15076262Y-10337167D01*
X15038167Y-10337167D01*
X15019119Y-10346690D01*
X15009595Y-10356214D01*
X15000071Y-10375262D01*
X15352452Y-10460976D02*
X15352452Y-10260976D01*
X15438167Y-10460976D02*
X15438167Y-10356214D01*
X15428643Y-10337167D01*
X15409595Y-10327643D01*
X15381024Y-10327643D01*
X15361976Y-10337167D01*
X15352452Y-10346690D01*
X15561976Y-10460976D02*
X15542928Y-10451452D01*
X15533405Y-10441929D01*
X15523881Y-10422881D01*
X15523881Y-10365738D01*
X15533405Y-10346690D01*
X15542928Y-10337167D01*
X15561976Y-10327643D01*
X15590548Y-10327643D01*
X15609595Y-10337167D01*
X15619119Y-10346690D01*
X15628643Y-10365738D01*
X15628643Y-10422881D01*
X15619119Y-10441929D01*
X15609595Y-10451452D01*
X15590548Y-10460976D01*
X15561976Y-10460976D01*
X15742928Y-10460976D02*
X15723881Y-10451452D01*
X15714357Y-10432405D01*
X15714357Y-10260976D01*
X15895309Y-10451452D02*
X15876262Y-10460976D01*
X15838167Y-10460976D01*
X15819119Y-10451452D01*
X15809595Y-10432405D01*
X15809595Y-10356214D01*
X15819119Y-10337167D01*
X15838167Y-10327643D01*
X15876262Y-10327643D01*
X15895309Y-10337167D01*
X15904833Y-10356214D01*
X15904833Y-10375262D01*
X15809595Y-10394310D01*
X15981024Y-10451452D02*
X16000071Y-10460976D01*
X16038167Y-10460976D01*
X16057214Y-10451452D01*
X16066738Y-10432405D01*
X16066738Y-10422881D01*
X16057214Y-10403833D01*
X16038167Y-10394310D01*
X16009595Y-10394310D01*
X15990548Y-10384786D01*
X15981024Y-10365738D01*
X15981024Y-10356214D01*
X15990548Y-10337167D01*
X16009595Y-10327643D01*
X16038167Y-10327643D01*
X16057214Y-10337167D01*
X16133405Y-10537167D02*
X16142928Y-10527643D01*
X16161976Y-10499071D01*
X16171500Y-10480024D01*
X16181024Y-10451452D01*
X16190548Y-10403833D01*
X16190548Y-10365738D01*
X16181024Y-10318119D01*
X16171500Y-10289548D01*
X16161976Y-10270500D01*
X16142928Y-10241929D01*
X16133405Y-10232405D01*
D14*
X11321500Y-10594500D02*
X11321500Y-10674500D01*
X11281500Y-10634500D02*
X11361500Y-10634500D01*
D11*
X11657214Y-10524976D02*
X11676262Y-10524976D01*
X11695309Y-10534500D01*
X11704833Y-10544024D01*
X11714357Y-10563071D01*
X11723881Y-10601167D01*
X11723881Y-10648786D01*
X11714357Y-10686881D01*
X11704833Y-10705929D01*
X11695309Y-10715452D01*
X11676262Y-10724976D01*
X11657214Y-10724976D01*
X11638167Y-10715452D01*
X11628643Y-10705929D01*
X11619119Y-10686881D01*
X11609595Y-10648786D01*
X11609595Y-10601167D01*
X11619119Y-10563071D01*
X11628643Y-10544024D01*
X11638167Y-10534500D01*
X11657214Y-10524976D01*
X11809595Y-10705929D02*
X11819119Y-10715452D01*
X11809595Y-10724976D01*
X11800071Y-10715452D01*
X11809595Y-10705929D01*
X11809595Y-10724976D01*
X11933405Y-10610690D02*
X11914357Y-10601167D01*
X11904833Y-10591643D01*
X11895309Y-10572595D01*
X11895309Y-10563071D01*
X11904833Y-10544024D01*
X11914357Y-10534500D01*
X11933405Y-10524976D01*
X11971500Y-10524976D01*
X11990548Y-10534500D01*
X12000071Y-10544024D01*
X12009595Y-10563071D01*
X12009595Y-10572595D01*
X12000071Y-10591643D01*
X11990548Y-10601167D01*
X11971500Y-10610690D01*
X11933405Y-10610690D01*
X11914357Y-10620214D01*
X11904833Y-10629738D01*
X11895309Y-10648786D01*
X11895309Y-10686881D01*
X11904833Y-10705929D01*
X11914357Y-10715452D01*
X11933405Y-10724976D01*
X11971500Y-10724976D01*
X11990548Y-10715452D01*
X12000071Y-10705929D01*
X12009595Y-10686881D01*
X12009595Y-10648786D01*
X12000071Y-10629738D01*
X11990548Y-10620214D01*
X11971500Y-10610690D01*
X12133405Y-10524976D02*
X12152452Y-10524976D01*
X12171500Y-10534500D01*
X12181024Y-10544024D01*
X12190548Y-10563071D01*
X12200071Y-10601167D01*
X12200071Y-10648786D01*
X12190548Y-10686881D01*
X12181024Y-10705929D01*
X12171500Y-10715452D01*
X12152452Y-10724976D01*
X12133405Y-10724976D01*
X12114357Y-10715452D01*
X12104833Y-10705929D01*
X12095309Y-10686881D01*
X12085786Y-10648786D01*
X12085786Y-10601167D01*
X12095309Y-10563071D01*
X12104833Y-10544024D01*
X12114357Y-10534500D01*
X12133405Y-10524976D01*
X12323881Y-10524976D02*
X12342928Y-10524976D01*
X12361976Y-10534500D01*
X12371500Y-10544024D01*
X12381024Y-10563071D01*
X12390548Y-10601167D01*
X12390548Y-10648786D01*
X12381024Y-10686881D01*
X12371500Y-10705929D01*
X12361976Y-10715452D01*
X12342928Y-10724976D01*
X12323881Y-10724976D01*
X12304833Y-10715452D01*
X12295309Y-10705929D01*
X12285786Y-10686881D01*
X12276262Y-10648786D01*
X12276262Y-10601167D01*
X12285786Y-10563071D01*
X12295309Y-10544024D01*
X12304833Y-10534500D01*
X12323881Y-10524976D01*
X12476262Y-10724976D02*
X12476262Y-10591643D01*
X12476262Y-10610690D02*
X12485786Y-10601167D01*
X12504833Y-10591643D01*
X12533405Y-10591643D01*
X12552452Y-10601167D01*
X12561976Y-10620214D01*
X12561976Y-10724976D01*
X12561976Y-10620214D02*
X12571500Y-10601167D01*
X12590548Y-10591643D01*
X12619119Y-10591643D01*
X12638167Y-10601167D01*
X12647690Y-10620214D01*
X12647690Y-10724976D01*
X12742928Y-10724976D02*
X12742928Y-10591643D01*
X12742928Y-10610690D02*
X12752452Y-10601167D01*
X12771500Y-10591643D01*
X12800071Y-10591643D01*
X12819119Y-10601167D01*
X12828643Y-10620214D01*
X12828643Y-10724976D01*
X12828643Y-10620214D02*
X12838167Y-10601167D01*
X12857214Y-10591643D01*
X12885786Y-10591643D01*
X12904833Y-10601167D01*
X12914357Y-10620214D01*
X12914357Y-10724976D01*
X13304833Y-10515452D02*
X13133405Y-10772595D01*
X13561976Y-10524976D02*
X13581024Y-10524976D01*
X13600071Y-10534500D01*
X13609595Y-10544024D01*
X13619119Y-10563071D01*
X13628643Y-10601167D01*
X13628643Y-10648786D01*
X13619119Y-10686881D01*
X13609595Y-10705929D01*
X13600071Y-10715452D01*
X13581024Y-10724976D01*
X13561976Y-10724976D01*
X13542928Y-10715452D01*
X13533405Y-10705929D01*
X13523881Y-10686881D01*
X13514357Y-10648786D01*
X13514357Y-10601167D01*
X13523881Y-10563071D01*
X13533405Y-10544024D01*
X13542928Y-10534500D01*
X13561976Y-10524976D01*
X13714357Y-10705929D02*
X13723881Y-10715452D01*
X13714357Y-10724976D01*
X13704833Y-10715452D01*
X13714357Y-10705929D01*
X13714357Y-10724976D01*
X13847690Y-10524976D02*
X13866738Y-10524976D01*
X13885786Y-10534500D01*
X13895309Y-10544024D01*
X13904833Y-10563071D01*
X13914357Y-10601167D01*
X13914357Y-10648786D01*
X13904833Y-10686881D01*
X13895309Y-10705929D01*
X13885786Y-10715452D01*
X13866738Y-10724976D01*
X13847690Y-10724976D01*
X13828643Y-10715452D01*
X13819119Y-10705929D01*
X13809595Y-10686881D01*
X13800071Y-10648786D01*
X13800071Y-10601167D01*
X13809595Y-10563071D01*
X13819119Y-10544024D01*
X13828643Y-10534500D01*
X13847690Y-10524976D01*
X13981024Y-10524976D02*
X14104833Y-10524976D01*
X14038167Y-10601167D01*
X14066738Y-10601167D01*
X14085786Y-10610690D01*
X14095309Y-10620214D01*
X14104833Y-10639262D01*
X14104833Y-10686881D01*
X14095309Y-10705929D01*
X14085786Y-10715452D01*
X14066738Y-10724976D01*
X14009595Y-10724976D01*
X13990548Y-10715452D01*
X13981024Y-10705929D01*
X14295309Y-10724976D02*
X14181024Y-10724976D01*
X14238167Y-10724976D02*
X14238167Y-10524976D01*
X14219119Y-10553548D01*
X14200071Y-10572595D01*
X14181024Y-10582119D01*
X14476262Y-10524976D02*
X14381024Y-10524976D01*
X14371500Y-10620214D01*
X14381024Y-10610690D01*
X14400071Y-10601167D01*
X14447690Y-10601167D01*
X14466738Y-10610690D01*
X14476262Y-10620214D01*
X14485786Y-10639262D01*
X14485786Y-10686881D01*
X14476262Y-10705929D01*
X14466738Y-10715452D01*
X14447690Y-10724976D01*
X14400071Y-10724976D01*
X14381024Y-10715452D01*
X14371500Y-10705929D01*
X14561976Y-10524976D02*
X14561976Y-10563071D01*
X14638167Y-10524976D02*
X14638167Y-10563071D01*
X14933405Y-10801167D02*
X14923881Y-10791643D01*
X14904833Y-10763071D01*
X14895309Y-10744024D01*
X14885786Y-10715452D01*
X14876262Y-10667833D01*
X14876262Y-10629738D01*
X14885786Y-10582119D01*
X14895309Y-10553548D01*
X14904833Y-10534500D01*
X14923881Y-10505929D01*
X14933405Y-10496405D01*
X15000071Y-10544024D02*
X15009595Y-10534500D01*
X15028643Y-10524976D01*
X15076262Y-10524976D01*
X15095309Y-10534500D01*
X15104833Y-10544024D01*
X15114357Y-10563071D01*
X15114357Y-10582119D01*
X15104833Y-10610690D01*
X14990548Y-10724976D01*
X15114357Y-10724976D01*
X15352452Y-10724976D02*
X15352452Y-10524976D01*
X15438167Y-10724976D02*
X15438167Y-10620214D01*
X15428643Y-10601167D01*
X15409595Y-10591643D01*
X15381024Y-10591643D01*
X15361976Y-10601167D01*
X15352452Y-10610690D01*
X15561976Y-10724976D02*
X15542928Y-10715452D01*
X15533405Y-10705929D01*
X15523881Y-10686881D01*
X15523881Y-10629738D01*
X15533405Y-10610690D01*
X15542928Y-10601167D01*
X15561976Y-10591643D01*
X15590548Y-10591643D01*
X15609595Y-10601167D01*
X15619119Y-10610690D01*
X15628643Y-10629738D01*
X15628643Y-10686881D01*
X15619119Y-10705929D01*
X15609595Y-10715452D01*
X15590548Y-10724976D01*
X15561976Y-10724976D01*
X15742928Y-10724976D02*
X15723881Y-10715452D01*
X15714357Y-10696405D01*
X15714357Y-10524976D01*
X15895309Y-10715452D02*
X15876262Y-10724976D01*
X15838167Y-10724976D01*
X15819119Y-10715452D01*
X15809595Y-10696405D01*
X15809595Y-10620214D01*
X15819119Y-10601167D01*
X15838167Y-10591643D01*
X15876262Y-10591643D01*
X15895309Y-10601167D01*
X15904833Y-10620214D01*
X15904833Y-10639262D01*
X15809595Y-10658310D01*
X15981024Y-10715452D02*
X16000071Y-10724976D01*
X16038167Y-10724976D01*
X16057214Y-10715452D01*
X16066738Y-10696405D01*
X16066738Y-10686881D01*
X16057214Y-10667833D01*
X16038167Y-10658310D01*
X16009595Y-10658310D01*
X15990548Y-10648786D01*
X15981024Y-10629738D01*
X15981024Y-10620214D01*
X15990548Y-10601167D01*
X16009595Y-10591643D01*
X16038167Y-10591643D01*
X16057214Y-10601167D01*
X16133405Y-10801167D02*
X16142928Y-10791643D01*
X16161976Y-10763071D01*
X16171500Y-10744024D01*
X16181024Y-10715452D01*
X16190548Y-10667833D01*
X16190548Y-10629738D01*
X16181024Y-10582119D01*
X16171500Y-10553548D01*
X16161976Y-10534500D01*
X16142928Y-10505929D01*
X16133405Y-10496405D01*
D15*
X11348320Y-10930320D02*
X11348320Y-10866680D01*
X11284680Y-10866680D01*
X11284680Y-10930320D01*
X11348320Y-10930320D01*
D11*
X11657214Y-10788976D02*
X11676262Y-10788976D01*
X11695309Y-10798500D01*
X11704833Y-10808024D01*
X11714357Y-10827071D01*
X11723881Y-10865167D01*
X11723881Y-10912786D01*
X11714357Y-10950881D01*
X11704833Y-10969929D01*
X11695309Y-10979452D01*
X11676262Y-10988976D01*
X11657214Y-10988976D01*
X11638167Y-10979452D01*
X11628643Y-10969929D01*
X11619119Y-10950881D01*
X11609595Y-10912786D01*
X11609595Y-10865167D01*
X11619119Y-10827071D01*
X11628643Y-10808024D01*
X11638167Y-10798500D01*
X11657214Y-10788976D01*
X11809595Y-10969929D02*
X11819119Y-10979452D01*
X11809595Y-10988976D01*
X11800071Y-10979452D01*
X11809595Y-10969929D01*
X11809595Y-10988976D01*
X11914357Y-10988976D02*
X11952452Y-10988976D01*
X11971500Y-10979452D01*
X11981024Y-10969929D01*
X12000071Y-10941357D01*
X12009595Y-10903262D01*
X12009595Y-10827071D01*
X12000071Y-10808024D01*
X11990548Y-10798500D01*
X11971500Y-10788976D01*
X11933405Y-10788976D01*
X11914357Y-10798500D01*
X11904833Y-10808024D01*
X11895309Y-10827071D01*
X11895309Y-10874690D01*
X11904833Y-10893738D01*
X11914357Y-10903262D01*
X11933405Y-10912786D01*
X11971500Y-10912786D01*
X11990548Y-10903262D01*
X12000071Y-10893738D01*
X12009595Y-10874690D01*
X12133405Y-10788976D02*
X12152452Y-10788976D01*
X12171500Y-10798500D01*
X12181024Y-10808024D01*
X12190548Y-10827071D01*
X12200071Y-10865167D01*
X12200071Y-10912786D01*
X12190548Y-10950881D01*
X12181024Y-10969929D01*
X12171500Y-10979452D01*
X12152452Y-10988976D01*
X12133405Y-10988976D01*
X12114357Y-10979452D01*
X12104833Y-10969929D01*
X12095309Y-10950881D01*
X12085786Y-10912786D01*
X12085786Y-10865167D01*
X12095309Y-10827071D01*
X12104833Y-10808024D01*
X12114357Y-10798500D01*
X12133405Y-10788976D01*
X12323881Y-10788976D02*
X12342928Y-10788976D01*
X12361976Y-10798500D01*
X12371500Y-10808024D01*
X12381024Y-10827071D01*
X12390548Y-10865167D01*
X12390548Y-10912786D01*
X12381024Y-10950881D01*
X12371500Y-10969929D01*
X12361976Y-10979452D01*
X12342928Y-10988976D01*
X12323881Y-10988976D01*
X12304833Y-10979452D01*
X12295309Y-10969929D01*
X12285786Y-10950881D01*
X12276262Y-10912786D01*
X12276262Y-10865167D01*
X12285786Y-10827071D01*
X12295309Y-10808024D01*
X12304833Y-10798500D01*
X12323881Y-10788976D01*
X12476262Y-10988976D02*
X12476262Y-10855643D01*
X12476262Y-10874690D02*
X12485786Y-10865167D01*
X12504833Y-10855643D01*
X12533405Y-10855643D01*
X12552452Y-10865167D01*
X12561976Y-10884214D01*
X12561976Y-10988976D01*
X12561976Y-10884214D02*
X12571500Y-10865167D01*
X12590548Y-10855643D01*
X12619119Y-10855643D01*
X12638167Y-10865167D01*
X12647690Y-10884214D01*
X12647690Y-10988976D01*
X12742928Y-10988976D02*
X12742928Y-10855643D01*
X12742928Y-10874690D02*
X12752452Y-10865167D01*
X12771500Y-10855643D01*
X12800071Y-10855643D01*
X12819119Y-10865167D01*
X12828643Y-10884214D01*
X12828643Y-10988976D01*
X12828643Y-10884214D02*
X12838167Y-10865167D01*
X12857214Y-10855643D01*
X12885786Y-10855643D01*
X12904833Y-10865167D01*
X12914357Y-10884214D01*
X12914357Y-10988976D01*
X13304833Y-10779452D02*
X13133405Y-11036595D01*
X13561976Y-10788976D02*
X13581024Y-10788976D01*
X13600071Y-10798500D01*
X13609595Y-10808024D01*
X13619119Y-10827071D01*
X13628643Y-10865167D01*
X13628643Y-10912786D01*
X13619119Y-10950881D01*
X13609595Y-10969929D01*
X13600071Y-10979452D01*
X13581024Y-10988976D01*
X13561976Y-10988976D01*
X13542928Y-10979452D01*
X13533405Y-10969929D01*
X13523881Y-10950881D01*
X13514357Y-10912786D01*
X13514357Y-10865167D01*
X13523881Y-10827071D01*
X13533405Y-10808024D01*
X13542928Y-10798500D01*
X13561976Y-10788976D01*
X13714357Y-10969929D02*
X13723881Y-10979452D01*
X13714357Y-10988976D01*
X13704833Y-10979452D01*
X13714357Y-10969929D01*
X13714357Y-10988976D01*
X13847690Y-10788976D02*
X13866738Y-10788976D01*
X13885786Y-10798500D01*
X13895309Y-10808024D01*
X13904833Y-10827071D01*
X13914357Y-10865167D01*
X13914357Y-10912786D01*
X13904833Y-10950881D01*
X13895309Y-10969929D01*
X13885786Y-10979452D01*
X13866738Y-10988976D01*
X13847690Y-10988976D01*
X13828643Y-10979452D01*
X13819119Y-10969929D01*
X13809595Y-10950881D01*
X13800071Y-10912786D01*
X13800071Y-10865167D01*
X13809595Y-10827071D01*
X13819119Y-10808024D01*
X13828643Y-10798500D01*
X13847690Y-10788976D01*
X13981024Y-10788976D02*
X14104833Y-10788976D01*
X14038167Y-10865167D01*
X14066738Y-10865167D01*
X14085786Y-10874690D01*
X14095309Y-10884214D01*
X14104833Y-10903262D01*
X14104833Y-10950881D01*
X14095309Y-10969929D01*
X14085786Y-10979452D01*
X14066738Y-10988976D01*
X14009595Y-10988976D01*
X13990548Y-10979452D01*
X13981024Y-10969929D01*
X14285786Y-10788976D02*
X14190548Y-10788976D01*
X14181024Y-10884214D01*
X14190548Y-10874690D01*
X14209595Y-10865167D01*
X14257214Y-10865167D01*
X14276262Y-10874690D01*
X14285786Y-10884214D01*
X14295309Y-10903262D01*
X14295309Y-10950881D01*
X14285786Y-10969929D01*
X14276262Y-10979452D01*
X14257214Y-10988976D01*
X14209595Y-10988976D01*
X14190548Y-10979452D01*
X14181024Y-10969929D01*
X14466738Y-10855643D02*
X14466738Y-10988976D01*
X14419119Y-10779452D02*
X14371500Y-10922310D01*
X14495309Y-10922310D01*
X14561976Y-10788976D02*
X14561976Y-10827071D01*
X14638167Y-10788976D02*
X14638167Y-10827071D01*
X14933405Y-11065167D02*
X14923881Y-11055643D01*
X14904833Y-11027071D01*
X14895309Y-11008024D01*
X14885786Y-10979452D01*
X14876262Y-10931833D01*
X14876262Y-10893738D01*
X14885786Y-10846119D01*
X14895309Y-10817548D01*
X14904833Y-10798500D01*
X14923881Y-10769929D01*
X14933405Y-10760405D01*
X15095309Y-10788976D02*
X15057214Y-10788976D01*
X15038167Y-10798500D01*
X15028643Y-10808024D01*
X15009595Y-10836595D01*
X15000071Y-10874690D01*
X15000071Y-10950881D01*
X15009595Y-10969929D01*
X15019119Y-10979452D01*
X15038167Y-10988976D01*
X15076262Y-10988976D01*
X15095309Y-10979452D01*
X15104833Y-10969929D01*
X15114357Y-10950881D01*
X15114357Y-10903262D01*
X15104833Y-10884214D01*
X15095309Y-10874690D01*
X15076262Y-10865167D01*
X15038167Y-10865167D01*
X15019119Y-10874690D01*
X15009595Y-10884214D01*
X15000071Y-10903262D01*
X15352452Y-10988976D02*
X15352452Y-10788976D01*
X15438167Y-10988976D02*
X15438167Y-10884214D01*
X15428643Y-10865167D01*
X15409595Y-10855643D01*
X15381024Y-10855643D01*
X15361976Y-10865167D01*
X15352452Y-10874690D01*
X15561976Y-10988976D02*
X15542928Y-10979452D01*
X15533405Y-10969929D01*
X15523881Y-10950881D01*
X15523881Y-10893738D01*
X15533405Y-10874690D01*
X15542928Y-10865167D01*
X15561976Y-10855643D01*
X15590548Y-10855643D01*
X15609595Y-10865167D01*
X15619119Y-10874690D01*
X15628643Y-10893738D01*
X15628643Y-10950881D01*
X15619119Y-10969929D01*
X15609595Y-10979452D01*
X15590548Y-10988976D01*
X15561976Y-10988976D01*
X15742928Y-10988976D02*
X15723881Y-10979452D01*
X15714357Y-10960405D01*
X15714357Y-10788976D01*
X15895309Y-10979452D02*
X15876262Y-10988976D01*
X15838167Y-10988976D01*
X15819119Y-10979452D01*
X15809595Y-10960405D01*
X15809595Y-10884214D01*
X15819119Y-10865167D01*
X15838167Y-10855643D01*
X15876262Y-10855643D01*
X15895309Y-10865167D01*
X15904833Y-10884214D01*
X15904833Y-10903262D01*
X15809595Y-10922310D01*
X15981024Y-10979452D02*
X16000071Y-10988976D01*
X16038167Y-10988976D01*
X16057214Y-10979452D01*
X16066738Y-10960405D01*
X16066738Y-10950881D01*
X16057214Y-10931833D01*
X16038167Y-10922310D01*
X16009595Y-10922310D01*
X15990548Y-10912786D01*
X15981024Y-10893738D01*
X15981024Y-10884214D01*
X15990548Y-10865167D01*
X16009595Y-10855643D01*
X16038167Y-10855643D01*
X16057214Y-10865167D01*
X16133405Y-11065167D02*
X16142928Y-11055643D01*
X16161976Y-11027071D01*
X16171500Y-11008024D01*
X16181024Y-10979452D01*
X16190548Y-10931833D01*
X16190548Y-10893738D01*
X16181024Y-10846119D01*
X16171500Y-10817548D01*
X16161976Y-10798500D01*
X16142928Y-10769929D01*
X16133405Y-10760405D01*
D10*
X11311500Y-11212500D02*
X11361500Y-11162500D01*
X11311500Y-11112500D01*
X11261500Y-11162500D01*
X11311500Y-11212500D01*
D11*
X11723881Y-11252976D02*
X11609595Y-11252976D01*
X11666738Y-11252976D02*
X11666738Y-11052976D01*
X11647690Y-11081548D01*
X11628643Y-11100595D01*
X11609595Y-11110119D01*
X11809595Y-11233928D02*
X11819119Y-11243452D01*
X11809595Y-11252976D01*
X11800071Y-11243452D01*
X11809595Y-11233928D01*
X11809595Y-11252976D01*
X11942928Y-11052976D02*
X11961976Y-11052976D01*
X11981024Y-11062500D01*
X11990548Y-11072024D01*
X12000071Y-11091071D01*
X12009595Y-11129167D01*
X12009595Y-11176786D01*
X12000071Y-11214881D01*
X11990548Y-11233928D01*
X11981024Y-11243452D01*
X11961976Y-11252976D01*
X11942928Y-11252976D01*
X11923881Y-11243452D01*
X11914357Y-11233928D01*
X11904833Y-11214881D01*
X11895309Y-11176786D01*
X11895309Y-11129167D01*
X11904833Y-11091071D01*
X11914357Y-11072024D01*
X11923881Y-11062500D01*
X11942928Y-11052976D01*
X12133405Y-11052976D02*
X12152452Y-11052976D01*
X12171500Y-11062500D01*
X12181024Y-11072024D01*
X12190548Y-11091071D01*
X12200071Y-11129167D01*
X12200071Y-11176786D01*
X12190548Y-11214881D01*
X12181024Y-11233928D01*
X12171500Y-11243452D01*
X12152452Y-11252976D01*
X12133405Y-11252976D01*
X12114357Y-11243452D01*
X12104833Y-11233928D01*
X12095309Y-11214881D01*
X12085786Y-11176786D01*
X12085786Y-11129167D01*
X12095309Y-11091071D01*
X12104833Y-11072024D01*
X12114357Y-11062500D01*
X12133405Y-11052976D01*
X12323881Y-11052976D02*
X12342928Y-11052976D01*
X12361976Y-11062500D01*
X12371500Y-11072024D01*
X12381024Y-11091071D01*
X12390548Y-11129167D01*
X12390548Y-11176786D01*
X12381024Y-11214881D01*
X12371500Y-11233928D01*
X12361976Y-11243452D01*
X12342928Y-11252976D01*
X12323881Y-11252976D01*
X12304833Y-11243452D01*
X12295309Y-11233928D01*
X12285786Y-11214881D01*
X12276262Y-11176786D01*
X12276262Y-11129167D01*
X12285786Y-11091071D01*
X12295309Y-11072024D01*
X12304833Y-11062500D01*
X12323881Y-11052976D01*
X12476262Y-11252976D02*
X12476262Y-11119643D01*
X12476262Y-11138690D02*
X12485786Y-11129167D01*
X12504833Y-11119643D01*
X12533405Y-11119643D01*
X12552452Y-11129167D01*
X12561976Y-11148214D01*
X12561976Y-11252976D01*
X12561976Y-11148214D02*
X12571500Y-11129167D01*
X12590548Y-11119643D01*
X12619119Y-11119643D01*
X12638167Y-11129167D01*
X12647690Y-11148214D01*
X12647690Y-11252976D01*
X12742928Y-11252976D02*
X12742928Y-11119643D01*
X12742928Y-11138690D02*
X12752452Y-11129167D01*
X12771500Y-11119643D01*
X12800071Y-11119643D01*
X12819119Y-11129167D01*
X12828643Y-11148214D01*
X12828643Y-11252976D01*
X12828643Y-11148214D02*
X12838167Y-11129167D01*
X12857214Y-11119643D01*
X12885786Y-11119643D01*
X12904833Y-11129167D01*
X12914357Y-11148214D01*
X12914357Y-11252976D01*
X13304833Y-11043452D02*
X13133405Y-11300595D01*
X13561976Y-11052976D02*
X13581024Y-11052976D01*
X13600071Y-11062500D01*
X13609595Y-11072024D01*
X13619119Y-11091071D01*
X13628643Y-11129167D01*
X13628643Y-11176786D01*
X13619119Y-11214881D01*
X13609595Y-11233928D01*
X13600071Y-11243452D01*
X13581024Y-11252976D01*
X13561976Y-11252976D01*
X13542928Y-11243452D01*
X13533405Y-11233928D01*
X13523881Y-11214881D01*
X13514357Y-11176786D01*
X13514357Y-11129167D01*
X13523881Y-11091071D01*
X13533405Y-11072024D01*
X13542928Y-11062500D01*
X13561976Y-11052976D01*
X13714357Y-11233928D02*
X13723881Y-11243452D01*
X13714357Y-11252976D01*
X13704833Y-11243452D01*
X13714357Y-11233928D01*
X13714357Y-11252976D01*
X13847690Y-11052976D02*
X13866738Y-11052976D01*
X13885786Y-11062500D01*
X13895309Y-11072024D01*
X13904833Y-11091071D01*
X13914357Y-11129167D01*
X13914357Y-11176786D01*
X13904833Y-11214881D01*
X13895309Y-11233928D01*
X13885786Y-11243452D01*
X13866738Y-11252976D01*
X13847690Y-11252976D01*
X13828643Y-11243452D01*
X13819119Y-11233928D01*
X13809595Y-11214881D01*
X13800071Y-11176786D01*
X13800071Y-11129167D01*
X13809595Y-11091071D01*
X13819119Y-11072024D01*
X13828643Y-11062500D01*
X13847690Y-11052976D01*
X13981024Y-11052976D02*
X14104833Y-11052976D01*
X14038167Y-11129167D01*
X14066738Y-11129167D01*
X14085786Y-11138690D01*
X14095309Y-11148214D01*
X14104833Y-11167262D01*
X14104833Y-11214881D01*
X14095309Y-11233928D01*
X14085786Y-11243452D01*
X14066738Y-11252976D01*
X14009595Y-11252976D01*
X13990548Y-11243452D01*
X13981024Y-11233928D01*
X14200071Y-11252976D02*
X14238167Y-11252976D01*
X14257214Y-11243452D01*
X14266738Y-11233928D01*
X14285786Y-11205357D01*
X14295309Y-11167262D01*
X14295309Y-11091071D01*
X14285786Y-11072024D01*
X14276262Y-11062500D01*
X14257214Y-11052976D01*
X14219119Y-11052976D01*
X14200071Y-11062500D01*
X14190548Y-11072024D01*
X14181024Y-11091071D01*
X14181024Y-11138690D01*
X14190548Y-11157738D01*
X14200071Y-11167262D01*
X14219119Y-11176786D01*
X14257214Y-11176786D01*
X14276262Y-11167262D01*
X14285786Y-11157738D01*
X14295309Y-11138690D01*
X14466738Y-11119643D02*
X14466738Y-11252976D01*
X14419119Y-11043452D02*
X14371500Y-11186309D01*
X14495309Y-11186309D01*
X14561976Y-11052976D02*
X14561976Y-11091071D01*
X14638167Y-11052976D02*
X14638167Y-11091071D01*
X14933405Y-11329167D02*
X14923881Y-11319643D01*
X14904833Y-11291071D01*
X14895309Y-11272024D01*
X14885786Y-11243452D01*
X14876262Y-11195833D01*
X14876262Y-11157738D01*
X14885786Y-11110119D01*
X14895309Y-11081548D01*
X14904833Y-11062500D01*
X14923881Y-11033929D01*
X14933405Y-11024405D01*
X15095309Y-11052976D02*
X15057214Y-11052976D01*
X15038167Y-11062500D01*
X15028643Y-11072024D01*
X15009595Y-11100595D01*
X15000071Y-11138690D01*
X15000071Y-11214881D01*
X15009595Y-11233928D01*
X15019119Y-11243452D01*
X15038167Y-11252976D01*
X15076262Y-11252976D01*
X15095309Y-11243452D01*
X15104833Y-11233928D01*
X15114357Y-11214881D01*
X15114357Y-11167262D01*
X15104833Y-11148214D01*
X15095309Y-11138690D01*
X15076262Y-11129167D01*
X15038167Y-11129167D01*
X15019119Y-11138690D01*
X15009595Y-11148214D01*
X15000071Y-11167262D01*
X15352452Y-11252976D02*
X15352452Y-11052976D01*
X15438167Y-11252976D02*
X15438167Y-11148214D01*
X15428643Y-11129167D01*
X15409595Y-11119643D01*
X15381024Y-11119643D01*
X15361976Y-11129167D01*
X15352452Y-11138690D01*
X15561976Y-11252976D02*
X15542928Y-11243452D01*
X15533405Y-11233928D01*
X15523881Y-11214881D01*
X15523881Y-11157738D01*
X15533405Y-11138690D01*
X15542928Y-11129167D01*
X15561976Y-11119643D01*
X15590548Y-11119643D01*
X15609595Y-11129167D01*
X15619119Y-11138690D01*
X15628643Y-11157738D01*
X15628643Y-11214881D01*
X15619119Y-11233928D01*
X15609595Y-11243452D01*
X15590548Y-11252976D01*
X15561976Y-11252976D01*
X15742928Y-11252976D02*
X15723881Y-11243452D01*
X15714357Y-11224405D01*
X15714357Y-11052976D01*
X15895309Y-11243452D02*
X15876262Y-11252976D01*
X15838167Y-11252976D01*
X15819119Y-11243452D01*
X15809595Y-11224405D01*
X15809595Y-11148214D01*
X15819119Y-11129167D01*
X15838167Y-11119643D01*
X15876262Y-11119643D01*
X15895309Y-11129167D01*
X15904833Y-11148214D01*
X15904833Y-11167262D01*
X15809595Y-11186309D01*
X15981024Y-11243452D02*
X16000071Y-11252976D01*
X16038167Y-11252976D01*
X16057214Y-11243452D01*
X16066738Y-11224405D01*
X16066738Y-11214881D01*
X16057214Y-11195833D01*
X16038167Y-11186309D01*
X16009595Y-11186309D01*
X15990548Y-11176786D01*
X15981024Y-11157738D01*
X15981024Y-11148214D01*
X15990548Y-11129167D01*
X16009595Y-11119643D01*
X16038167Y-11119643D01*
X16057214Y-11129167D01*
X16133405Y-11329167D02*
X16142928Y-11319643D01*
X16161976Y-11291071D01*
X16171500Y-11272024D01*
X16181024Y-11243452D01*
X16190548Y-11195833D01*
X16190548Y-11157738D01*
X16181024Y-11110119D01*
X16171500Y-11081548D01*
X16161976Y-11062500D01*
X16142928Y-11033929D01*
X16133405Y-11024405D01*
D16*
X11251500Y-11371500D02*
X11361500Y-11481500D01*
X11361500Y-11371500D02*
X11251500Y-11481500D01*
X11361500Y-11426500D02*
G75*
G03*
X11361500Y-11426500I-55000J0D01*
G01*
D11*
X11723881Y-11516976D02*
X11609595Y-11516976D01*
X11666738Y-11516976D02*
X11666738Y-11316976D01*
X11647690Y-11345548D01*
X11628643Y-11364595D01*
X11609595Y-11374119D01*
X11809595Y-11497928D02*
X11819119Y-11507452D01*
X11809595Y-11516976D01*
X11800071Y-11507452D01*
X11809595Y-11497928D01*
X11809595Y-11516976D01*
X12009595Y-11516976D02*
X11895309Y-11516976D01*
X11952452Y-11516976D02*
X11952452Y-11316976D01*
X11933405Y-11345548D01*
X11914357Y-11364595D01*
X11895309Y-11374119D01*
X12133405Y-11316976D02*
X12152452Y-11316976D01*
X12171500Y-11326500D01*
X12181024Y-11336024D01*
X12190548Y-11355071D01*
X12200071Y-11393167D01*
X12200071Y-11440786D01*
X12190548Y-11478881D01*
X12181024Y-11497928D01*
X12171500Y-11507452D01*
X12152452Y-11516976D01*
X12133405Y-11516976D01*
X12114357Y-11507452D01*
X12104833Y-11497928D01*
X12095309Y-11478881D01*
X12085786Y-11440786D01*
X12085786Y-11393167D01*
X12095309Y-11355071D01*
X12104833Y-11336024D01*
X12114357Y-11326500D01*
X12133405Y-11316976D01*
X12323881Y-11316976D02*
X12342928Y-11316976D01*
X12361976Y-11326500D01*
X12371500Y-11336024D01*
X12381024Y-11355071D01*
X12390548Y-11393167D01*
X12390548Y-11440786D01*
X12381024Y-11478881D01*
X12371500Y-11497928D01*
X12361976Y-11507452D01*
X12342928Y-11516976D01*
X12323881Y-11516976D01*
X12304833Y-11507452D01*
X12295309Y-11497928D01*
X12285786Y-11478881D01*
X12276262Y-11440786D01*
X12276262Y-11393167D01*
X12285786Y-11355071D01*
X12295309Y-11336024D01*
X12304833Y-11326500D01*
X12323881Y-11316976D01*
X12476262Y-11516976D02*
X12476262Y-11383643D01*
X12476262Y-11402690D02*
X12485786Y-11393167D01*
X12504833Y-11383643D01*
X12533405Y-11383643D01*
X12552452Y-11393167D01*
X12561976Y-11412214D01*
X12561976Y-11516976D01*
X12561976Y-11412214D02*
X12571500Y-11393167D01*
X12590548Y-11383643D01*
X12619119Y-11383643D01*
X12638167Y-11393167D01*
X12647690Y-11412214D01*
X12647690Y-11516976D01*
X12742928Y-11516976D02*
X12742928Y-11383643D01*
X12742928Y-11402690D02*
X12752452Y-11393167D01*
X12771500Y-11383643D01*
X12800071Y-11383643D01*
X12819119Y-11393167D01*
X12828643Y-11412214D01*
X12828643Y-11516976D01*
X12828643Y-11412214D02*
X12838167Y-11393167D01*
X12857214Y-11383643D01*
X12885786Y-11383643D01*
X12904833Y-11393167D01*
X12914357Y-11412214D01*
X12914357Y-11516976D01*
X13304833Y-11307452D02*
X13133405Y-11564595D01*
X13561976Y-11316976D02*
X13581024Y-11316976D01*
X13600071Y-11326500D01*
X13609595Y-11336024D01*
X13619119Y-11355071D01*
X13628643Y-11393167D01*
X13628643Y-11440786D01*
X13619119Y-11478881D01*
X13609595Y-11497928D01*
X13600071Y-11507452D01*
X13581024Y-11516976D01*
X13561976Y-11516976D01*
X13542928Y-11507452D01*
X13533405Y-11497928D01*
X13523881Y-11478881D01*
X13514357Y-11440786D01*
X13514357Y-11393167D01*
X13523881Y-11355071D01*
X13533405Y-11336024D01*
X13542928Y-11326500D01*
X13561976Y-11316976D01*
X13714357Y-11497928D02*
X13723881Y-11507452D01*
X13714357Y-11516976D01*
X13704833Y-11507452D01*
X13714357Y-11497928D01*
X13714357Y-11516976D01*
X13847690Y-11316976D02*
X13866738Y-11316976D01*
X13885786Y-11326500D01*
X13895309Y-11336024D01*
X13904833Y-11355071D01*
X13914357Y-11393167D01*
X13914357Y-11440786D01*
X13904833Y-11478881D01*
X13895309Y-11497928D01*
X13885786Y-11507452D01*
X13866738Y-11516976D01*
X13847690Y-11516976D01*
X13828643Y-11507452D01*
X13819119Y-11497928D01*
X13809595Y-11478881D01*
X13800071Y-11440786D01*
X13800071Y-11393167D01*
X13809595Y-11355071D01*
X13819119Y-11336024D01*
X13828643Y-11326500D01*
X13847690Y-11316976D01*
X14085786Y-11383643D02*
X14085786Y-11516976D01*
X14038167Y-11307452D02*
X13990548Y-11450309D01*
X14114357Y-11450309D01*
X14171500Y-11316976D02*
X14295309Y-11316976D01*
X14228643Y-11393167D01*
X14257214Y-11393167D01*
X14276262Y-11402690D01*
X14285786Y-11412214D01*
X14295309Y-11431262D01*
X14295309Y-11478881D01*
X14285786Y-11497928D01*
X14276262Y-11507452D01*
X14257214Y-11516976D01*
X14200071Y-11516976D01*
X14181024Y-11507452D01*
X14171500Y-11497928D01*
X14361976Y-11316976D02*
X14485786Y-11316976D01*
X14419119Y-11393167D01*
X14447690Y-11393167D01*
X14466738Y-11402690D01*
X14476262Y-11412214D01*
X14485786Y-11431262D01*
X14485786Y-11478881D01*
X14476262Y-11497928D01*
X14466738Y-11507452D01*
X14447690Y-11516976D01*
X14390548Y-11516976D01*
X14371500Y-11507452D01*
X14361976Y-11497928D01*
X14561976Y-11316976D02*
X14561976Y-11355071D01*
X14638167Y-11316976D02*
X14638167Y-11355071D01*
X14933405Y-11593167D02*
X14923881Y-11583643D01*
X14904833Y-11555071D01*
X14895309Y-11536024D01*
X14885786Y-11507452D01*
X14876262Y-11459833D01*
X14876262Y-11421738D01*
X14885786Y-11374119D01*
X14895309Y-11345548D01*
X14904833Y-11326500D01*
X14923881Y-11297928D01*
X14933405Y-11288405D01*
X15095309Y-11383643D02*
X15095309Y-11516976D01*
X15047690Y-11307452D02*
X15000071Y-11450309D01*
X15123881Y-11450309D01*
X15352452Y-11516976D02*
X15352452Y-11316976D01*
X15438167Y-11516976D02*
X15438167Y-11412214D01*
X15428643Y-11393167D01*
X15409595Y-11383643D01*
X15381024Y-11383643D01*
X15361976Y-11393167D01*
X15352452Y-11402690D01*
X15561976Y-11516976D02*
X15542928Y-11507452D01*
X15533405Y-11497928D01*
X15523881Y-11478881D01*
X15523881Y-11421738D01*
X15533405Y-11402690D01*
X15542928Y-11393167D01*
X15561976Y-11383643D01*
X15590548Y-11383643D01*
X15609595Y-11393167D01*
X15619119Y-11402690D01*
X15628643Y-11421738D01*
X15628643Y-11478881D01*
X15619119Y-11497928D01*
X15609595Y-11507452D01*
X15590548Y-11516976D01*
X15561976Y-11516976D01*
X15742928Y-11516976D02*
X15723881Y-11507452D01*
X15714357Y-11488405D01*
X15714357Y-11316976D01*
X15895309Y-11507452D02*
X15876262Y-11516976D01*
X15838167Y-11516976D01*
X15819119Y-11507452D01*
X15809595Y-11488405D01*
X15809595Y-11412214D01*
X15819119Y-11393167D01*
X15838167Y-11383643D01*
X15876262Y-11383643D01*
X15895309Y-11393167D01*
X15904833Y-11412214D01*
X15904833Y-11431262D01*
X15809595Y-11450309D01*
X15981024Y-11507452D02*
X16000071Y-11516976D01*
X16038167Y-11516976D01*
X16057214Y-11507452D01*
X16066738Y-11488405D01*
X16066738Y-11478881D01*
X16057214Y-11459833D01*
X16038167Y-11450309D01*
X16009595Y-11450309D01*
X15990548Y-11440786D01*
X15981024Y-11421738D01*
X15981024Y-11412214D01*
X15990548Y-11393167D01*
X16009595Y-11383643D01*
X16038167Y-11383643D01*
X16057214Y-11393167D01*
X16133405Y-11593167D02*
X16142928Y-11583643D01*
X16161976Y-11555071D01*
X16171500Y-11536024D01*
X16181024Y-11507452D01*
X16190548Y-11459833D01*
X16190548Y-11421738D01*
X16181024Y-11374119D01*
X16171500Y-11345548D01*
X16161976Y-11326500D01*
X16142928Y-11297928D01*
X16133405Y-11288405D01*
M02*
