%TF.GenerationSoftware,KiCad,Pcbnew,6.0.9-8da3e8f707~116~ubuntu20.04.1*%
%TF.CreationDate,2022-11-22T16:10:42+01:00*%
%TF.ProjectId,sda_keyboard,7364615f-6b65-4796-926f-6172642e6b69,rev?*%
%TF.SameCoordinates,Original*%
%TF.FileFunction,Drillmap*%
%TF.FilePolarity,Positive*%
%FSLAX45Y45*%
G04 Gerber Fmt 4.5, Leading zero omitted, Abs format (unit mm)*
G04 Created by KiCad (PCBNEW 6.0.9-8da3e8f707~116~ubuntu20.04.1) date 2022-11-22 16:10:42*
%MOMM*%
%LPD*%
G01*
G04 APERTURE LIST*
%ADD10C,0.100000*%
%ADD11C,0.200000*%
%ADD12C,0.210000*%
G04 APERTURE END LIST*
D10*
X11366500Y-9461500D02*
X11366500Y-6350000D01*
X16662400Y-9461500D02*
X11366500Y-9461500D01*
X16662400Y-6350000D02*
X16662400Y-9461500D01*
X11366500Y-6350000D02*
X16662400Y-6350000D01*
D11*
D12*
X16145000Y-8225000D02*
X16355000Y-8435000D01*
X16355000Y-8225000D02*
X16145000Y-8435000D01*
D11*
X11619119Y-9776976D02*
X11619119Y-9576976D01*
X11666738Y-9576976D01*
X11695309Y-9586500D01*
X11714357Y-9605548D01*
X11723881Y-9624595D01*
X11733405Y-9662690D01*
X11733405Y-9691262D01*
X11723881Y-9729357D01*
X11714357Y-9748405D01*
X11695309Y-9767452D01*
X11666738Y-9776976D01*
X11619119Y-9776976D01*
X11819119Y-9776976D02*
X11819119Y-9643643D01*
X11819119Y-9681738D02*
X11828643Y-9662690D01*
X11838167Y-9653167D01*
X11857214Y-9643643D01*
X11876262Y-9643643D01*
X11942928Y-9776976D02*
X11942928Y-9643643D01*
X11942928Y-9576976D02*
X11933405Y-9586500D01*
X11942928Y-9596024D01*
X11952452Y-9586500D01*
X11942928Y-9576976D01*
X11942928Y-9596024D01*
X12066738Y-9776976D02*
X12047690Y-9767452D01*
X12038167Y-9748405D01*
X12038167Y-9576976D01*
X12171500Y-9776976D02*
X12152452Y-9767452D01*
X12142928Y-9748405D01*
X12142928Y-9576976D01*
X12400071Y-9776976D02*
X12400071Y-9576976D01*
X12466738Y-9719833D01*
X12533405Y-9576976D01*
X12533405Y-9776976D01*
X12714357Y-9776976D02*
X12714357Y-9672214D01*
X12704833Y-9653167D01*
X12685786Y-9643643D01*
X12647690Y-9643643D01*
X12628643Y-9653167D01*
X12714357Y-9767452D02*
X12695309Y-9776976D01*
X12647690Y-9776976D01*
X12628643Y-9767452D01*
X12619119Y-9748405D01*
X12619119Y-9729357D01*
X12628643Y-9710310D01*
X12647690Y-9700786D01*
X12695309Y-9700786D01*
X12714357Y-9691262D01*
X12809595Y-9643643D02*
X12809595Y-9843643D01*
X12809595Y-9653167D02*
X12828643Y-9643643D01*
X12866738Y-9643643D01*
X12885786Y-9653167D01*
X12895309Y-9662690D01*
X12904833Y-9681738D01*
X12904833Y-9738881D01*
X12895309Y-9757929D01*
X12885786Y-9767452D01*
X12866738Y-9776976D01*
X12828643Y-9776976D01*
X12809595Y-9767452D01*
X12990548Y-9757929D02*
X13000071Y-9767452D01*
X12990548Y-9776976D01*
X12981024Y-9767452D01*
X12990548Y-9757929D01*
X12990548Y-9776976D01*
X12990548Y-9653167D02*
X13000071Y-9662690D01*
X12990548Y-9672214D01*
X12981024Y-9662690D01*
X12990548Y-9653167D01*
X12990548Y-9672214D01*
X11161500Y-10006500D02*
X11361500Y-10206500D01*
X11361500Y-10006500D02*
X11161500Y-10206500D01*
X11609595Y-10016024D02*
X11619119Y-10006500D01*
X11638167Y-9996976D01*
X11685786Y-9996976D01*
X11704833Y-10006500D01*
X11714357Y-10016024D01*
X11723881Y-10035071D01*
X11723881Y-10054119D01*
X11714357Y-10082690D01*
X11600071Y-10196976D01*
X11723881Y-10196976D01*
X11809595Y-10177929D02*
X11819119Y-10187452D01*
X11809595Y-10196976D01*
X11800071Y-10187452D01*
X11809595Y-10177929D01*
X11809595Y-10196976D01*
X12009595Y-10196976D02*
X11895309Y-10196976D01*
X11952452Y-10196976D02*
X11952452Y-9996976D01*
X11933405Y-10025548D01*
X11914357Y-10044595D01*
X11895309Y-10054119D01*
X12133405Y-9996976D02*
X12152452Y-9996976D01*
X12171500Y-10006500D01*
X12181024Y-10016024D01*
X12190548Y-10035071D01*
X12200071Y-10073167D01*
X12200071Y-10120786D01*
X12190548Y-10158881D01*
X12181024Y-10177929D01*
X12171500Y-10187452D01*
X12152452Y-10196976D01*
X12133405Y-10196976D01*
X12114357Y-10187452D01*
X12104833Y-10177929D01*
X12095309Y-10158881D01*
X12085786Y-10120786D01*
X12085786Y-10073167D01*
X12095309Y-10035071D01*
X12104833Y-10016024D01*
X12114357Y-10006500D01*
X12133405Y-9996976D01*
X12323881Y-9996976D02*
X12342928Y-9996976D01*
X12361976Y-10006500D01*
X12371500Y-10016024D01*
X12381024Y-10035071D01*
X12390548Y-10073167D01*
X12390548Y-10120786D01*
X12381024Y-10158881D01*
X12371500Y-10177929D01*
X12361976Y-10187452D01*
X12342928Y-10196976D01*
X12323881Y-10196976D01*
X12304833Y-10187452D01*
X12295309Y-10177929D01*
X12285786Y-10158881D01*
X12276262Y-10120786D01*
X12276262Y-10073167D01*
X12285786Y-10035071D01*
X12295309Y-10016024D01*
X12304833Y-10006500D01*
X12323881Y-9996976D01*
X12476262Y-10196976D02*
X12476262Y-10063643D01*
X12476262Y-10082690D02*
X12485786Y-10073167D01*
X12504833Y-10063643D01*
X12533405Y-10063643D01*
X12552452Y-10073167D01*
X12561976Y-10092214D01*
X12561976Y-10196976D01*
X12561976Y-10092214D02*
X12571500Y-10073167D01*
X12590548Y-10063643D01*
X12619119Y-10063643D01*
X12638167Y-10073167D01*
X12647690Y-10092214D01*
X12647690Y-10196976D01*
X12742928Y-10196976D02*
X12742928Y-10063643D01*
X12742928Y-10082690D02*
X12752452Y-10073167D01*
X12771500Y-10063643D01*
X12800071Y-10063643D01*
X12819119Y-10073167D01*
X12828643Y-10092214D01*
X12828643Y-10196976D01*
X12828643Y-10092214D02*
X12838167Y-10073167D01*
X12857214Y-10063643D01*
X12885786Y-10063643D01*
X12904833Y-10073167D01*
X12914357Y-10092214D01*
X12914357Y-10196976D01*
X13304833Y-9987452D02*
X13133405Y-10244595D01*
X13561976Y-9996976D02*
X13581024Y-9996976D01*
X13600071Y-10006500D01*
X13609595Y-10016024D01*
X13619119Y-10035071D01*
X13628643Y-10073167D01*
X13628643Y-10120786D01*
X13619119Y-10158881D01*
X13609595Y-10177929D01*
X13600071Y-10187452D01*
X13581024Y-10196976D01*
X13561976Y-10196976D01*
X13542928Y-10187452D01*
X13533405Y-10177929D01*
X13523881Y-10158881D01*
X13514357Y-10120786D01*
X13514357Y-10073167D01*
X13523881Y-10035071D01*
X13533405Y-10016024D01*
X13542928Y-10006500D01*
X13561976Y-9996976D01*
X13714357Y-10177929D02*
X13723881Y-10187452D01*
X13714357Y-10196976D01*
X13704833Y-10187452D01*
X13714357Y-10177929D01*
X13714357Y-10196976D01*
X13847690Y-9996976D02*
X13866738Y-9996976D01*
X13885786Y-10006500D01*
X13895309Y-10016024D01*
X13904833Y-10035071D01*
X13914357Y-10073167D01*
X13914357Y-10120786D01*
X13904833Y-10158881D01*
X13895309Y-10177929D01*
X13885786Y-10187452D01*
X13866738Y-10196976D01*
X13847690Y-10196976D01*
X13828643Y-10187452D01*
X13819119Y-10177929D01*
X13809595Y-10158881D01*
X13800071Y-10120786D01*
X13800071Y-10073167D01*
X13809595Y-10035071D01*
X13819119Y-10016024D01*
X13828643Y-10006500D01*
X13847690Y-9996976D01*
X14028643Y-10082690D02*
X14009595Y-10073167D01*
X14000071Y-10063643D01*
X13990548Y-10044595D01*
X13990548Y-10035071D01*
X14000071Y-10016024D01*
X14009595Y-10006500D01*
X14028643Y-9996976D01*
X14066738Y-9996976D01*
X14085786Y-10006500D01*
X14095309Y-10016024D01*
X14104833Y-10035071D01*
X14104833Y-10044595D01*
X14095309Y-10063643D01*
X14085786Y-10073167D01*
X14066738Y-10082690D01*
X14028643Y-10082690D01*
X14009595Y-10092214D01*
X14000071Y-10101738D01*
X13990548Y-10120786D01*
X13990548Y-10158881D01*
X14000071Y-10177929D01*
X14009595Y-10187452D01*
X14028643Y-10196976D01*
X14066738Y-10196976D01*
X14085786Y-10187452D01*
X14095309Y-10177929D01*
X14104833Y-10158881D01*
X14104833Y-10120786D01*
X14095309Y-10101738D01*
X14085786Y-10092214D01*
X14066738Y-10082690D01*
X14181024Y-10016024D02*
X14190548Y-10006500D01*
X14209595Y-9996976D01*
X14257214Y-9996976D01*
X14276262Y-10006500D01*
X14285786Y-10016024D01*
X14295309Y-10035071D01*
X14295309Y-10054119D01*
X14285786Y-10082690D01*
X14171500Y-10196976D01*
X14295309Y-10196976D01*
X14361976Y-9996976D02*
X14495309Y-9996976D01*
X14409595Y-10196976D01*
X14561976Y-9996976D02*
X14561976Y-10035071D01*
X14638167Y-9996976D02*
X14638167Y-10035071D01*
X14933405Y-10273167D02*
X14923881Y-10263643D01*
X14904833Y-10235071D01*
X14895309Y-10216024D01*
X14885786Y-10187452D01*
X14876262Y-10139833D01*
X14876262Y-10101738D01*
X14885786Y-10054119D01*
X14895309Y-10025548D01*
X14904833Y-10006500D01*
X14923881Y-9977929D01*
X14933405Y-9968405D01*
X15114357Y-10196976D02*
X15000071Y-10196976D01*
X15057214Y-10196976D02*
X15057214Y-9996976D01*
X15038167Y-10025548D01*
X15019119Y-10044595D01*
X15000071Y-10054119D01*
X15352452Y-10196976D02*
X15352452Y-9996976D01*
X15438167Y-10196976D02*
X15438167Y-10092214D01*
X15428643Y-10073167D01*
X15409595Y-10063643D01*
X15381024Y-10063643D01*
X15361976Y-10073167D01*
X15352452Y-10082690D01*
X15561976Y-10196976D02*
X15542928Y-10187452D01*
X15533405Y-10177929D01*
X15523881Y-10158881D01*
X15523881Y-10101738D01*
X15533405Y-10082690D01*
X15542928Y-10073167D01*
X15561976Y-10063643D01*
X15590548Y-10063643D01*
X15609595Y-10073167D01*
X15619119Y-10082690D01*
X15628643Y-10101738D01*
X15628643Y-10158881D01*
X15619119Y-10177929D01*
X15609595Y-10187452D01*
X15590548Y-10196976D01*
X15561976Y-10196976D01*
X15742928Y-10196976D02*
X15723881Y-10187452D01*
X15714357Y-10168405D01*
X15714357Y-9996976D01*
X15895309Y-10187452D02*
X15876262Y-10196976D01*
X15838167Y-10196976D01*
X15819119Y-10187452D01*
X15809595Y-10168405D01*
X15809595Y-10092214D01*
X15819119Y-10073167D01*
X15838167Y-10063643D01*
X15876262Y-10063643D01*
X15895309Y-10073167D01*
X15904833Y-10092214D01*
X15904833Y-10111262D01*
X15809595Y-10130310D01*
X15971500Y-10273167D02*
X15981024Y-10263643D01*
X16000071Y-10235071D01*
X16009595Y-10216024D01*
X16019119Y-10187452D01*
X16028643Y-10139833D01*
X16028643Y-10101738D01*
X16019119Y-10054119D01*
X16009595Y-10025548D01*
X16000071Y-10006500D01*
X15981024Y-9977929D01*
X15971500Y-9968405D01*
X16333405Y-10273167D02*
X16323881Y-10263643D01*
X16304833Y-10235071D01*
X16295309Y-10216024D01*
X16285786Y-10187452D01*
X16276262Y-10139833D01*
X16276262Y-10101738D01*
X16285786Y-10054119D01*
X16295309Y-10025548D01*
X16304833Y-10006500D01*
X16323881Y-9977929D01*
X16333405Y-9968405D01*
X16409595Y-10063643D02*
X16409595Y-10196976D01*
X16409595Y-10082690D02*
X16419119Y-10073167D01*
X16438167Y-10063643D01*
X16466738Y-10063643D01*
X16485786Y-10073167D01*
X16495309Y-10092214D01*
X16495309Y-10196976D01*
X16619119Y-10196976D02*
X16600071Y-10187452D01*
X16590548Y-10177929D01*
X16581024Y-10158881D01*
X16581024Y-10101738D01*
X16590548Y-10082690D01*
X16600071Y-10073167D01*
X16619119Y-10063643D01*
X16647690Y-10063643D01*
X16666738Y-10073167D01*
X16676262Y-10082690D01*
X16685786Y-10101738D01*
X16685786Y-10158881D01*
X16676262Y-10177929D01*
X16666738Y-10187452D01*
X16647690Y-10196976D01*
X16619119Y-10196976D01*
X16742928Y-10063643D02*
X16819119Y-10063643D01*
X16771500Y-9996976D02*
X16771500Y-10168405D01*
X16781024Y-10187452D01*
X16800071Y-10196976D01*
X16819119Y-10196976D01*
X17038167Y-10063643D02*
X17038167Y-10263643D01*
X17038167Y-10073167D02*
X17057214Y-10063643D01*
X17095310Y-10063643D01*
X17114357Y-10073167D01*
X17123881Y-10082690D01*
X17133405Y-10101738D01*
X17133405Y-10158881D01*
X17123881Y-10177929D01*
X17114357Y-10187452D01*
X17095310Y-10196976D01*
X17057214Y-10196976D01*
X17038167Y-10187452D01*
X17247690Y-10196976D02*
X17228643Y-10187452D01*
X17219119Y-10168405D01*
X17219119Y-9996976D01*
X17409595Y-10196976D02*
X17409595Y-10092214D01*
X17400071Y-10073167D01*
X17381024Y-10063643D01*
X17342929Y-10063643D01*
X17323881Y-10073167D01*
X17409595Y-10187452D02*
X17390548Y-10196976D01*
X17342929Y-10196976D01*
X17323881Y-10187452D01*
X17314357Y-10168405D01*
X17314357Y-10149357D01*
X17323881Y-10130310D01*
X17342929Y-10120786D01*
X17390548Y-10120786D01*
X17409595Y-10111262D01*
X17476262Y-10063643D02*
X17552452Y-10063643D01*
X17504833Y-9996976D02*
X17504833Y-10168405D01*
X17514357Y-10187452D01*
X17533405Y-10196976D01*
X17552452Y-10196976D01*
X17695310Y-10187452D02*
X17676262Y-10196976D01*
X17638167Y-10196976D01*
X17619119Y-10187452D01*
X17609595Y-10168405D01*
X17609595Y-10092214D01*
X17619119Y-10073167D01*
X17638167Y-10063643D01*
X17676262Y-10063643D01*
X17695310Y-10073167D01*
X17704833Y-10092214D01*
X17704833Y-10111262D01*
X17609595Y-10130310D01*
X17876262Y-10196976D02*
X17876262Y-9996976D01*
X17876262Y-10187452D02*
X17857214Y-10196976D01*
X17819119Y-10196976D01*
X17800071Y-10187452D01*
X17790548Y-10177929D01*
X17781024Y-10158881D01*
X17781024Y-10101738D01*
X17790548Y-10082690D01*
X17800071Y-10073167D01*
X17819119Y-10063643D01*
X17857214Y-10063643D01*
X17876262Y-10073167D01*
X17952452Y-10273167D02*
X17961976Y-10263643D01*
X17981024Y-10235071D01*
X17990548Y-10216024D01*
X18000071Y-10187452D01*
X18009595Y-10139833D01*
X18009595Y-10101738D01*
X18000071Y-10054119D01*
X17990548Y-10025548D01*
X17981024Y-10006500D01*
X17961976Y-9977929D01*
X17952452Y-9968405D01*
M02*
