M48
; DRILL file {KiCad 6.0.9-8da3e8f707~116~ubuntu20.04.1} date Út 22. listopadu 2022, 17:18:40
; FORMAT={-:-/ absolute / inch / decimal}
; #@! TF.CreationDate,2022-11-22T17:18:40+01:00
; #@! TF.GenerationSoftware,Kicad,Pcbnew,6.0.9-8da3e8f707~116~ubuntu20.04.1
; #@! TF.FileFunction,Plated,1,2,PTH
FMAT,2
INCH
; #@! TA.AperFunction,Plated,PTH,ViaDrill
T1C0.0157
; #@! TA.AperFunction,Plated,PTH,ComponentDrill
T2C0.0276
; #@! TA.AperFunction,Plated,PTH,ComponentDrill
T3C0.0315
; #@! TA.AperFunction,Plated,PTH,ComponentDrill
T4C0.0354
; #@! TA.AperFunction,Plated,PTH,ComponentDrill
T5C0.0394
; #@! TA.AperFunction,Plated,PTH,ComponentDrill
T6C0.0433
; #@! TA.AperFunction,Plated,PTH,ComponentDrill
T7C0.0728
%
G90
G05
T1
X4.725Y-3.54
X4.725Y-3.58
X4.965Y-3.54
X4.965Y-3.58
X5.02Y-2.88
X5.02Y-3.01
X5.22Y-3.095
X5.225Y-3.045
X5.3Y-3.035
X5.3Y-3.145
X5.35Y-3.365
X5.355Y-3.475
X5.3937Y-3.4843
X5.415Y-3.5748
X5.45Y-3.095
X5.475Y-2.85
X5.4853Y-3.045
X5.5Y-3.475
X5.515Y-3.16
X5.52Y-2.86
X5.52Y-2.995
X5.54Y-3.065
X5.55Y-2.89
X5.55Y-3.285
X5.55Y-3.33
X5.55Y-3.5785
X5.56Y-3.475
X5.61Y-3.25
X5.61Y-3.3
X5.66Y-3.2
X5.675Y-3.0
X5.6778Y-3.4678
X5.71Y-3.2
X5.7125Y-3.0275
X5.7298Y-3.5998
X5.7362Y-3.4685
X5.7598Y-2.8228
X5.76Y-3.015
X5.765Y-3.195
X5.77Y-3.6
X5.7935Y-3.1465
X5.7953Y-2.8228
X5.81Y-3.55
X5.83Y-3.35
X5.84Y-3.1
X5.84Y-3.145
X5.84Y-3.195
X5.86Y-3.025
X5.88Y-2.855
X5.9Y-3.47
X5.9Y-3.51
X5.9Y-3.55
X5.935Y-2.91
X5.94Y-3.29
X5.94Y-3.59
X5.945Y-2.83
X5.965Y-2.94
X6.005Y-2.58
X6.005Y-3.205
T2
X4.626Y-2.6
X4.626Y-2.65
X4.626Y-2.7
X4.626Y-2.75
X4.626Y-2.8
X4.626Y-2.85
T3
X4.975Y-3.15
X4.975Y-3.3429
T4
X5.4Y-2.65
X5.4Y-2.75
X5.9Y-2.65
X5.9Y-2.75
X6.4Y-2.65
X6.4Y-2.75
T5
X4.625Y-3.05
X4.625Y-3.15
X4.625Y-3.25
X4.625Y-3.35
X4.625Y-3.45
X4.625Y-3.55
T6
X4.8691Y-2.6114
X4.8691Y-2.7886
X5.125Y-2.6114
X5.125Y-2.7886
T7
X6.4213Y-3.2756
T0
M30
