%TF.GenerationSoftware,KiCad,Pcbnew,6.0.9-8da3e8f707~116~ubuntu20.04.1*%
%TF.CreationDate,2022-11-22T17:17:17+01:00*%
%TF.ProjectId,sda_keyboard,7364615f-6b65-4796-926f-6172642e6b69,rev?*%
%TF.SameCoordinates,Original*%
%TF.FileFunction,Legend,Top*%
%TF.FilePolarity,Positive*%
%FSLAX46Y46*%
G04 Gerber Fmt 4.6, Leading zero omitted, Abs format (unit mm)*
G04 Created by KiCad (PCBNEW 6.0.9-8da3e8f707~116~ubuntu20.04.1) date 2022-11-22 17:17:17*
%MOMM*%
%LPD*%
G01*
G04 APERTURE LIST*
%ADD10C,0.150000*%
%ADD11C,0.180000*%
%ADD12C,0.120000*%
G04 APERTURE END LIST*
D10*
X153345119Y-79517904D02*
X153078452Y-79136952D01*
X152887976Y-79517904D02*
X152887976Y-78717904D01*
X153192738Y-78717904D01*
X153268928Y-78756000D01*
X153307023Y-78794095D01*
X153345119Y-78870285D01*
X153345119Y-78984571D01*
X153307023Y-79060761D01*
X153268928Y-79098857D01*
X153192738Y-79136952D01*
X152887976Y-79136952D01*
X153992738Y-79479809D02*
X153916547Y-79517904D01*
X153764166Y-79517904D01*
X153687976Y-79479809D01*
X153649880Y-79403619D01*
X153649880Y-79098857D01*
X153687976Y-79022666D01*
X153764166Y-78984571D01*
X153916547Y-78984571D01*
X153992738Y-79022666D01*
X154030833Y-79098857D01*
X154030833Y-79175047D01*
X153649880Y-79251238D01*
X154297500Y-78984571D02*
X154487976Y-79517904D01*
X154678452Y-78984571D01*
X154983214Y-79441714D02*
X155021309Y-79479809D01*
X154983214Y-79517904D01*
X154945119Y-79479809D01*
X154983214Y-79441714D01*
X154983214Y-79517904D01*
X156126071Y-78717904D02*
X156202261Y-78717904D01*
X156278452Y-78756000D01*
X156316547Y-78794095D01*
X156354642Y-78870285D01*
X156392738Y-79022666D01*
X156392738Y-79213142D01*
X156354642Y-79365523D01*
X156316547Y-79441714D01*
X156278452Y-79479809D01*
X156202261Y-79517904D01*
X156126071Y-79517904D01*
X156049880Y-79479809D01*
X156011785Y-79441714D01*
X155973690Y-79365523D01*
X155935595Y-79213142D01*
X155935595Y-79022666D01*
X155973690Y-78870285D01*
X156011785Y-78794095D01*
X156049880Y-78756000D01*
X156126071Y-78717904D01*
X152849880Y-80767809D02*
X152964166Y-80805904D01*
X153154642Y-80805904D01*
X153230833Y-80767809D01*
X153268928Y-80729714D01*
X153307023Y-80653523D01*
X153307023Y-80577333D01*
X153268928Y-80501142D01*
X153230833Y-80463047D01*
X153154642Y-80424952D01*
X153002261Y-80386857D01*
X152926071Y-80348761D01*
X152887976Y-80310666D01*
X152849880Y-80234476D01*
X152849880Y-80158285D01*
X152887976Y-80082095D01*
X152926071Y-80044000D01*
X153002261Y-80005904D01*
X153192738Y-80005904D01*
X153307023Y-80044000D01*
X153535595Y-80272571D02*
X153840357Y-80272571D01*
X153649880Y-80005904D02*
X153649880Y-80691619D01*
X153687976Y-80767809D01*
X153764166Y-80805904D01*
X153840357Y-80805904D01*
X154449880Y-80805904D02*
X154449880Y-80386857D01*
X154411785Y-80310666D01*
X154335595Y-80272571D01*
X154183214Y-80272571D01*
X154107023Y-80310666D01*
X154449880Y-80767809D02*
X154373690Y-80805904D01*
X154183214Y-80805904D01*
X154107023Y-80767809D01*
X154068928Y-80691619D01*
X154068928Y-80615428D01*
X154107023Y-80539238D01*
X154183214Y-80501142D01*
X154373690Y-80501142D01*
X154449880Y-80463047D01*
X154830833Y-80272571D02*
X154830833Y-80805904D01*
X154830833Y-80348761D02*
X154868928Y-80310666D01*
X154945119Y-80272571D01*
X155059404Y-80272571D01*
X155135595Y-80310666D01*
X155173690Y-80386857D01*
X155173690Y-80805904D01*
X155554642Y-80805904D02*
X155554642Y-80272571D01*
X155554642Y-80005904D02*
X155516547Y-80044000D01*
X155554642Y-80082095D01*
X155592738Y-80044000D01*
X155554642Y-80005904D01*
X155554642Y-80082095D01*
X155897500Y-80767809D02*
X155973690Y-80805904D01*
X156126071Y-80805904D01*
X156202261Y-80767809D01*
X156240357Y-80691619D01*
X156240357Y-80653523D01*
X156202261Y-80577333D01*
X156126071Y-80539238D01*
X156011785Y-80539238D01*
X155935595Y-80501142D01*
X155897500Y-80424952D01*
X155897500Y-80386857D01*
X155935595Y-80310666D01*
X156011785Y-80272571D01*
X156126071Y-80272571D01*
X156202261Y-80310666D01*
X156697500Y-80805904D02*
X156621309Y-80767809D01*
X156583214Y-80691619D01*
X156583214Y-80005904D01*
X157345119Y-80805904D02*
X157345119Y-80386857D01*
X157307023Y-80310666D01*
X157230833Y-80272571D01*
X157078452Y-80272571D01*
X157002261Y-80310666D01*
X157345119Y-80767809D02*
X157268928Y-80805904D01*
X157078452Y-80805904D01*
X157002261Y-80767809D01*
X156964166Y-80691619D01*
X156964166Y-80615428D01*
X157002261Y-80539238D01*
X157078452Y-80501142D01*
X157268928Y-80501142D01*
X157345119Y-80463047D01*
X157649880Y-80272571D02*
X157840357Y-80805904D01*
X158030833Y-80272571D01*
X159211785Y-80386857D02*
X159326071Y-80424952D01*
X159364166Y-80463047D01*
X159402261Y-80539238D01*
X159402261Y-80653523D01*
X159364166Y-80729714D01*
X159326071Y-80767809D01*
X159249880Y-80805904D01*
X158945119Y-80805904D01*
X158945119Y-80005904D01*
X159211785Y-80005904D01*
X159287976Y-80044000D01*
X159326071Y-80082095D01*
X159364166Y-80158285D01*
X159364166Y-80234476D01*
X159326071Y-80310666D01*
X159287976Y-80348761D01*
X159211785Y-80386857D01*
X158945119Y-80386857D01*
X159745119Y-80805904D02*
X159745119Y-80272571D01*
X159745119Y-80424952D02*
X159783214Y-80348761D01*
X159821309Y-80310666D01*
X159897500Y-80272571D01*
X159973690Y-80272571D01*
X160126071Y-80272571D02*
X160430833Y-80272571D01*
X160240357Y-80005904D02*
X160240357Y-80691619D01*
X160278452Y-80767809D01*
X160354642Y-80805904D01*
X160430833Y-80805904D01*
X160697500Y-80272571D02*
X160697500Y-80805904D01*
X160697500Y-80348761D02*
X160735595Y-80310666D01*
X160811785Y-80272571D01*
X160926071Y-80272571D01*
X161002261Y-80310666D01*
X161040357Y-80386857D01*
X161040357Y-80805904D01*
X161764166Y-80805904D02*
X161764166Y-80386857D01*
X161726071Y-80310666D01*
X161649880Y-80272571D01*
X161497500Y-80272571D01*
X161421309Y-80310666D01*
X161764166Y-80767809D02*
X161687976Y-80805904D01*
X161497500Y-80805904D01*
X161421309Y-80767809D01*
X161383214Y-80691619D01*
X161383214Y-80615428D01*
X161421309Y-80539238D01*
X161497500Y-80501142D01*
X161687976Y-80501142D01*
X161764166Y-80463047D01*
D11*
X152771428Y-77985714D02*
X152942857Y-78042857D01*
X153228571Y-78042857D01*
X153342857Y-77985714D01*
X153400000Y-77928571D01*
X153457142Y-77814285D01*
X153457142Y-77700000D01*
X153400000Y-77585714D01*
X153342857Y-77528571D01*
X153228571Y-77471428D01*
X153000000Y-77414285D01*
X152885714Y-77357142D01*
X152828571Y-77300000D01*
X152771428Y-77185714D01*
X152771428Y-77071428D01*
X152828571Y-76957142D01*
X152885714Y-76900000D01*
X153000000Y-76842857D01*
X153285714Y-76842857D01*
X153457142Y-76900000D01*
X153971428Y-78042857D02*
X153971428Y-76842857D01*
X154257142Y-76842857D01*
X154428571Y-76900000D01*
X154542857Y-77014285D01*
X154600000Y-77128571D01*
X154657142Y-77357142D01*
X154657142Y-77528571D01*
X154600000Y-77757142D01*
X154542857Y-77871428D01*
X154428571Y-77985714D01*
X154257142Y-78042857D01*
X153971428Y-78042857D01*
X155114285Y-77700000D02*
X155685714Y-77700000D01*
X155000000Y-78042857D02*
X155400000Y-76842857D01*
X155800000Y-78042857D01*
X157114285Y-78042857D02*
X157114285Y-76842857D01*
X157800000Y-78042857D02*
X157285714Y-77357142D01*
X157800000Y-76842857D02*
X157114285Y-77528571D01*
X158771428Y-77985714D02*
X158657142Y-78042857D01*
X158428571Y-78042857D01*
X158314285Y-77985714D01*
X158257142Y-77871428D01*
X158257142Y-77414285D01*
X158314285Y-77300000D01*
X158428571Y-77242857D01*
X158657142Y-77242857D01*
X158771428Y-77300000D01*
X158828571Y-77414285D01*
X158828571Y-77528571D01*
X158257142Y-77642857D01*
X159228571Y-77242857D02*
X159514285Y-78042857D01*
X159800000Y-77242857D02*
X159514285Y-78042857D01*
X159400000Y-78328571D01*
X159342857Y-78385714D01*
X159228571Y-78442857D01*
X160257142Y-78042857D02*
X160257142Y-76842857D01*
X160257142Y-77300000D02*
X160371428Y-77242857D01*
X160600000Y-77242857D01*
X160714285Y-77300000D01*
X160771428Y-77357142D01*
X160828571Y-77471428D01*
X160828571Y-77814285D01*
X160771428Y-77928571D01*
X160714285Y-77985714D01*
X160600000Y-78042857D01*
X160371428Y-78042857D01*
X160257142Y-77985714D01*
X161514285Y-78042857D02*
X161400000Y-77985714D01*
X161342857Y-77928571D01*
X161285714Y-77814285D01*
X161285714Y-77471428D01*
X161342857Y-77357142D01*
X161400000Y-77300000D01*
X161514285Y-77242857D01*
X161685714Y-77242857D01*
X161800000Y-77300000D01*
X161857142Y-77357142D01*
X161914285Y-77471428D01*
X161914285Y-77814285D01*
X161857142Y-77928571D01*
X161800000Y-77985714D01*
X161685714Y-78042857D01*
X161514285Y-78042857D01*
X162942857Y-78042857D02*
X162942857Y-77414285D01*
X162885714Y-77300000D01*
X162771428Y-77242857D01*
X162542857Y-77242857D01*
X162428571Y-77300000D01*
X162942857Y-77985714D02*
X162828571Y-78042857D01*
X162542857Y-78042857D01*
X162428571Y-77985714D01*
X162371428Y-77871428D01*
X162371428Y-77757142D01*
X162428571Y-77642857D01*
X162542857Y-77585714D01*
X162828571Y-77585714D01*
X162942857Y-77528571D01*
X163514285Y-78042857D02*
X163514285Y-77242857D01*
X163514285Y-77471428D02*
X163571428Y-77357142D01*
X163628571Y-77300000D01*
X163742857Y-77242857D01*
X163857142Y-77242857D01*
X164771428Y-78042857D02*
X164771428Y-76842857D01*
X164771428Y-77985714D02*
X164657142Y-78042857D01*
X164428571Y-78042857D01*
X164314285Y-77985714D01*
X164257142Y-77928571D01*
X164200000Y-77814285D01*
X164200000Y-77471428D01*
X164257142Y-77357142D01*
X164314285Y-77300000D01*
X164428571Y-77242857D01*
X164657142Y-77242857D01*
X164771428Y-77300000D01*
D10*
X120044981Y-77470000D02*
G75*
G03*
X120044981Y-77470000I-283981J0D01*
G01*
X119917981Y-66040000D02*
G75*
G03*
X119917981Y-66040000I-283981J0D01*
G01*
%TO.C,D3*%
X165322380Y-69238095D02*
X164322380Y-69238095D01*
X164322380Y-69000000D01*
X164370000Y-68857142D01*
X164465238Y-68761904D01*
X164560476Y-68714285D01*
X164750952Y-68666666D01*
X164893809Y-68666666D01*
X165084285Y-68714285D01*
X165179523Y-68761904D01*
X165274761Y-68857142D01*
X165322380Y-69000000D01*
X165322380Y-69238095D01*
X164322380Y-68333333D02*
X164322380Y-67714285D01*
X164703333Y-68047619D01*
X164703333Y-67904761D01*
X164750952Y-67809523D01*
X164798571Y-67761904D01*
X164893809Y-67714285D01*
X165131904Y-67714285D01*
X165227142Y-67761904D01*
X165274761Y-67809523D01*
X165322380Y-67904761D01*
X165322380Y-68190476D01*
X165274761Y-68285714D01*
X165227142Y-68333333D01*
%TO.C,D2*%
X139852380Y-69138095D02*
X138852380Y-69138095D01*
X138852380Y-68900000D01*
X138900000Y-68757142D01*
X138995238Y-68661904D01*
X139090476Y-68614285D01*
X139280952Y-68566666D01*
X139423809Y-68566666D01*
X139614285Y-68614285D01*
X139709523Y-68661904D01*
X139804761Y-68757142D01*
X139852380Y-68900000D01*
X139852380Y-69138095D01*
X138947619Y-68185714D02*
X138900000Y-68138095D01*
X138852380Y-68042857D01*
X138852380Y-67804761D01*
X138900000Y-67709523D01*
X138947619Y-67661904D01*
X139042857Y-67614285D01*
X139138095Y-67614285D01*
X139280952Y-67661904D01*
X139852380Y-68233333D01*
X139852380Y-67614285D01*
%TO.C,D1*%
X152622380Y-68938095D02*
X151622380Y-68938095D01*
X151622380Y-68700000D01*
X151670000Y-68557142D01*
X151765238Y-68461904D01*
X151860476Y-68414285D01*
X152050952Y-68366666D01*
X152193809Y-68366666D01*
X152384285Y-68414285D01*
X152479523Y-68461904D01*
X152574761Y-68557142D01*
X152622380Y-68700000D01*
X152622380Y-68938095D01*
X152622380Y-67414285D02*
X152622380Y-67985714D01*
X152622380Y-67700000D02*
X151622380Y-67700000D01*
X151765238Y-67795238D01*
X151860476Y-67890476D01*
X151908095Y-67985714D01*
%TO.C,Y1*%
X122816190Y-83915190D02*
X123292380Y-83915190D01*
X122292380Y-84248523D02*
X122816190Y-83915190D01*
X122292380Y-83581857D01*
X123292380Y-82724714D02*
X123292380Y-83296142D01*
X123292380Y-83010428D02*
X122292380Y-83010428D01*
X122435238Y-83105666D01*
X122530476Y-83200904D01*
X122578095Y-83296142D01*
%TO.C,U1*%
X151438095Y-73052380D02*
X151438095Y-73861904D01*
X151485714Y-73957142D01*
X151533333Y-74004761D01*
X151628571Y-74052380D01*
X151819047Y-74052380D01*
X151914285Y-74004761D01*
X151961904Y-73957142D01*
X152009523Y-73861904D01*
X152009523Y-73052380D01*
X153009523Y-74052380D02*
X152438095Y-74052380D01*
X152723809Y-74052380D02*
X152723809Y-73052380D01*
X152628571Y-73195238D01*
X152533333Y-73290476D01*
X152438095Y-73338095D01*
%TO.C,RESET*%
X122847619Y-73652380D02*
X122514285Y-73176190D01*
X122276190Y-73652380D02*
X122276190Y-72652380D01*
X122657142Y-72652380D01*
X122752380Y-72700000D01*
X122800000Y-72747619D01*
X122847619Y-72842857D01*
X122847619Y-72985714D01*
X122800000Y-73080952D01*
X122752380Y-73128571D01*
X122657142Y-73176190D01*
X122276190Y-73176190D01*
X123276190Y-73128571D02*
X123609523Y-73128571D01*
X123752380Y-73652380D02*
X123276190Y-73652380D01*
X123276190Y-72652380D01*
X123752380Y-72652380D01*
X124133333Y-73604761D02*
X124276190Y-73652380D01*
X124514285Y-73652380D01*
X124609523Y-73604761D01*
X124657142Y-73557142D01*
X124704761Y-73461904D01*
X124704761Y-73366666D01*
X124657142Y-73271428D01*
X124609523Y-73223809D01*
X124514285Y-73176190D01*
X124323809Y-73128571D01*
X124228571Y-73080952D01*
X124180952Y-73033333D01*
X124133333Y-72938095D01*
X124133333Y-72842857D01*
X124180952Y-72747619D01*
X124228571Y-72700000D01*
X124323809Y-72652380D01*
X124561904Y-72652380D01*
X124704761Y-72700000D01*
X125133333Y-73128571D02*
X125466666Y-73128571D01*
X125609523Y-73652380D02*
X125133333Y-73652380D01*
X125133333Y-72652380D01*
X125609523Y-72652380D01*
X125895238Y-72652380D02*
X126466666Y-72652380D01*
X126180952Y-73652380D02*
X126180952Y-72652380D01*
%TO.C,R5*%
X130952380Y-75666666D02*
X130476190Y-76000000D01*
X130952380Y-76238095D02*
X129952380Y-76238095D01*
X129952380Y-75857142D01*
X130000000Y-75761904D01*
X130047619Y-75714285D01*
X130142857Y-75666666D01*
X130285714Y-75666666D01*
X130380952Y-75714285D01*
X130428571Y-75761904D01*
X130476190Y-75857142D01*
X130476190Y-76238095D01*
X129952380Y-74761904D02*
X129952380Y-75238095D01*
X130428571Y-75285714D01*
X130380952Y-75238095D01*
X130333333Y-75142857D01*
X130333333Y-74904761D01*
X130380952Y-74809523D01*
X130428571Y-74761904D01*
X130523809Y-74714285D01*
X130761904Y-74714285D01*
X130857142Y-74761904D01*
X130904761Y-74809523D01*
X130952380Y-74904761D01*
X130952380Y-75142857D01*
X130904761Y-75238095D01*
X130857142Y-75285714D01*
%TO.C,R4*%
X136552380Y-80166666D02*
X136076190Y-80500000D01*
X136552380Y-80738095D02*
X135552380Y-80738095D01*
X135552380Y-80357142D01*
X135600000Y-80261904D01*
X135647619Y-80214285D01*
X135742857Y-80166666D01*
X135885714Y-80166666D01*
X135980952Y-80214285D01*
X136028571Y-80261904D01*
X136076190Y-80357142D01*
X136076190Y-80738095D01*
X135885714Y-79309523D02*
X136552380Y-79309523D01*
X135504761Y-79547619D02*
X136219047Y-79785714D01*
X136219047Y-79166666D01*
%TO.C,R3*%
X160852380Y-68746666D02*
X160376190Y-69080000D01*
X160852380Y-69318095D02*
X159852380Y-69318095D01*
X159852380Y-68937142D01*
X159900000Y-68841904D01*
X159947619Y-68794285D01*
X160042857Y-68746666D01*
X160185714Y-68746666D01*
X160280952Y-68794285D01*
X160328571Y-68841904D01*
X160376190Y-68937142D01*
X160376190Y-69318095D01*
X159852380Y-68413333D02*
X159852380Y-67794285D01*
X160233333Y-68127619D01*
X160233333Y-67984761D01*
X160280952Y-67889523D01*
X160328571Y-67841904D01*
X160423809Y-67794285D01*
X160661904Y-67794285D01*
X160757142Y-67841904D01*
X160804761Y-67889523D01*
X160852380Y-67984761D01*
X160852380Y-68270476D01*
X160804761Y-68365714D01*
X160757142Y-68413333D01*
%TO.C,R2*%
X143072380Y-68476666D02*
X142596190Y-68810000D01*
X143072380Y-69048095D02*
X142072380Y-69048095D01*
X142072380Y-68667142D01*
X142120000Y-68571904D01*
X142167619Y-68524285D01*
X142262857Y-68476666D01*
X142405714Y-68476666D01*
X142500952Y-68524285D01*
X142548571Y-68571904D01*
X142596190Y-68667142D01*
X142596190Y-69048095D01*
X142167619Y-68095714D02*
X142120000Y-68048095D01*
X142072380Y-67952857D01*
X142072380Y-67714761D01*
X142120000Y-67619523D01*
X142167619Y-67571904D01*
X142262857Y-67524285D01*
X142358095Y-67524285D01*
X142500952Y-67571904D01*
X143072380Y-68143333D01*
X143072380Y-67524285D01*
%TO.C,R1*%
X148152380Y-68476666D02*
X147676190Y-68810000D01*
X148152380Y-69048095D02*
X147152380Y-69048095D01*
X147152380Y-68667142D01*
X147200000Y-68571904D01*
X147247619Y-68524285D01*
X147342857Y-68476666D01*
X147485714Y-68476666D01*
X147580952Y-68524285D01*
X147628571Y-68571904D01*
X147676190Y-68667142D01*
X147676190Y-69048095D01*
X148152380Y-67524285D02*
X148152380Y-68095714D01*
X148152380Y-67810000D02*
X147152380Y-67810000D01*
X147295238Y-67905238D01*
X147390476Y-68000476D01*
X147438095Y-68095714D01*
%TO.C,J3*%
X147030666Y-84460380D02*
X147030666Y-85174666D01*
X146983047Y-85317523D01*
X146887809Y-85412761D01*
X146744952Y-85460380D01*
X146649714Y-85460380D01*
X147411619Y-84460380D02*
X148030666Y-84460380D01*
X147697333Y-84841333D01*
X147840190Y-84841333D01*
X147935428Y-84888952D01*
X147983047Y-84936571D01*
X148030666Y-85031809D01*
X148030666Y-85269904D01*
X147983047Y-85365142D01*
X147935428Y-85412761D01*
X147840190Y-85460380D01*
X147554476Y-85460380D01*
X147459238Y-85412761D01*
X147411619Y-85365142D01*
%TO.C,PROG*%
X120340380Y-73032714D02*
X119340380Y-73032714D01*
X119340380Y-72651761D01*
X119388000Y-72556523D01*
X119435619Y-72508904D01*
X119530857Y-72461285D01*
X119673714Y-72461285D01*
X119768952Y-72508904D01*
X119816571Y-72556523D01*
X119864190Y-72651761D01*
X119864190Y-73032714D01*
X120340380Y-71461285D02*
X119864190Y-71794619D01*
X120340380Y-72032714D02*
X119340380Y-72032714D01*
X119340380Y-71651761D01*
X119388000Y-71556523D01*
X119435619Y-71508904D01*
X119530857Y-71461285D01*
X119673714Y-71461285D01*
X119768952Y-71508904D01*
X119816571Y-71556523D01*
X119864190Y-71651761D01*
X119864190Y-72032714D01*
X119340380Y-70842238D02*
X119340380Y-70651761D01*
X119388000Y-70556523D01*
X119483238Y-70461285D01*
X119673714Y-70413666D01*
X120007047Y-70413666D01*
X120197523Y-70461285D01*
X120292761Y-70556523D01*
X120340380Y-70651761D01*
X120340380Y-70842238D01*
X120292761Y-70937476D01*
X120197523Y-71032714D01*
X120007047Y-71080333D01*
X119673714Y-71080333D01*
X119483238Y-71032714D01*
X119388000Y-70937476D01*
X119340380Y-70842238D01*
X119388000Y-69461285D02*
X119340380Y-69556523D01*
X119340380Y-69699380D01*
X119388000Y-69842238D01*
X119483238Y-69937476D01*
X119578476Y-69985095D01*
X119768952Y-70032714D01*
X119911809Y-70032714D01*
X120102285Y-69985095D01*
X120197523Y-69937476D01*
X120292761Y-69842238D01*
X120340380Y-69699380D01*
X120340380Y-69604142D01*
X120292761Y-69461285D01*
X120245142Y-69413666D01*
X119911809Y-69413666D01*
X119911809Y-69604142D01*
%TO.C,Device*%
X120340380Y-88907666D02*
X119340380Y-88907666D01*
X119340380Y-88669571D01*
X119388000Y-88526714D01*
X119483238Y-88431476D01*
X119578476Y-88383857D01*
X119768952Y-88336238D01*
X119911809Y-88336238D01*
X120102285Y-88383857D01*
X120197523Y-88431476D01*
X120292761Y-88526714D01*
X120340380Y-88669571D01*
X120340380Y-88907666D01*
X120292761Y-87526714D02*
X120340380Y-87621952D01*
X120340380Y-87812428D01*
X120292761Y-87907666D01*
X120197523Y-87955285D01*
X119816571Y-87955285D01*
X119721333Y-87907666D01*
X119673714Y-87812428D01*
X119673714Y-87621952D01*
X119721333Y-87526714D01*
X119816571Y-87479095D01*
X119911809Y-87479095D01*
X120007047Y-87955285D01*
X119673714Y-87145761D02*
X120340380Y-86907666D01*
X119673714Y-86669571D01*
X120340380Y-86288619D02*
X119673714Y-86288619D01*
X119340380Y-86288619D02*
X119388000Y-86336238D01*
X119435619Y-86288619D01*
X119388000Y-86241000D01*
X119340380Y-86288619D01*
X119435619Y-86288619D01*
X120292761Y-85383857D02*
X120340380Y-85479095D01*
X120340380Y-85669571D01*
X120292761Y-85764809D01*
X120245142Y-85812428D01*
X120149904Y-85860047D01*
X119864190Y-85860047D01*
X119768952Y-85812428D01*
X119721333Y-85764809D01*
X119673714Y-85669571D01*
X119673714Y-85479095D01*
X119721333Y-85383857D01*
X120292761Y-84574333D02*
X120340380Y-84669571D01*
X120340380Y-84860047D01*
X120292761Y-84955285D01*
X120197523Y-85002904D01*
X119816571Y-85002904D01*
X119721333Y-84955285D01*
X119673714Y-84860047D01*
X119673714Y-84669571D01*
X119721333Y-84574333D01*
X119816571Y-84526714D01*
X119911809Y-84526714D01*
X120007047Y-85002904D01*
%TO.C,C8*%
X132662142Y-74229166D02*
X132709761Y-74276785D01*
X132757380Y-74419642D01*
X132757380Y-74514880D01*
X132709761Y-74657738D01*
X132614523Y-74752976D01*
X132519285Y-74800595D01*
X132328809Y-74848214D01*
X132185952Y-74848214D01*
X131995476Y-74800595D01*
X131900238Y-74752976D01*
X131805000Y-74657738D01*
X131757380Y-74514880D01*
X131757380Y-74419642D01*
X131805000Y-74276785D01*
X131852619Y-74229166D01*
X132185952Y-73657738D02*
X132138333Y-73752976D01*
X132090714Y-73800595D01*
X131995476Y-73848214D01*
X131947857Y-73848214D01*
X131852619Y-73800595D01*
X131805000Y-73752976D01*
X131757380Y-73657738D01*
X131757380Y-73467261D01*
X131805000Y-73372023D01*
X131852619Y-73324404D01*
X131947857Y-73276785D01*
X131995476Y-73276785D01*
X132090714Y-73324404D01*
X132138333Y-73372023D01*
X132185952Y-73467261D01*
X132185952Y-73657738D01*
X132233571Y-73752976D01*
X132281190Y-73800595D01*
X132376428Y-73848214D01*
X132566904Y-73848214D01*
X132662142Y-73800595D01*
X132709761Y-73752976D01*
X132757380Y-73657738D01*
X132757380Y-73467261D01*
X132709761Y-73372023D01*
X132662142Y-73324404D01*
X132566904Y-73276785D01*
X132376428Y-73276785D01*
X132281190Y-73324404D01*
X132233571Y-73372023D01*
X132185952Y-73467261D01*
%TO.C,C7*%
X161572142Y-74229166D02*
X161619761Y-74276785D01*
X161667380Y-74419642D01*
X161667380Y-74514880D01*
X161619761Y-74657738D01*
X161524523Y-74752976D01*
X161429285Y-74800595D01*
X161238809Y-74848214D01*
X161095952Y-74848214D01*
X160905476Y-74800595D01*
X160810238Y-74752976D01*
X160715000Y-74657738D01*
X160667380Y-74514880D01*
X160667380Y-74419642D01*
X160715000Y-74276785D01*
X160762619Y-74229166D01*
X160667380Y-73895833D02*
X160667380Y-73229166D01*
X161667380Y-73657738D01*
%TO.C,C6*%
X139157142Y-80166666D02*
X139204761Y-80214285D01*
X139252380Y-80357142D01*
X139252380Y-80452380D01*
X139204761Y-80595238D01*
X139109523Y-80690476D01*
X139014285Y-80738095D01*
X138823809Y-80785714D01*
X138680952Y-80785714D01*
X138490476Y-80738095D01*
X138395238Y-80690476D01*
X138300000Y-80595238D01*
X138252380Y-80452380D01*
X138252380Y-80357142D01*
X138300000Y-80214285D01*
X138347619Y-80166666D01*
X138252380Y-79309523D02*
X138252380Y-79500000D01*
X138300000Y-79595238D01*
X138347619Y-79642857D01*
X138490476Y-79738095D01*
X138680952Y-79785714D01*
X139061904Y-79785714D01*
X139157142Y-79738095D01*
X139204761Y-79690476D01*
X139252380Y-79595238D01*
X139252380Y-79404761D01*
X139204761Y-79309523D01*
X139157142Y-79261904D01*
X139061904Y-79214285D01*
X138823809Y-79214285D01*
X138728571Y-79261904D01*
X138680952Y-79309523D01*
X138633333Y-79404761D01*
X138633333Y-79595238D01*
X138680952Y-79690476D01*
X138728571Y-79738095D01*
X138823809Y-79785714D01*
%TO.C,C5*%
X154887142Y-74229166D02*
X154934761Y-74276785D01*
X154982380Y-74419642D01*
X154982380Y-74514880D01*
X154934761Y-74657738D01*
X154839523Y-74752976D01*
X154744285Y-74800595D01*
X154553809Y-74848214D01*
X154410952Y-74848214D01*
X154220476Y-74800595D01*
X154125238Y-74752976D01*
X154030000Y-74657738D01*
X153982380Y-74514880D01*
X153982380Y-74419642D01*
X154030000Y-74276785D01*
X154077619Y-74229166D01*
X153982380Y-73324404D02*
X153982380Y-73800595D01*
X154458571Y-73848214D01*
X154410952Y-73800595D01*
X154363333Y-73705357D01*
X154363333Y-73467261D01*
X154410952Y-73372023D01*
X154458571Y-73324404D01*
X154553809Y-73276785D01*
X154791904Y-73276785D01*
X154887142Y-73324404D01*
X154934761Y-73372023D01*
X154982380Y-73467261D01*
X154982380Y-73705357D01*
X154934761Y-73800595D01*
X154887142Y-73848214D01*
%TO.C,C4*%
X139197142Y-74229166D02*
X139244761Y-74276785D01*
X139292380Y-74419642D01*
X139292380Y-74514880D01*
X139244761Y-74657738D01*
X139149523Y-74752976D01*
X139054285Y-74800595D01*
X138863809Y-74848214D01*
X138720952Y-74848214D01*
X138530476Y-74800595D01*
X138435238Y-74752976D01*
X138340000Y-74657738D01*
X138292380Y-74514880D01*
X138292380Y-74419642D01*
X138340000Y-74276785D01*
X138387619Y-74229166D01*
X138625714Y-73372023D02*
X139292380Y-73372023D01*
X138244761Y-73610119D02*
X138959047Y-73848214D01*
X138959047Y-73229166D01*
%TO.C,C3*%
X137757142Y-80166666D02*
X137804761Y-80214285D01*
X137852380Y-80357142D01*
X137852380Y-80452380D01*
X137804761Y-80595238D01*
X137709523Y-80690476D01*
X137614285Y-80738095D01*
X137423809Y-80785714D01*
X137280952Y-80785714D01*
X137090476Y-80738095D01*
X136995238Y-80690476D01*
X136900000Y-80595238D01*
X136852380Y-80452380D01*
X136852380Y-80357142D01*
X136900000Y-80214285D01*
X136947619Y-80166666D01*
X136852380Y-79833333D02*
X136852380Y-79214285D01*
X137233333Y-79547619D01*
X137233333Y-79404761D01*
X137280952Y-79309523D01*
X137328571Y-79261904D01*
X137423809Y-79214285D01*
X137661904Y-79214285D01*
X137757142Y-79261904D01*
X137804761Y-79309523D01*
X137852380Y-79404761D01*
X137852380Y-79690476D01*
X137804761Y-79785714D01*
X137757142Y-79833333D01*
%TO.C,C2*%
X122404142Y-81319666D02*
X122451761Y-81367285D01*
X122499380Y-81510142D01*
X122499380Y-81605380D01*
X122451761Y-81748238D01*
X122356523Y-81843476D01*
X122261285Y-81891095D01*
X122070809Y-81938714D01*
X121927952Y-81938714D01*
X121737476Y-81891095D01*
X121642238Y-81843476D01*
X121547000Y-81748238D01*
X121499380Y-81605380D01*
X121499380Y-81510142D01*
X121547000Y-81367285D01*
X121594619Y-81319666D01*
X121594619Y-80938714D02*
X121547000Y-80891095D01*
X121499380Y-80795857D01*
X121499380Y-80557761D01*
X121547000Y-80462523D01*
X121594619Y-80414904D01*
X121689857Y-80367285D01*
X121785095Y-80367285D01*
X121927952Y-80414904D01*
X122499380Y-80986333D01*
X122499380Y-80367285D01*
%TO.C,C1*%
X122404142Y-89574666D02*
X122451761Y-89622285D01*
X122499380Y-89765142D01*
X122499380Y-89860380D01*
X122451761Y-90003238D01*
X122356523Y-90098476D01*
X122261285Y-90146095D01*
X122070809Y-90193714D01*
X121927952Y-90193714D01*
X121737476Y-90146095D01*
X121642238Y-90098476D01*
X121547000Y-90003238D01*
X121499380Y-89860380D01*
X121499380Y-89765142D01*
X121547000Y-89622285D01*
X121594619Y-89574666D01*
X122499380Y-88622285D02*
X122499380Y-89193714D01*
X122499380Y-88908000D02*
X121499380Y-88908000D01*
X121642238Y-89003238D01*
X121737476Y-89098476D01*
X121785095Y-89193714D01*
D12*
%TO.C,REF\u002A\u002A*%
X165000000Y-83200000D02*
G75*
G03*
X165000000Y-83200000I-1900000J0D01*
G01*
%TO.C,D3*%
X163870000Y-66240000D02*
X163640000Y-66240000D01*
X161480000Y-66240000D02*
X161250000Y-66240000D01*
X163870000Y-66120000D02*
X161250000Y-66120000D01*
X161250000Y-66120000D02*
X161250000Y-71040000D01*
X163870000Y-66120000D02*
X163870000Y-71040000D01*
X161480000Y-66360000D02*
X161250000Y-66360000D01*
X163870000Y-71040000D02*
X161250000Y-71040000D01*
X163870000Y-66360000D02*
X163640000Y-66360000D01*
%TO.C,D2*%
X138470000Y-66240000D02*
X138240000Y-66240000D01*
X136080000Y-66240000D02*
X135850000Y-66240000D01*
X138470000Y-66120000D02*
X135850000Y-66120000D01*
X135850000Y-66120000D02*
X135850000Y-71040000D01*
X138470000Y-66120000D02*
X138470000Y-71040000D01*
X136080000Y-66360000D02*
X135850000Y-66360000D01*
X138470000Y-71040000D02*
X135850000Y-71040000D01*
X138470000Y-66360000D02*
X138240000Y-66360000D01*
%TO.C,D1*%
X151170000Y-66240000D02*
X150940000Y-66240000D01*
X148780000Y-66240000D02*
X148550000Y-66240000D01*
X151170000Y-66120000D02*
X148550000Y-66120000D01*
X148550000Y-66120000D02*
X148550000Y-71040000D01*
X151170000Y-66120000D02*
X151170000Y-71040000D01*
X148780000Y-66360000D02*
X148550000Y-66360000D01*
X151170000Y-71040000D02*
X148550000Y-71040000D01*
X151170000Y-66360000D02*
X150940000Y-66360000D01*
%TO.C,Y1*%
X128890000Y-85585000D02*
X128890000Y-79335000D01*
X123840000Y-85585000D02*
X123840000Y-79335000D01*
X123840000Y-85585000D02*
G75*
G03*
X128890000Y-85585000I2525000J0D01*
G01*
X128890000Y-79335000D02*
G75*
G03*
X123840000Y-79335000I-2525000J0D01*
G01*
%TO.C,U1*%
X150295000Y-81900000D02*
X150295000Y-82350000D01*
X143075000Y-75130000D02*
X143525000Y-75130000D01*
X150295000Y-75130000D02*
X149845000Y-75130000D01*
X143075000Y-81900000D02*
X143075000Y-82350000D01*
X143075000Y-82350000D02*
X143525000Y-82350000D01*
X150295000Y-75580000D02*
X150295000Y-75130000D01*
X143075000Y-75580000D02*
X143075000Y-75130000D01*
X149845000Y-75130000D02*
X149845000Y-73840000D01*
X150295000Y-82350000D02*
X149845000Y-82350000D01*
%TO.C,RESET*%
X130425000Y-69330000D02*
X130425000Y-67830000D01*
X124675000Y-71830000D02*
X129175000Y-71830000D01*
X129175000Y-65330000D02*
X124675000Y-65330000D01*
X123425000Y-67830000D02*
X123425000Y-69330000D01*
%TO.C,R5*%
X131545000Y-78152936D02*
X131545000Y-78607064D01*
X130075000Y-78152936D02*
X130075000Y-78607064D01*
%TO.C,R4*%
X131545000Y-82592936D02*
X131545000Y-83047064D01*
X130075000Y-82592936D02*
X130075000Y-83047064D01*
%TO.C,R3*%
X159485000Y-68352936D02*
X159485000Y-68807064D01*
X158015000Y-68352936D02*
X158015000Y-68807064D01*
%TO.C,R2*%
X141705000Y-68082936D02*
X141705000Y-68537064D01*
X140235000Y-68082936D02*
X140235000Y-68537064D01*
%TO.C,R1*%
X146785000Y-68082936D02*
X146785000Y-68537064D01*
X145315000Y-68082936D02*
X145315000Y-68537064D01*
%TO.C,J3*%
X131424000Y-86798000D02*
X131424000Y-86448000D01*
X164074000Y-88498000D02*
X164074000Y-86448000D01*
X163304000Y-86448000D02*
X163304000Y-86798000D01*
X130654000Y-90618000D02*
X131454000Y-90618000D01*
X163274000Y-90618000D02*
X164074000Y-90618000D01*
X131424000Y-86448000D02*
X130654000Y-86448000D01*
X163274000Y-91918000D02*
X163274000Y-90618000D01*
X130654000Y-86448000D02*
X130654000Y-88498000D01*
X130654000Y-90318000D02*
X130654000Y-90618000D01*
X163304000Y-86798000D02*
X161324000Y-86798000D01*
X164074000Y-86448000D02*
X163304000Y-86448000D01*
X133404000Y-86798000D02*
X131424000Y-86798000D01*
X131454000Y-91918000D02*
X163274000Y-91918000D01*
X133404000Y-86208000D02*
X133404000Y-86798000D01*
X131454000Y-90618000D02*
X131454000Y-91918000D01*
X164074000Y-90618000D02*
X164074000Y-90318000D01*
%TO.C,PROG*%
X117500000Y-65280000D02*
X118830000Y-65280000D01*
X118830000Y-66675000D02*
X118830000Y-73085000D01*
X116170000Y-66675000D02*
X116170000Y-73085000D01*
X116170000Y-73085000D02*
X117192470Y-73085000D01*
X117807530Y-73085000D02*
X118830000Y-73085000D01*
X118260000Y-66675000D02*
X118830000Y-66675000D01*
X118830000Y-65280000D02*
X118830000Y-66040000D01*
X116170000Y-66675000D02*
X116740000Y-66675000D01*
%TO.C,Device*%
X116145000Y-78740000D02*
X116145000Y-91500000D01*
X116145000Y-77470000D02*
X116145000Y-76140000D01*
X116145000Y-76140000D02*
X117475000Y-76140000D01*
X116145000Y-78740000D02*
X118805000Y-78740000D01*
X116145000Y-91500000D02*
X118805000Y-91500000D01*
X118805000Y-78740000D02*
X118805000Y-91500000D01*
%TO.C,C8*%
X133250000Y-74323752D02*
X133250000Y-73801248D01*
X134720000Y-74323752D02*
X134720000Y-73801248D01*
%TO.C,C7*%
X158365000Y-74323752D02*
X158365000Y-73801248D01*
X159835000Y-74323752D02*
X159835000Y-73801248D01*
%TO.C,C6*%
X136625000Y-82611248D02*
X136625000Y-83133752D01*
X135155000Y-82611248D02*
X135155000Y-83133752D01*
%TO.C,C5*%
X155475000Y-74323752D02*
X155475000Y-73801248D01*
X156945000Y-74323752D02*
X156945000Y-73801248D01*
%TO.C,C4*%
X137895000Y-73801248D02*
X137895000Y-74323752D01*
X136425000Y-73801248D02*
X136425000Y-74323752D01*
%TO.C,C3*%
X134085000Y-82611248D02*
X134085000Y-83133752D01*
X132615000Y-82611248D02*
X132615000Y-83133752D01*
%TO.C,C2*%
X122655000Y-78591252D02*
X122655000Y-78068748D01*
X121185000Y-78591252D02*
X121185000Y-78068748D01*
%TO.C,C1*%
X122655000Y-86851252D02*
X122655000Y-86328748D01*
X121185000Y-86851252D02*
X121185000Y-86328748D01*
%TD*%
M02*
