%TF.GenerationSoftware,KiCad,Pcbnew,6.0.9-8da3e8f707~116~ubuntu20.04.1*%
%TF.CreationDate,2022-11-22T17:17:17+01:00*%
%TF.ProjectId,sda_keyboard,7364615f-6b65-4796-926f-6172642e6b69,rev?*%
%TF.SameCoordinates,Original*%
%TF.FileFunction,Copper,L1,Top*%
%TF.FilePolarity,Positive*%
%FSLAX46Y46*%
G04 Gerber Fmt 4.6, Leading zero omitted, Abs format (unit mm)*
G04 Created by KiCad (PCBNEW 6.0.9-8da3e8f707~116~ubuntu20.04.1) date 2022-11-22 17:17:17*
%MOMM*%
%LPD*%
G01*
G04 APERTURE LIST*
G04 Aperture macros list*
%AMRoundRect*
0 Rectangle with rounded corners*
0 $1 Rounding radius*
0 $2 $3 $4 $5 $6 $7 $8 $9 X,Y pos of 4 corners*
0 Add a 4 corners polygon primitive as box body*
4,1,4,$2,$3,$4,$5,$6,$7,$8,$9,$2,$3,0*
0 Add four circle primitives for the rounded corners*
1,1,$1+$1,$2,$3*
1,1,$1+$1,$4,$5*
1,1,$1+$1,$6,$7*
1,1,$1+$1,$8,$9*
0 Add four rect primitives between the rounded corners*
20,1,$1+$1,$2,$3,$4,$5,0*
20,1,$1+$1,$4,$5,$6,$7,0*
20,1,$1+$1,$6,$7,$8,$9,0*
20,1,$1+$1,$8,$9,$2,$3,0*%
G04 Aperture macros list end*
%ADD10C,0.200000*%
%TA.AperFunction,NonConductor*%
%ADD11C,0.200000*%
%TD*%
%TA.AperFunction,ComponentPad*%
%ADD12C,3.400000*%
%TD*%
%TA.AperFunction,ComponentPad*%
%ADD13R,1.800000X1.800000*%
%TD*%
%TA.AperFunction,ComponentPad*%
%ADD14C,1.800000*%
%TD*%
%TA.AperFunction,ComponentPad*%
%ADD15C,1.500000*%
%TD*%
%TA.AperFunction,SMDPad,CuDef*%
%ADD16RoundRect,0.075000X-0.075000X0.662500X-0.075000X-0.662500X0.075000X-0.662500X0.075000X0.662500X0*%
%TD*%
%TA.AperFunction,SMDPad,CuDef*%
%ADD17RoundRect,0.075000X-0.662500X0.075000X-0.662500X-0.075000X0.662500X-0.075000X0.662500X0.075000X0*%
%TD*%
%TA.AperFunction,ComponentPad*%
%ADD18C,2.000000*%
%TD*%
%TA.AperFunction,SMDPad,CuDef*%
%ADD19RoundRect,0.250000X-0.450000X0.350000X-0.450000X-0.350000X0.450000X-0.350000X0.450000X0.350000X0*%
%TD*%
%TA.AperFunction,SMDPad,CuDef*%
%ADD20R,0.400000X1.000000*%
%TD*%
%TA.AperFunction,SMDPad,CuDef*%
%ADD21R,2.000000X1.300000*%
%TD*%
%TA.AperFunction,ComponentPad*%
%ADD22O,1.000000X1.000000*%
%TD*%
%TA.AperFunction,ComponentPad*%
%ADD23R,1.000000X1.000000*%
%TD*%
%TA.AperFunction,ComponentPad*%
%ADD24R,1.700000X1.700000*%
%TD*%
%TA.AperFunction,ComponentPad*%
%ADD25O,1.700000X1.700000*%
%TD*%
%TA.AperFunction,SMDPad,CuDef*%
%ADD26RoundRect,0.250000X0.475000X-0.337500X0.475000X0.337500X-0.475000X0.337500X-0.475000X-0.337500X0*%
%TD*%
%TA.AperFunction,SMDPad,CuDef*%
%ADD27RoundRect,0.250000X-0.475000X0.337500X-0.475000X-0.337500X0.475000X-0.337500X0.475000X0.337500X0*%
%TD*%
%TA.AperFunction,SMDPad,CuDef*%
%ADD28RoundRect,0.250000X0.475000X-0.250000X0.475000X0.250000X-0.475000X0.250000X-0.475000X-0.250000X0*%
%TD*%
%TA.AperFunction,ViaPad*%
%ADD29C,0.800000*%
%TD*%
%TA.AperFunction,Conductor*%
%ADD30C,0.300000*%
%TD*%
%TA.AperFunction,Conductor*%
%ADD31C,0.250000*%
%TD*%
G04 APERTURE END LIST*
D10*
D11*
X158090476Y-90452380D02*
X158661904Y-90452380D01*
X158376190Y-91452380D02*
X158376190Y-90452380D01*
X159185714Y-90452380D02*
X159376190Y-90452380D01*
X159471428Y-90500000D01*
X159566666Y-90595238D01*
X159614285Y-90785714D01*
X159614285Y-91119047D01*
X159566666Y-91309523D01*
X159471428Y-91404761D01*
X159376190Y-91452380D01*
X159185714Y-91452380D01*
X159090476Y-91404761D01*
X158995238Y-91309523D01*
X158947619Y-91119047D01*
X158947619Y-90785714D01*
X158995238Y-90595238D01*
X159090476Y-90500000D01*
X159185714Y-90452380D01*
X160042857Y-91452380D02*
X160042857Y-90452380D01*
X160423809Y-90452380D01*
X160519047Y-90500000D01*
X160566666Y-90547619D01*
X160614285Y-90642857D01*
X160614285Y-90785714D01*
X160566666Y-90880952D01*
X160519047Y-90928571D01*
X160423809Y-90976190D01*
X160042857Y-90976190D01*
D12*
%TO.P,REF\u002A\u002A,1*%
%TO.N,N/C*%
X163100000Y-83200000D03*
%TD*%
D13*
%TO.P,D3,1,K*%
%TO.N,Net-(D3-Pad1)*%
X162560000Y-67310000D03*
D14*
%TO.P,D3,2,A*%
%TO.N,Led_03*%
X162560000Y-69850000D03*
%TD*%
D13*
%TO.P,D2,1,K*%
%TO.N,Net-(D2-Pad1)*%
X137160000Y-67310000D03*
D14*
%TO.P,D2,2,A*%
%TO.N,Led_02*%
X137160000Y-69850000D03*
%TD*%
D13*
%TO.P,D1,1,K*%
%TO.N,Net-(D1-Pad1)*%
X149860000Y-67310000D03*
D14*
%TO.P,D1,2,A*%
%TO.N,Led_01*%
X149860000Y-69850000D03*
%TD*%
D15*
%TO.P,Y1,1,1*%
%TO.N,Net-(C1-Pad1)*%
X126365000Y-84910000D03*
%TO.P,Y1,2,2*%
%TO.N,Net-(C2-Pad1)*%
X126365000Y-80010000D03*
%TD*%
D16*
%TO.P,U1,1,VBAT*%
%TO.N,+3.3V*%
X149435000Y-74577500D03*
%TO.P,U1,2,PC13*%
%TO.N,unconnected-(U1-Pad2)*%
X148935000Y-74577500D03*
%TO.P,U1,3,PC14*%
%TO.N,unconnected-(U1-Pad3)*%
X148435000Y-74577500D03*
%TO.P,U1,4,PC15*%
%TO.N,unconnected-(U1-Pad4)*%
X147935000Y-74577500D03*
%TO.P,U1,5,PF0*%
%TO.N,Net-(R4-Pad1)*%
X147435000Y-74577500D03*
%TO.P,U1,6,PF1*%
%TO.N,Net-(R5-Pad1)*%
X146935000Y-74577500D03*
%TO.P,U1,7,NRST*%
%TO.N,RESET*%
X146435000Y-74577500D03*
%TO.P,U1,8,VSSA*%
%TO.N,GND*%
X145935000Y-74577500D03*
%TO.P,U1,9,VDDA*%
%TO.N,+3.3V*%
X145435000Y-74577500D03*
%TO.P,U1,10,PA0*%
%TO.N,Kbd_01*%
X144935000Y-74577500D03*
%TO.P,U1,11,PA1*%
%TO.N,Kbd_02*%
X144435000Y-74577500D03*
%TO.P,U1,12,PA2*%
%TO.N,Kbd_03*%
X143935000Y-74577500D03*
D17*
%TO.P,U1,13,PA3*%
%TO.N,Kbd_04*%
X142522500Y-75990000D03*
%TO.P,U1,14,PA4*%
%TO.N,Kbd_05*%
X142522500Y-76490000D03*
%TO.P,U1,15,PA5*%
%TO.N,Kbd_06*%
X142522500Y-76990000D03*
%TO.P,U1,16,PA6*%
%TO.N,Kbd_07*%
X142522500Y-77490000D03*
%TO.P,U1,17,PA7*%
%TO.N,Kbd_08*%
X142522500Y-77990000D03*
%TO.P,U1,18,PB0*%
%TO.N,Kbd_15*%
X142522500Y-78490000D03*
%TO.P,U1,19,PB1*%
%TO.N,Kbd_16*%
X142522500Y-78990000D03*
%TO.P,U1,20,PB2*%
%TO.N,Kbd_17*%
X142522500Y-79490000D03*
%TO.P,U1,21,PB10*%
%TO.N,Kbd_25*%
X142522500Y-79990000D03*
%TO.P,U1,22,PB11*%
%TO.N,Kbd_12*%
X142522500Y-80490000D03*
%TO.P,U1,23,VSS*%
%TO.N,GND*%
X142522500Y-80990000D03*
%TO.P,U1,24,VDD*%
%TO.N,+3.3V*%
X142522500Y-81490000D03*
D16*
%TO.P,U1,25,PB12*%
%TO.N,Kbd_13*%
X143935000Y-82902500D03*
%TO.P,U1,26,PB13*%
%TO.N,Led_01*%
X144435000Y-82902500D03*
%TO.P,U1,27,PB14*%
%TO.N,Led_02*%
X144935000Y-82902500D03*
%TO.P,U1,28,PB15*%
%TO.N,Led_03*%
X145435000Y-82902500D03*
%TO.P,U1,29,PA8*%
%TO.N,Kbd_09*%
X145935000Y-82902500D03*
%TO.P,U1,30,PA9*%
%TO.N,Conn_RX*%
X146435000Y-82902500D03*
%TO.P,U1,31,PA10*%
%TO.N,Conn_Tx*%
X146935000Y-82902500D03*
%TO.P,U1,32,PA11*%
%TO.N,Kbd_10*%
X147435000Y-82902500D03*
%TO.P,U1,33,PA12*%
%TO.N,Kbd_11*%
X147935000Y-82902500D03*
%TO.P,U1,34,PA13*%
%TO.N,SWD_TMS*%
X148435000Y-82902500D03*
%TO.P,U1,35,PF6*%
%TO.N,unconnected-(U1-Pad35)*%
X148935000Y-82902500D03*
%TO.P,U1,36,PF7*%
%TO.N,unconnected-(U1-Pad36)*%
X149435000Y-82902500D03*
D17*
%TO.P,U1,37,PA14*%
%TO.N,SWD_TCK*%
X150847500Y-81490000D03*
%TO.P,U1,38,PA15*%
%TO.N,Kbd_14*%
X150847500Y-80990000D03*
%TO.P,U1,39,PB3*%
%TO.N,Kbd_18*%
X150847500Y-80490000D03*
%TO.P,U1,40,PB4*%
%TO.N,Kbd_19*%
X150847500Y-79990000D03*
%TO.P,U1,41,PB5*%
%TO.N,Kbd_20*%
X150847500Y-79490000D03*
%TO.P,U1,42,PB6*%
%TO.N,Kbd_21*%
X150847500Y-78990000D03*
%TO.P,U1,43,PB7*%
%TO.N,Kbd_22*%
X150847500Y-78490000D03*
%TO.P,U1,44,BOOT0*%
%TO.N,GND*%
X150847500Y-77990000D03*
%TO.P,U1,45,PB8*%
%TO.N,Kbd_23*%
X150847500Y-77490000D03*
%TO.P,U1,46,PB9*%
%TO.N,Kbd_24*%
X150847500Y-76990000D03*
%TO.P,U1,47,VSS*%
%TO.N,GND*%
X150847500Y-76490000D03*
%TO.P,U1,48,VDD*%
%TO.N,+3.3V*%
X150847500Y-75990000D03*
%TD*%
D18*
%TO.P,RESET,1,1*%
%TO.N,GND*%
X130175000Y-66330000D03*
X123675000Y-66330000D03*
%TO.P,RESET,2,2*%
%TO.N,RESET*%
X130175000Y-70830000D03*
X123675000Y-70830000D03*
%TD*%
D19*
%TO.P,R5,1*%
%TO.N,Net-(R5-Pad1)*%
X130810000Y-77380000D03*
%TO.P,R5,2*%
%TO.N,Net-(C2-Pad1)*%
X130810000Y-79380000D03*
%TD*%
%TO.P,R4,1*%
%TO.N,Net-(R4-Pad1)*%
X130810000Y-81820000D03*
%TO.P,R4,2*%
%TO.N,Net-(C1-Pad1)*%
X130810000Y-83820000D03*
%TD*%
%TO.P,R3,1*%
%TO.N,Net-(D3-Pad1)*%
X158750000Y-67580000D03*
%TO.P,R3,2*%
%TO.N,GND*%
X158750000Y-69580000D03*
%TD*%
%TO.P,R2,1*%
%TO.N,Net-(D2-Pad1)*%
X140970000Y-67310000D03*
%TO.P,R2,2*%
%TO.N,GND*%
X140970000Y-69310000D03*
%TD*%
%TO.P,R1,1*%
%TO.N,Net-(D1-Pad1)*%
X146050000Y-67310000D03*
%TO.P,R1,2*%
%TO.N,GND*%
X146050000Y-69310000D03*
%TD*%
D20*
%TO.P,J3,1,Pin_1*%
%TO.N,Kbd_01*%
X133864000Y-86708000D03*
%TO.P,J3,2,Pin_2*%
%TO.N,Kbd_02*%
X134864000Y-86708000D03*
%TO.P,J3,3,Pin_3*%
%TO.N,Kbd_03*%
X135864000Y-86708000D03*
%TO.P,J3,4,Pin_4*%
%TO.N,Kbd_04*%
X136864000Y-86708000D03*
%TO.P,J3,5,Pin_5*%
%TO.N,Kbd_05*%
X137864000Y-86708000D03*
%TO.P,J3,6,Pin_6*%
%TO.N,Kbd_06*%
X138864000Y-86708000D03*
%TO.P,J3,7,Pin_7*%
%TO.N,Kbd_07*%
X139864000Y-86708000D03*
%TO.P,J3,8,Pin_8*%
%TO.N,Kbd_08*%
X140864000Y-86708000D03*
%TO.P,J3,9,Pin_9*%
%TO.N,Kbd_09*%
X141864000Y-86708000D03*
%TO.P,J3,10,Pin_10*%
%TO.N,Kbd_10*%
X142864000Y-86708000D03*
%TO.P,J3,11,Pin_11*%
%TO.N,Kbd_11*%
X143864000Y-86708000D03*
%TO.P,J3,12,Pin_12*%
%TO.N,Kbd_12*%
X144864000Y-86708000D03*
%TO.P,J3,13,Pin_13*%
%TO.N,Kbd_13*%
X145864000Y-86708000D03*
%TO.P,J3,14,Pin_14*%
%TO.N,Kbd_14*%
X146864000Y-86708000D03*
%TO.P,J3,15,Pin_15*%
%TO.N,unconnected-(J3-Pad15)*%
X147864000Y-86708000D03*
%TO.P,J3,16,Pin_16*%
%TO.N,Kbd_15*%
X148864000Y-86708000D03*
%TO.P,J3,17,Pin_17*%
%TO.N,Kbd_16*%
X149864000Y-86708000D03*
%TO.P,J3,18,Pin_18*%
%TO.N,Kbd_17*%
X150864000Y-86708000D03*
%TO.P,J3,19,Pin_19*%
%TO.N,Kbd_18*%
X151864000Y-86708000D03*
%TO.P,J3,20,Pin_20*%
%TO.N,Kbd_19*%
X152864000Y-86708000D03*
%TO.P,J3,21,Pin_21*%
%TO.N,Kbd_20*%
X153864000Y-86708000D03*
%TO.P,J3,22,Pin_22*%
%TO.N,Kbd_21*%
X154864000Y-86708000D03*
%TO.P,J3,23,Pin_23*%
%TO.N,Kbd_22*%
X155864000Y-86708000D03*
%TO.P,J3,24,Pin_24*%
%TO.N,Kbd_23*%
X156864000Y-86708000D03*
%TO.P,J3,25,Pin_25*%
%TO.N,Kbd_24*%
X157864000Y-86708000D03*
%TO.P,J3,26,Pin_26*%
%TO.N,Kbd_25*%
X158864000Y-86708000D03*
%TO.P,J3,27,Pin_27*%
%TO.N,unconnected-(J3-Pad27)*%
X159864000Y-86708000D03*
%TO.P,J3,28,Pin_28*%
%TO.N,unconnected-(J3-Pad28)*%
X160864000Y-86708000D03*
D21*
%TO.P,J3,MP*%
%TO.N,N/C*%
X163664000Y-89408000D03*
X131064000Y-89408000D03*
%TD*%
D22*
%TO.P,PROG,6,Pin_6*%
%TO.N,unconnected-(J2-Pad6)*%
X117500000Y-72390000D03*
%TO.P,PROG,5,Pin_5*%
%TO.N,RESET*%
X117500000Y-71120000D03*
%TO.P,PROG,4,Pin_4*%
%TO.N,SWD_TMS*%
X117500000Y-69850000D03*
%TO.P,PROG,3,Pin_3*%
%TO.N,GND*%
X117500000Y-68580000D03*
%TO.P,PROG,2,Pin_2*%
%TO.N,SWD_TCK*%
X117500000Y-67310000D03*
D23*
%TO.P,PROG,1,Pin_1*%
%TO.N,+3.3V*%
X117500000Y-66040000D03*
%TD*%
D24*
%TO.P,Device,1,Pin_1*%
%TO.N,GND*%
X117475000Y-77470000D03*
D25*
%TO.P,Device,2,Pin_2*%
%TO.N,unconnected-(J1-Pad2)*%
X117475000Y-80010000D03*
%TO.P,Device,3,Pin_3*%
%TO.N,+3.3V*%
X117475000Y-82550000D03*
%TO.P,Device,4,Pin_4*%
%TO.N,unconnected-(J1-Pad4)*%
X117475000Y-85090000D03*
%TO.P,Device,5,Pin_5*%
%TO.N,Conn_Tx*%
X117475000Y-87630000D03*
%TO.P,Device,6,Pin_6*%
%TO.N,Conn_RX*%
X117475000Y-90170000D03*
%TD*%
D26*
%TO.P,C8,1*%
%TO.N,+3.3V*%
X133985000Y-75100000D03*
%TO.P,C8,2*%
%TO.N,GND*%
X133985000Y-73025000D03*
%TD*%
%TO.P,C7,1*%
%TO.N,+3.3V*%
X159100000Y-75100000D03*
%TO.P,C7,2*%
%TO.N,GND*%
X159100000Y-73025000D03*
%TD*%
D27*
%TO.P,C6,1*%
%TO.N,+3.3V*%
X135890000Y-81835000D03*
%TO.P,C6,2*%
%TO.N,GND*%
X135890000Y-83910000D03*
%TD*%
D26*
%TO.P,C5,1*%
%TO.N,+3.3V*%
X156210000Y-75100000D03*
%TO.P,C5,2*%
%TO.N,GND*%
X156210000Y-73025000D03*
%TD*%
D27*
%TO.P,C4,1*%
%TO.N,RESET*%
X137160000Y-73025000D03*
%TO.P,C4,2*%
%TO.N,GND*%
X137160000Y-75100000D03*
%TD*%
%TO.P,C3,1*%
%TO.N,+3.3V*%
X133350000Y-81835000D03*
%TO.P,C3,2*%
%TO.N,GND*%
X133350000Y-83910000D03*
%TD*%
D28*
%TO.P,C2,1*%
%TO.N,Net-(C2-Pad1)*%
X121920000Y-79280000D03*
%TO.P,C2,2*%
%TO.N,GND*%
X121920000Y-77380000D03*
%TD*%
%TO.P,C1,1*%
%TO.N,Net-(C1-Pad1)*%
X121920000Y-87540000D03*
%TO.P,C1,2*%
%TO.N,GND*%
X121920000Y-85640000D03*
%TD*%
D29*
%TO.N,Kbd_13*%
X145700000Y-88100000D03*
%TO.N,GND*%
X127508000Y-76454000D03*
X127508000Y-73152000D03*
%TO.N,Conn_Tx*%
X120015000Y-90932000D03*
X126111000Y-90932000D03*
%TO.N,Conn_RX*%
X120015000Y-89916000D03*
X126111000Y-89916000D03*
%TO.N,+3.3V*%
X134620000Y-77089000D03*
X134620000Y-79883000D03*
%TO.N,Kbd_06*%
X140970000Y-83439000D03*
%TO.N,Kbd_12*%
X140081000Y-80264000D03*
%TO.N,Led_01*%
X151003000Y-71882000D03*
X143764000Y-81280000D03*
%TO.N,Led_02*%
X150749000Y-73914000D03*
X145034000Y-81280000D03*
%TO.N,Led_03*%
X147156000Y-79920000D03*
X151511000Y-74676000D03*
%TO.N,+3.3V*%
X149352000Y-72517000D03*
X144145000Y-76200000D03*
%TO.N,Kbd_06*%
X140716000Y-77851000D03*
%TO.N,Kbd_05*%
X139327598Y-77343000D03*
%TO.N,Kbd_15*%
X138430000Y-78613000D03*
%TO.N,Kbd_04*%
X140208000Y-76073000D03*
%TO.N,Conn_RX*%
X145537701Y-91435701D03*
X146430458Y-81152458D03*
%TO.N,Conn_Tx*%
X146558000Y-91440000D03*
X148336000Y-81153000D03*
%TO.N,Kbd_15*%
X150876000Y-91186000D03*
X140970000Y-90894500D03*
%TO.N,SWD_TMS*%
X137541000Y-90800000D03*
X147574000Y-90170000D03*
%TO.N,Net-(R4-Pad1)*%
X132588000Y-78613000D03*
X147200000Y-71700000D03*
%TO.N,Net-(R5-Pad1)*%
X132715000Y-77343000D03*
X146300000Y-71700000D03*
%TO.N,SWD_TMS*%
X148082000Y-85090000D03*
%TO.N,SWD_TCK*%
X152527000Y-65532000D03*
X152527000Y-81407000D03*
%TO.N,Kbd_15*%
X150876000Y-83566000D03*
%TO.N,Kbd_25*%
X148336000Y-79883000D03*
X149860000Y-90170000D03*
%TO.N,Kbd_17*%
X149860000Y-89154000D03*
X148336000Y-78740000D03*
%TO.N,Kbd_16*%
X149860000Y-88138000D03*
X148844000Y-76835000D03*
%TO.N,Kbd_12*%
X144217000Y-88083000D03*
%TO.N,Kbd_13*%
X142494000Y-83820000D03*
%TO.N,Kbd_08*%
X146304000Y-76581000D03*
X142494000Y-82550000D03*
%TO.N,Kbd_07*%
X145097500Y-76898500D03*
X140970000Y-84582000D03*
%TO.N,Kbd_05*%
X141224000Y-88265000D03*
%TO.N,Kbd_04*%
X139700000Y-88265000D03*
%TO.N,Kbd_03*%
X140970000Y-73406000D03*
X137000000Y-88500000D03*
%TO.N,Kbd_02*%
X140208000Y-72644000D03*
X136017000Y-88265000D03*
%TO.N,Kbd_01*%
X139065000Y-72390000D03*
X135890000Y-85471000D03*
%TD*%
D30*
%TO.N,+3.3V*%
X121158000Y-75057000D02*
X120015000Y-76200000D01*
X120015000Y-76200000D02*
X120015000Y-79685000D01*
X118745000Y-82550000D02*
X117475000Y-82550000D01*
X120015000Y-79685000D02*
X118745000Y-80955000D01*
X118745000Y-80955000D02*
X118745000Y-82550000D01*
D31*
%TO.N,Kbd_25*%
X149860000Y-90170000D02*
X150330000Y-90170000D01*
X150330000Y-90170000D02*
X152616000Y-87884000D01*
X152616000Y-87884000D02*
X158150000Y-87884000D01*
X158150000Y-87884000D02*
X158864000Y-87170000D01*
%TO.N,Kbd_13*%
X145864000Y-86708000D02*
X145864000Y-87936000D01*
X145864000Y-87936000D02*
X145700000Y-88100000D01*
%TO.N,Kbd_12*%
X144864000Y-86708000D02*
X144864000Y-87436000D01*
X144864000Y-87436000D02*
X144217000Y-88083000D01*
%TO.N,SWD_TMS*%
X147574000Y-90170000D02*
X138171000Y-90170000D01*
X138171000Y-90170000D02*
X137541000Y-90800000D01*
%TO.N,Kbd_03*%
X137000000Y-88500000D02*
X137000000Y-88171000D01*
X137000000Y-88171000D02*
X137033000Y-88138000D01*
%TO.N,Kbd_04*%
X136864000Y-86708000D02*
X136864000Y-87332604D01*
X136864000Y-87332604D02*
X137231396Y-87700000D01*
X137231396Y-87700000D02*
X137800000Y-87700000D01*
X137800000Y-87700000D02*
X138492000Y-88392000D01*
X138492000Y-88392000D02*
X139573000Y-88392000D01*
X139573000Y-88392000D02*
X139700000Y-88265000D01*
%TO.N,Led_02*%
X137160000Y-69850000D02*
X137598846Y-70288846D01*
X137598846Y-70288846D02*
X144906917Y-70288846D01*
X145288928Y-70611070D02*
X147388930Y-70611070D01*
X144906917Y-70288846D02*
X144965852Y-70288775D01*
X144965852Y-70288775D02*
X145288928Y-70611070D01*
X147388930Y-70688930D02*
X148492000Y-71792000D01*
X147388930Y-70611070D02*
X147388930Y-70688930D01*
X148492000Y-71792000D02*
X149652306Y-71792000D01*
X149652306Y-71792000D02*
X150749000Y-72888695D01*
X150749000Y-72888695D02*
X150749000Y-73914000D01*
%TO.N,Net-(R4-Pad1)*%
X147435000Y-74577500D02*
X147435000Y-71935000D01*
X147435000Y-71935000D02*
X147200000Y-71700000D01*
%TO.N,Net-(R5-Pad1)*%
X146910000Y-72590000D02*
X146910000Y-74549000D01*
X146300000Y-71700000D02*
X146300000Y-71980000D01*
X146300000Y-71980000D02*
X146910000Y-72590000D01*
%TO.N,RESET*%
X137160000Y-73025000D02*
X137160000Y-72263000D01*
X137160000Y-72263000D02*
X138684000Y-70739000D01*
X138684000Y-70739000D02*
X144239000Y-70739000D01*
X144239000Y-70739000D02*
X146435000Y-72935000D01*
X146435000Y-72935000D02*
X146435000Y-74577500D01*
%TO.N,Kbd_15*%
X148864000Y-86708000D02*
X148864000Y-86340000D01*
X148864000Y-86340000D02*
X149860000Y-85344000D01*
X149860000Y-85344000D02*
X149860000Y-85090000D01*
X149860000Y-85090000D02*
X150876000Y-84074000D01*
X150876000Y-84074000D02*
X150876000Y-83566000D01*
%TO.N,Kbd_14*%
X147389000Y-85883000D02*
X148559000Y-85883000D01*
X148559000Y-85883000D02*
X149098000Y-85344000D01*
X150114000Y-83566000D02*
X150114000Y-82278315D01*
X150114000Y-83566000D02*
X149098000Y-84582000D01*
X149098000Y-84582000D02*
X149098000Y-85344000D01*
%TO.N,Kbd_10*%
X147435000Y-82902500D02*
X147435000Y-83705685D01*
X147175685Y-83965000D02*
X147175000Y-83965000D01*
X147435000Y-83705685D02*
X147175685Y-83965000D01*
X146304000Y-84836000D02*
X144018000Y-84836000D01*
X147175000Y-83965000D02*
X146304000Y-84836000D01*
X144018000Y-84836000D02*
X142864000Y-85990000D01*
X142864000Y-85990000D02*
X142864000Y-86708000D01*
%TO.N,Kbd_11*%
X143864000Y-86708000D02*
X143864000Y-86006000D01*
X143864000Y-86006000D02*
X144530653Y-85339347D01*
X147818695Y-84328000D02*
X146807347Y-85339347D01*
X144530653Y-85339347D02*
X146807347Y-85339347D01*
%TO.N,Kbd_09*%
X141864000Y-86708000D02*
X141864000Y-85974000D01*
X143510000Y-84328000D02*
X145542000Y-84328000D01*
X141864000Y-85974000D02*
X143510000Y-84328000D01*
X145546653Y-84332653D02*
X145920305Y-83959000D01*
X145542000Y-84328000D02*
X145546653Y-84332653D01*
X145920305Y-83959000D02*
X145935000Y-83959000D01*
X145935000Y-83959000D02*
X145935000Y-82902500D01*
%TO.N,Led_02*%
X144935000Y-82902500D02*
X144935000Y-81379000D01*
X144935000Y-81379000D02*
X145034000Y-81280000D01*
%TO.N,Led_03*%
X147156000Y-79920000D02*
X146902000Y-79920000D01*
X146902000Y-79920000D02*
X146420709Y-80401291D01*
X146420709Y-80401291D02*
X146079709Y-80401291D01*
X146079709Y-80401291D02*
X145705458Y-80775542D01*
X145705458Y-80775542D02*
X145705458Y-81624542D01*
X145705458Y-81624542D02*
X145435000Y-81895000D01*
X145435000Y-81895000D02*
X145435000Y-82902500D01*
%TO.N,Led_01*%
X144435000Y-82902500D02*
X144435000Y-81860000D01*
X144435000Y-81860000D02*
X143764000Y-81189000D01*
%TO.N,Kbd_13*%
X142494000Y-83820000D02*
X142494000Y-83312000D01*
X142494000Y-83312000D02*
X143525500Y-83312000D01*
X143525500Y-83312000D02*
X143935000Y-82902500D01*
%TO.N,Kbd_08*%
X140864000Y-86708000D02*
X140864000Y-85704000D01*
X140864000Y-85704000D02*
X140970000Y-85598000D01*
X140970000Y-85598000D02*
X140979305Y-85598000D01*
X140979305Y-85598000D02*
X141732000Y-84845305D01*
X141732000Y-84845305D02*
X141732000Y-83312000D01*
X141732000Y-83312000D02*
X142494000Y-82550000D01*
%TO.N,Kbd_11*%
X147935000Y-82902500D02*
X147935000Y-84221000D01*
X147935000Y-84221000D02*
X147828000Y-84328000D01*
X147828000Y-84328000D02*
X147818695Y-84328000D01*
%TO.N,Kbd_14*%
X146864000Y-86708000D02*
X146864000Y-86408000D01*
X149675685Y-81358630D02*
X150044315Y-80990000D01*
X146864000Y-86408000D02*
X147389000Y-85883000D01*
X150114000Y-82278315D02*
X149675685Y-81840000D01*
X149675685Y-81840000D02*
X149675685Y-81358630D01*
X150044315Y-80990000D02*
X150847500Y-80990000D01*
%TO.N,Kbd_07*%
X139864000Y-86708000D02*
X139864000Y-85688000D01*
X139864000Y-85688000D02*
X140970000Y-84582000D01*
%TO.N,Kbd_06*%
X138864000Y-86708000D02*
X138864000Y-85164000D01*
X138864000Y-85164000D02*
X140589000Y-83439000D01*
X140589000Y-83439000D02*
X140970000Y-83439000D01*
%TO.N,Kbd_05*%
X141224000Y-88265000D02*
X140499000Y-87540000D01*
X140499000Y-87540000D02*
X138340000Y-87540000D01*
X138340000Y-87540000D02*
X137864000Y-87064000D01*
X137864000Y-87064000D02*
X137864000Y-86708000D01*
%TO.N,Kbd_03*%
X137033000Y-88138000D02*
X135864000Y-86969000D01*
X135864000Y-86969000D02*
X135864000Y-86708000D01*
%TO.N,Kbd_02*%
X136017000Y-88265000D02*
X135509000Y-88265000D01*
X135509000Y-88265000D02*
X134864000Y-87620000D01*
X134864000Y-87620000D02*
X134864000Y-86708000D01*
%TO.N,Kbd_01*%
X133864000Y-86708000D02*
X133864000Y-86354000D01*
X133864000Y-86354000D02*
X134747000Y-85471000D01*
X134747000Y-85471000D02*
X135890000Y-85471000D01*
%TO.N,Kbd_24*%
X150847500Y-76990000D02*
X155095000Y-76990000D01*
X155095000Y-76990000D02*
X159820000Y-81715000D01*
X159820000Y-81715000D02*
X159820000Y-84274000D01*
X159820000Y-84274000D02*
X157864000Y-86230000D01*
X157864000Y-86230000D02*
X157864000Y-86708000D01*
%TO.N,Kbd_23*%
X159370000Y-81901396D02*
X159370000Y-83551000D01*
X156864000Y-86708000D02*
X156864000Y-86358000D01*
X156864000Y-86358000D02*
X159370000Y-83852000D01*
X159370000Y-83852000D02*
X159370000Y-83551000D01*
%TO.N,Kbd_22*%
X150847500Y-78490000D02*
X153421396Y-78490000D01*
X155864000Y-86141000D02*
X155864000Y-86708000D01*
X153421396Y-78490000D02*
X155712302Y-80780906D01*
X155712302Y-83431490D02*
X154813000Y-84330792D01*
X155712302Y-80780906D02*
X155712302Y-83431490D01*
X154813000Y-84330792D02*
X154813000Y-85090000D01*
X154813000Y-85090000D02*
X155864000Y-86141000D01*
%TO.N,Kbd_21*%
X154864000Y-86708000D02*
X154864000Y-85903000D01*
X154864000Y-85903000D02*
X153924698Y-84963698D01*
X155262302Y-83245094D02*
X155262302Y-80967302D01*
X155262302Y-80967302D02*
X153285000Y-78990000D01*
X153924698Y-84963698D02*
X153924698Y-84582698D01*
X153924698Y-84582698D02*
X155262302Y-83245094D01*
X153285000Y-78990000D02*
X150847500Y-78990000D01*
%TO.N,Kbd_20*%
X150847500Y-79490000D02*
X153148604Y-79490000D01*
X153148604Y-79490000D02*
X154812302Y-81153698D01*
X154812302Y-81153698D02*
X154812302Y-83058698D01*
X154812302Y-83058698D02*
X153416000Y-84455000D01*
X153416000Y-84455000D02*
X153416000Y-85344000D01*
X153416000Y-85344000D02*
X153864000Y-85792000D01*
X153864000Y-85792000D02*
X153864000Y-86708000D01*
%TO.N,Kbd_19*%
X152864000Y-86708000D02*
X152864000Y-84245000D01*
X152864000Y-84245000D02*
X154305000Y-82804000D01*
X154305000Y-82804000D02*
X154305000Y-81282792D01*
X154305000Y-81282792D02*
X153012208Y-79990000D01*
X153012208Y-79990000D02*
X150847500Y-79990000D01*
%TO.N,Kbd_18*%
X153820000Y-82400000D02*
X153820000Y-81434188D01*
X151864000Y-86708000D02*
X151864000Y-84356000D01*
X151864000Y-84356000D02*
X153820000Y-82400000D01*
%TO.N,Kbd_17*%
X149860000Y-89154000D02*
X150495000Y-89154000D01*
X150864000Y-86708000D02*
X150864000Y-88785000D01*
X150864000Y-88785000D02*
X150495000Y-89154000D01*
%TO.N,Kbd_16*%
X149860000Y-88138000D02*
X149860000Y-86712000D01*
X149860000Y-86712000D02*
X149864000Y-86708000D01*
%TO.N,Kbd_23*%
X150847500Y-77490000D02*
X150866802Y-77470698D01*
X150866802Y-77470698D02*
X154939302Y-77470698D01*
X154939302Y-77470698D02*
X159370000Y-81901396D01*
%TO.N,GND*%
X154444000Y-77990000D02*
X155194000Y-78740000D01*
X150847500Y-77990000D02*
X154444000Y-77990000D01*
%TO.N,+3.3V*%
X145435000Y-74577500D02*
X145435000Y-72634604D01*
X145435000Y-72634604D02*
X144047396Y-71247000D01*
X144047396Y-71247000D02*
X139182695Y-71247000D01*
X139182695Y-71247000D02*
X138303000Y-72126695D01*
X134577000Y-75100000D02*
X133985000Y-75100000D01*
X138303000Y-72126695D02*
X138303000Y-73660000D01*
X138303000Y-73660000D02*
X137795000Y-74168000D01*
X137795000Y-74168000D02*
X135509000Y-74168000D01*
X135509000Y-74168000D02*
X134577000Y-75100000D01*
%TO.N,SWD_TCK*%
X152004053Y-64882053D02*
X122823947Y-64882053D01*
X152527000Y-65532000D02*
X152004053Y-64882053D01*
X122823947Y-64882053D02*
X120396000Y-67310000D01*
X120396000Y-67310000D02*
X117500000Y-67310000D01*
%TO.N,GND*%
X124841000Y-76454000D02*
X127508000Y-76454000D01*
X124333000Y-76962000D02*
X124841000Y-76454000D01*
X121920000Y-77380000D02*
X123915000Y-77380000D01*
X123915000Y-77380000D02*
X124333000Y-76962000D01*
X158151000Y-76490000D02*
X158242000Y-76581000D01*
X150847500Y-76490000D02*
X158151000Y-76490000D01*
X149872000Y-77990000D02*
X149733000Y-77851000D01*
X150847500Y-77990000D02*
X149872000Y-77990000D01*
X149733000Y-77851000D02*
X149733000Y-76717000D01*
X145935000Y-74577500D02*
X145935000Y-75380685D01*
X145935000Y-75380685D02*
X146373315Y-75819000D01*
X146373315Y-75819000D02*
X149089000Y-75819000D01*
X149089000Y-75819000D02*
X149860000Y-76590000D01*
%TO.N,Kbd_16*%
X148844000Y-76835000D02*
X147320000Y-76835000D01*
X147320000Y-76835000D02*
X145165000Y-78990000D01*
X145165000Y-78990000D02*
X142522500Y-78990000D01*
%TO.N,Kbd_17*%
X146494500Y-78549500D02*
X145542000Y-79502000D01*
X146494500Y-78549500D02*
X148145500Y-78549500D01*
X148145500Y-78549500D02*
X148336000Y-78740000D01*
X142534500Y-79502000D02*
X142522500Y-79490000D01*
X145542000Y-79502000D02*
X142534500Y-79502000D01*
%TO.N,Kbd_25*%
X148336000Y-79883000D02*
X147478750Y-79025750D01*
X147478750Y-79025750D02*
X146780250Y-79025750D01*
X146780250Y-79025750D02*
X145816000Y-79990000D01*
X145816000Y-79990000D02*
X142522500Y-79990000D01*
%TO.N,Kbd_08*%
X145986500Y-77406500D02*
X145403000Y-77990000D01*
X145986500Y-77406500D02*
X146304000Y-77089000D01*
X146304000Y-77089000D02*
X146304000Y-76581000D01*
X145403000Y-77990000D02*
X142522500Y-77990000D01*
%TO.N,Kbd_07*%
X145097500Y-76898500D02*
X144506000Y-77490000D01*
X144506000Y-77490000D02*
X142522500Y-77490000D01*
%TO.N,+3.3V*%
X145435000Y-75418000D02*
X145435000Y-74577500D01*
X144653000Y-76200000D02*
X145435000Y-75418000D01*
X144145000Y-76200000D02*
X144653000Y-76200000D01*
%TO.N,GND*%
X149860000Y-76590000D02*
X149733000Y-76717000D01*
X150847500Y-76490000D02*
X149960000Y-76490000D01*
X149960000Y-76490000D02*
X149860000Y-76590000D01*
%TO.N,Conn_Tx*%
X128651000Y-90678000D02*
X126365000Y-90678000D01*
X120015000Y-90932000D02*
X119126000Y-90932000D01*
X126365000Y-90678000D02*
X126111000Y-90932000D01*
X118618000Y-91440000D02*
X119126000Y-90932000D01*
%TO.N,Conn_RX*%
X127000000Y-90170000D02*
X128905000Y-90170000D01*
X126365000Y-90170000D02*
X126111000Y-89916000D01*
X127000000Y-90170000D02*
X126365000Y-90170000D01*
X117475000Y-90170000D02*
X119761000Y-90170000D01*
X119761000Y-90170000D02*
X120015000Y-89916000D01*
%TO.N,GND*%
X133604000Y-76708000D02*
X133096000Y-76200000D01*
X136144000Y-78232000D02*
X134239000Y-78232000D01*
X136652000Y-78740000D02*
X136144000Y-78232000D01*
X133096000Y-76200000D02*
X132334000Y-76200000D01*
X142522500Y-80990000D02*
X138902000Y-80990000D01*
X138902000Y-80990000D02*
X136652000Y-78740000D01*
X133604000Y-77807305D02*
X133604000Y-76708000D01*
X134239000Y-78232000D02*
X134028695Y-78232000D01*
X134028695Y-78232000D02*
X133604000Y-77807305D01*
%TO.N,Kbd_12*%
X142522500Y-80490000D02*
X140307000Y-80490000D01*
X140307000Y-80490000D02*
X140081000Y-80264000D01*
%TO.N,+3.3V*%
X133350000Y-81835000D02*
X133350000Y-81153000D01*
X133350000Y-81153000D02*
X134620000Y-79883000D01*
X133985000Y-75100000D02*
X133985000Y-76454000D01*
X133985000Y-76454000D02*
X134620000Y-77089000D01*
D30*
X121158000Y-75057000D02*
X121285000Y-74930000D01*
D31*
X117500000Y-66040000D02*
X116205000Y-66040000D01*
X116205000Y-66040000D02*
X115443000Y-66802000D01*
X115443000Y-66802000D02*
X115443000Y-74168000D01*
X115443000Y-74168000D02*
X116332000Y-75057000D01*
X116332000Y-75057000D02*
X121158000Y-75057000D01*
%TO.N,Kbd_07*%
X139820000Y-86720000D02*
X139820000Y-87020000D01*
%TO.N,Kbd_05*%
X141065000Y-88265000D02*
X141224000Y-88265000D01*
%TO.N,Kbd_09*%
X141820000Y-86720000D02*
X141944701Y-86595299D01*
%TO.N,+3.3V*%
X142522500Y-81490000D02*
X141903000Y-81490000D01*
X141903000Y-81490000D02*
X141097000Y-82296000D01*
X139192000Y-82296000D02*
X138499000Y-81603000D01*
X141097000Y-82296000D02*
X139192000Y-82296000D01*
X138499000Y-81603000D02*
X138499000Y-81465000D01*
X138499000Y-81465000D02*
X136260000Y-81465000D01*
X136260000Y-81465000D02*
X135890000Y-81835000D01*
%TO.N,GND*%
X146050000Y-69310000D02*
X145510000Y-69310000D01*
X121425000Y-69456000D02*
X121412000Y-69469000D01*
%TO.N,Kbd_01*%
X135820000Y-85541000D02*
X135890000Y-85471000D01*
%TO.N,Conn_Tx*%
X117475000Y-87630000D02*
X116300000Y-88805000D01*
X130302000Y-92329000D02*
X145669000Y-92329000D01*
X116300000Y-88805000D02*
X116300000Y-91408000D01*
X116300000Y-91408000D02*
X116332000Y-91440000D01*
X116332000Y-91440000D02*
X118618000Y-91440000D01*
X128651000Y-90678000D02*
X130302000Y-92329000D01*
X145669000Y-92329000D02*
X146558000Y-91440000D01*
%TO.N,Conn_RX*%
X128905000Y-90170000D02*
X130614000Y-91879000D01*
X130614000Y-91879000D02*
X145094402Y-91879000D01*
X145094402Y-91879000D02*
X145537701Y-91435701D01*
%TO.N,GND*%
X135382000Y-65659000D02*
X142367000Y-65659000D01*
X134711000Y-66330000D02*
X135382000Y-65659000D01*
X142367000Y-65659000D02*
X143256000Y-66548000D01*
X143256000Y-66548000D02*
X143256000Y-67024000D01*
%TO.N,Kbd_11*%
X143820000Y-86431000D02*
X143820000Y-86720000D01*
%TO.N,Conn_Tx*%
X146935000Y-82046000D02*
X146935000Y-82902500D01*
X148336000Y-81153000D02*
X147828000Y-81153000D01*
X147828000Y-81153000D02*
X146935000Y-82046000D01*
%TO.N,Conn_RX*%
X146430458Y-81152458D02*
X146426734Y-82894234D01*
X146426734Y-82894234D02*
X146435000Y-82902500D01*
%TO.N,Led_01*%
X151003000Y-71882000D02*
X151003000Y-70993000D01*
X151003000Y-70993000D02*
X149860000Y-69850000D01*
%TO.N,Led_03*%
X154559000Y-71628000D02*
X160782000Y-71628000D01*
X151511000Y-74676000D02*
X154559000Y-71628000D01*
X160782000Y-71628000D02*
X162560000Y-69850000D01*
%TO.N,+3.3V*%
X149352000Y-73152000D02*
X149479000Y-73279000D01*
X149352000Y-72517000D02*
X149352000Y-73152000D01*
X149479000Y-73279000D02*
X149479000Y-74533500D01*
X149479000Y-74533500D02*
X149435000Y-74577500D01*
%TO.N,Kbd_06*%
X142522500Y-76990000D02*
X141577000Y-76990000D01*
X141577000Y-76990000D02*
X140716000Y-77851000D01*
%TO.N,Kbd_05*%
X140081000Y-77343000D02*
X139327598Y-77343000D01*
X140208000Y-77216000D02*
X140081000Y-77343000D01*
X142522500Y-76490000D02*
X140934000Y-76490000D01*
X140934000Y-76490000D02*
X140208000Y-77216000D01*
%TO.N,Kbd_15*%
X141351000Y-78613000D02*
X141478000Y-78486000D01*
X138430000Y-78613000D02*
X141351000Y-78613000D01*
X141478000Y-78486000D02*
X142518500Y-78486000D01*
X142518500Y-78486000D02*
X142522500Y-78490000D01*
%TO.N,Kbd_04*%
X140208000Y-76073000D02*
X140291000Y-75990000D01*
X140291000Y-75990000D02*
X142522500Y-75990000D01*
%TO.N,Kbd_15*%
X140970000Y-90894500D02*
X141244500Y-90620000D01*
X146881000Y-90620000D02*
X147193000Y-90932000D01*
X150622000Y-90932000D02*
X150876000Y-91186000D01*
X141244500Y-90620000D02*
X146881000Y-90620000D01*
X147193000Y-90932000D02*
X150622000Y-90932000D01*
%TO.N,Kbd_09*%
X145935000Y-83300000D02*
X145910000Y-83325000D01*
%TO.N,Net-(D3-Pad1)*%
X158750000Y-67580000D02*
X159020000Y-67310000D01*
X159020000Y-67310000D02*
X162560000Y-67310000D01*
%TO.N,Net-(D1-Pad1)*%
X146050000Y-67310000D02*
X149860000Y-67310000D01*
%TO.N,Net-(D2-Pad1)*%
X137160000Y-67310000D02*
X140970000Y-67310000D01*
%TO.N,Net-(R4-Pad1)*%
X132588000Y-78613000D02*
X132588000Y-80042000D01*
X132588000Y-80042000D02*
X130810000Y-81820000D01*
%TO.N,Net-(R5-Pad1)*%
X130810000Y-77380000D02*
X132678000Y-77380000D01*
X132678000Y-77380000D02*
X132715000Y-77343000D01*
%TO.N,SWD_TMS*%
X148435000Y-82902500D02*
X148435000Y-84610000D01*
X148435000Y-84610000D02*
X147828000Y-85217000D01*
%TO.N,SWD_TCK*%
X150847500Y-81490000D02*
X152444000Y-81490000D01*
X152444000Y-81490000D02*
X152527000Y-81407000D01*
%TO.N,unconnected-(J3-Pad28)*%
X160820000Y-86720000D02*
X160820000Y-87084000D01*
%TO.N,GND*%
X140970000Y-69310000D02*
X146050000Y-69310000D01*
X117500000Y-68580000D02*
X121425000Y-68580000D01*
X121425000Y-68580000D02*
X123675000Y-66330000D01*
%TO.N,Kbd_15*%
X150820000Y-83622000D02*
X150876000Y-83566000D01*
%TO.N,Kbd_01*%
X139065000Y-72390000D02*
X139700000Y-71755000D01*
X139700000Y-71755000D02*
X143891000Y-71755000D01*
X143891000Y-71755000D02*
X144935000Y-72771000D01*
X144935000Y-72771000D02*
X144935000Y-74577500D01*
%TO.N,Kbd_03*%
X143510000Y-73406000D02*
X140970000Y-73406000D01*
X143935000Y-74577500D02*
X143935000Y-73831000D01*
X143935000Y-73831000D02*
X143510000Y-73406000D01*
%TO.N,Kbd_02*%
X144435000Y-73061000D02*
X144018000Y-72644000D01*
X144435000Y-74577500D02*
X144435000Y-73061000D01*
X144018000Y-72644000D02*
X140208000Y-72644000D01*
%TO.N,Kbd_12*%
X144820000Y-86720000D02*
X144820000Y-86420000D01*
%TO.N,Kbd_18*%
X153820000Y-81434188D02*
X152875812Y-80490000D01*
X152875812Y-80490000D02*
X150847500Y-80490000D01*
%TO.N,Net-(C1-Pad1)*%
X126365000Y-84910000D02*
X129720000Y-84910000D01*
X129720000Y-84910000D02*
X130810000Y-83820000D01*
%TO.N,Net-(C2-Pad1)*%
X126365000Y-80010000D02*
X130180000Y-80010000D01*
X130180000Y-80010000D02*
X130810000Y-79380000D01*
X121920000Y-79280000D02*
X122650000Y-80010000D01*
X122650000Y-80010000D02*
X126365000Y-80010000D01*
%TO.N,Net-(C1-Pad1)*%
X121920000Y-87540000D02*
X123735000Y-87540000D01*
X123735000Y-87540000D02*
X126365000Y-84910000D01*
%TO.N,RESET*%
X117500000Y-71120000D02*
X123385000Y-71120000D01*
X123385000Y-71120000D02*
X123675000Y-70830000D01*
X123675000Y-70830000D02*
X130175000Y-70830000D01*
X137160000Y-73025000D02*
X134965000Y-70830000D01*
X134965000Y-70830000D02*
X130175000Y-70830000D01*
%TO.N,+3.3V*%
X149435000Y-74577500D02*
X150847500Y-75990000D01*
X156210000Y-75100000D02*
X159385000Y-75100000D01*
X150847500Y-75990000D02*
X155320000Y-75990000D01*
X155320000Y-75990000D02*
X156210000Y-75100000D01*
X133350000Y-81835000D02*
X135890000Y-81835000D01*
D30*
X121285000Y-74930000D02*
X133815000Y-74930000D01*
D31*
X133815000Y-74930000D02*
X133985000Y-75100000D01*
%TD*%
%TA.AperFunction,Conductor*%
%TO.N,GND*%
G36*
X122312027Y-64282002D02*
G01*
X122358520Y-64335658D01*
X122368624Y-64405932D01*
X122339130Y-64470512D01*
X122333001Y-64477095D01*
X120170500Y-66639595D01*
X120108188Y-66673621D01*
X120081405Y-66676500D01*
X118634500Y-66676500D01*
X118566379Y-66656498D01*
X118519886Y-66602842D01*
X118508500Y-66550500D01*
X118508500Y-65491866D01*
X118501745Y-65429684D01*
X118450615Y-65293295D01*
X118363261Y-65176739D01*
X118246705Y-65089385D01*
X118110316Y-65038255D01*
X118048134Y-65031500D01*
X116951866Y-65031500D01*
X116889684Y-65038255D01*
X116753295Y-65089385D01*
X116636739Y-65176739D01*
X116549385Y-65293295D01*
X116546233Y-65301703D01*
X116546231Y-65301707D01*
X116537599Y-65324731D01*
X116494957Y-65381495D01*
X116428395Y-65406194D01*
X116419618Y-65406500D01*
X116283768Y-65406500D01*
X116272585Y-65405973D01*
X116265092Y-65404298D01*
X116257166Y-65404547D01*
X116257165Y-65404547D01*
X116197002Y-65406438D01*
X116193044Y-65406500D01*
X116165144Y-65406500D01*
X116161154Y-65407004D01*
X116149320Y-65407936D01*
X116105111Y-65409326D01*
X116097497Y-65411538D01*
X116097492Y-65411539D01*
X116085659Y-65414977D01*
X116066296Y-65418988D01*
X116046203Y-65421526D01*
X116038836Y-65424443D01*
X116038831Y-65424444D01*
X116005092Y-65437802D01*
X115993865Y-65441646D01*
X115951407Y-65453982D01*
X115944581Y-65458019D01*
X115933972Y-65464293D01*
X115916224Y-65472988D01*
X115897383Y-65480448D01*
X115890967Y-65485110D01*
X115890966Y-65485110D01*
X115861613Y-65506436D01*
X115851693Y-65512952D01*
X115820465Y-65531420D01*
X115820462Y-65531422D01*
X115813638Y-65535458D01*
X115799317Y-65549779D01*
X115784284Y-65562619D01*
X115767893Y-65574528D01*
X115741516Y-65606413D01*
X115739712Y-65608593D01*
X115731722Y-65617374D01*
X115050742Y-66298353D01*
X115042463Y-66305887D01*
X115035982Y-66310000D01*
X114991984Y-66356854D01*
X114989357Y-66359651D01*
X114986602Y-66362493D01*
X114966865Y-66382230D01*
X114964385Y-66385427D01*
X114956682Y-66394447D01*
X114926414Y-66426679D01*
X114922595Y-66433625D01*
X114922593Y-66433628D01*
X114916652Y-66444434D01*
X114905801Y-66460953D01*
X114893386Y-66476959D01*
X114890241Y-66484228D01*
X114890238Y-66484232D01*
X114875826Y-66517537D01*
X114870609Y-66528187D01*
X114849305Y-66566940D01*
X114847334Y-66574615D01*
X114847334Y-66574616D01*
X114844267Y-66586562D01*
X114837863Y-66605266D01*
X114829819Y-66623855D01*
X114828580Y-66631678D01*
X114828577Y-66631688D01*
X114822901Y-66667524D01*
X114820495Y-66679144D01*
X114811472Y-66714289D01*
X114809500Y-66721970D01*
X114809500Y-66742224D01*
X114807949Y-66761934D01*
X114804780Y-66781943D01*
X114805526Y-66789835D01*
X114808941Y-66825961D01*
X114809500Y-66837819D01*
X114809500Y-74089233D01*
X114808973Y-74100416D01*
X114807298Y-74107909D01*
X114807547Y-74115835D01*
X114807547Y-74115836D01*
X114809438Y-74175986D01*
X114809500Y-74179945D01*
X114809500Y-74207856D01*
X114809997Y-74211790D01*
X114809997Y-74211791D01*
X114810005Y-74211856D01*
X114810938Y-74223693D01*
X114812327Y-74267889D01*
X114817978Y-74287339D01*
X114821987Y-74306700D01*
X114824526Y-74326797D01*
X114827445Y-74334168D01*
X114827445Y-74334170D01*
X114840804Y-74367912D01*
X114844649Y-74379142D01*
X114856982Y-74421593D01*
X114861015Y-74428412D01*
X114861017Y-74428417D01*
X114867293Y-74439028D01*
X114875988Y-74456776D01*
X114883448Y-74475617D01*
X114888110Y-74482033D01*
X114888110Y-74482034D01*
X114909436Y-74511387D01*
X114915952Y-74521307D01*
X114938458Y-74559362D01*
X114952779Y-74573683D01*
X114965619Y-74588716D01*
X114977528Y-74605107D01*
X114983633Y-74610158D01*
X114983638Y-74610163D01*
X115011604Y-74633299D01*
X115020382Y-74641287D01*
X115828348Y-75449253D01*
X115835888Y-75457539D01*
X115840000Y-75464018D01*
X115845777Y-75469443D01*
X115889651Y-75510643D01*
X115892493Y-75513398D01*
X115912230Y-75533135D01*
X115915427Y-75535615D01*
X115924447Y-75543318D01*
X115956679Y-75573586D01*
X115963625Y-75577405D01*
X115963628Y-75577407D01*
X115974434Y-75583348D01*
X115990953Y-75594199D01*
X116006959Y-75606614D01*
X116014228Y-75609759D01*
X116014232Y-75609762D01*
X116047537Y-75624174D01*
X116058187Y-75629391D01*
X116096940Y-75650695D01*
X116104615Y-75652666D01*
X116104616Y-75652666D01*
X116116562Y-75655733D01*
X116135267Y-75662137D01*
X116153855Y-75670181D01*
X116161678Y-75671420D01*
X116161688Y-75671423D01*
X116197524Y-75677099D01*
X116209144Y-75679505D01*
X116244289Y-75688528D01*
X116251970Y-75690500D01*
X116272224Y-75690500D01*
X116291934Y-75692051D01*
X116311943Y-75695220D01*
X116319835Y-75694474D01*
X116355961Y-75691059D01*
X116367819Y-75690500D01*
X119326151Y-75690500D01*
X119394272Y-75710502D01*
X119440765Y-75764158D01*
X119450869Y-75834432D01*
X119441787Y-75866542D01*
X119425345Y-75904536D01*
X119420124Y-75915195D01*
X119397876Y-75955663D01*
X119392541Y-75976441D01*
X119386142Y-75995131D01*
X119377620Y-76014824D01*
X119370687Y-76058596D01*
X119370394Y-76060448D01*
X119367987Y-76072071D01*
X119366063Y-76079565D01*
X119356500Y-76116812D01*
X119356500Y-76138259D01*
X119354949Y-76157969D01*
X119351594Y-76179152D01*
X119355803Y-76223673D01*
X119355941Y-76225138D01*
X119356500Y-76236996D01*
X119356500Y-79360050D01*
X119336498Y-79428171D01*
X119319595Y-79449146D01*
X119009435Y-79759305D01*
X118947123Y-79793330D01*
X118876307Y-79788265D01*
X118819472Y-79745718D01*
X118798136Y-79700905D01*
X118786341Y-79653947D01*
X118765431Y-79570702D01*
X118676354Y-79365840D01*
X118631010Y-79295749D01*
X118557822Y-79182617D01*
X118557820Y-79182614D01*
X118555014Y-79178277D01*
X118551540Y-79174459D01*
X118551533Y-79174450D01*
X118407435Y-79016088D01*
X118376383Y-78952242D01*
X118384779Y-78881744D01*
X118429956Y-78826976D01*
X118456400Y-78813307D01*
X118563052Y-78773325D01*
X118578649Y-78764786D01*
X118680724Y-78688285D01*
X118693285Y-78675724D01*
X118769786Y-78573649D01*
X118778324Y-78558054D01*
X118823478Y-78437606D01*
X118827105Y-78422351D01*
X118832631Y-78371486D01*
X118833000Y-78364672D01*
X118833000Y-77742115D01*
X118828525Y-77726876D01*
X118827135Y-77725671D01*
X118819452Y-77724000D01*
X116135116Y-77724000D01*
X116119877Y-77728475D01*
X116118672Y-77729865D01*
X116117001Y-77737548D01*
X116117001Y-78364669D01*
X116117371Y-78371490D01*
X116122895Y-78422352D01*
X116126521Y-78437604D01*
X116171676Y-78558054D01*
X116180214Y-78573649D01*
X116256715Y-78675724D01*
X116269276Y-78688285D01*
X116371351Y-78764786D01*
X116386946Y-78773324D01*
X116495827Y-78814142D01*
X116552591Y-78856784D01*
X116577291Y-78923345D01*
X116562083Y-78992694D01*
X116542691Y-79019175D01*
X116454410Y-79111556D01*
X116415629Y-79152138D01*
X116412715Y-79156410D01*
X116412714Y-79156411D01*
X116349026Y-79249774D01*
X116289743Y-79336680D01*
X116242715Y-79437993D01*
X116203953Y-79521500D01*
X116195688Y-79539305D01*
X116135989Y-79754570D01*
X116112251Y-79976695D01*
X116112548Y-79981848D01*
X116112548Y-79981851D01*
X116121858Y-80143315D01*
X116125110Y-80199715D01*
X116126247Y-80204761D01*
X116126248Y-80204767D01*
X116137469Y-80254556D01*
X116174222Y-80417639D01*
X116229121Y-80552841D01*
X116251817Y-80608733D01*
X116258266Y-80624616D01*
X116272731Y-80648220D01*
X116371394Y-80809224D01*
X116374987Y-80815088D01*
X116521250Y-80983938D01*
X116693126Y-81126632D01*
X116721996Y-81143502D01*
X116766445Y-81169476D01*
X116815169Y-81221114D01*
X116828240Y-81290897D01*
X116801509Y-81356669D01*
X116761055Y-81390027D01*
X116748607Y-81396507D01*
X116744474Y-81399610D01*
X116744471Y-81399612D01*
X116574100Y-81527530D01*
X116569965Y-81530635D01*
X116415629Y-81692138D01*
X116289743Y-81876680D01*
X116195688Y-82079305D01*
X116135989Y-82294570D01*
X116112251Y-82516695D01*
X116112548Y-82521848D01*
X116112548Y-82521851D01*
X116122503Y-82694498D01*
X116125110Y-82739715D01*
X116126247Y-82744761D01*
X116126248Y-82744767D01*
X116143201Y-82819991D01*
X116174222Y-82957639D01*
X116221240Y-83073432D01*
X116248690Y-83141032D01*
X116258266Y-83164616D01*
X116285158Y-83208500D01*
X116350565Y-83315234D01*
X116374987Y-83355088D01*
X116521250Y-83523938D01*
X116644787Y-83626500D01*
X116674930Y-83651525D01*
X116693126Y-83666632D01*
X116704864Y-83673491D01*
X116766445Y-83709476D01*
X116815169Y-83761114D01*
X116828240Y-83830897D01*
X116801509Y-83896669D01*
X116761055Y-83930027D01*
X116748607Y-83936507D01*
X116744474Y-83939610D01*
X116744471Y-83939612D01*
X116574100Y-84067530D01*
X116569965Y-84070635D01*
X116566393Y-84074373D01*
X116475139Y-84169865D01*
X116415629Y-84232138D01*
X116412715Y-84236410D01*
X116412714Y-84236411D01*
X116359742Y-84314065D01*
X116289743Y-84416680D01*
X116274003Y-84450590D01*
X116221789Y-84563076D01*
X116195688Y-84619305D01*
X116135989Y-84834570D01*
X116112251Y-85056695D01*
X116112548Y-85061848D01*
X116112548Y-85061851D01*
X116120438Y-85198690D01*
X116125110Y-85279715D01*
X116126247Y-85284761D01*
X116126248Y-85284767D01*
X116144980Y-85367885D01*
X116174222Y-85497639D01*
X116231898Y-85639679D01*
X116256189Y-85699500D01*
X116258266Y-85704616D01*
X116282339Y-85743899D01*
X116366298Y-85880908D01*
X116374987Y-85895088D01*
X116521250Y-86063938D01*
X116693126Y-86206632D01*
X116713876Y-86218757D01*
X116766445Y-86249476D01*
X116815169Y-86301114D01*
X116828240Y-86370897D01*
X116801509Y-86436669D01*
X116761055Y-86470027D01*
X116748607Y-86476507D01*
X116744474Y-86479610D01*
X116744471Y-86479612D01*
X116574100Y-86607530D01*
X116569965Y-86610635D01*
X116551605Y-86629848D01*
X116492668Y-86691522D01*
X116415629Y-86772138D01*
X116412715Y-86776410D01*
X116412714Y-86776411D01*
X116388766Y-86811517D01*
X116289743Y-86956680D01*
X116274003Y-86990590D01*
X116209936Y-87128611D01*
X116195688Y-87159305D01*
X116135989Y-87374570D01*
X116112251Y-87596695D01*
X116112548Y-87601848D01*
X116112548Y-87601851D01*
X116119159Y-87716500D01*
X116125110Y-87819715D01*
X116126247Y-87824761D01*
X116126248Y-87824767D01*
X116158453Y-87967668D01*
X116153917Y-88038520D01*
X116124631Y-88084464D01*
X115907747Y-88301348D01*
X115899461Y-88308888D01*
X115892982Y-88313000D01*
X115887557Y-88318777D01*
X115846357Y-88362651D01*
X115843602Y-88365493D01*
X115823865Y-88385230D01*
X115821385Y-88388427D01*
X115813682Y-88397447D01*
X115783414Y-88429679D01*
X115779595Y-88436625D01*
X115779593Y-88436628D01*
X115773652Y-88447434D01*
X115762801Y-88463953D01*
X115750386Y-88479959D01*
X115747241Y-88487228D01*
X115747238Y-88487232D01*
X115732826Y-88520537D01*
X115727609Y-88531187D01*
X115706305Y-88569940D01*
X115704334Y-88577615D01*
X115704334Y-88577616D01*
X115701267Y-88589562D01*
X115694863Y-88608266D01*
X115686819Y-88626855D01*
X115685580Y-88634678D01*
X115685577Y-88634688D01*
X115679901Y-88670524D01*
X115677495Y-88682144D01*
X115668472Y-88717289D01*
X115666500Y-88724970D01*
X115666500Y-88745224D01*
X115664949Y-88764934D01*
X115661780Y-88784943D01*
X115662526Y-88792835D01*
X115665941Y-88828961D01*
X115666500Y-88840819D01*
X115666500Y-91329233D01*
X115665973Y-91340416D01*
X115664298Y-91347909D01*
X115664547Y-91355835D01*
X115664547Y-91355836D01*
X115666438Y-91415986D01*
X115666500Y-91419945D01*
X115666500Y-91447856D01*
X115666997Y-91451790D01*
X115666997Y-91451791D01*
X115667005Y-91451856D01*
X115667938Y-91463693D01*
X115669327Y-91507889D01*
X115674978Y-91527339D01*
X115678987Y-91546700D01*
X115680359Y-91557556D01*
X115681526Y-91566797D01*
X115684445Y-91574168D01*
X115684445Y-91574170D01*
X115697804Y-91607912D01*
X115701649Y-91619142D01*
X115704783Y-91629928D01*
X115713982Y-91661593D01*
X115718015Y-91668412D01*
X115718017Y-91668417D01*
X115724293Y-91679028D01*
X115732988Y-91696776D01*
X115740448Y-91715617D01*
X115745110Y-91722033D01*
X115745110Y-91722034D01*
X115766436Y-91751387D01*
X115772952Y-91761307D01*
X115795458Y-91799362D01*
X115809782Y-91813686D01*
X115822617Y-91828713D01*
X115834528Y-91845107D01*
X115858413Y-91864866D01*
X115860348Y-91866467D01*
X115866286Y-91871702D01*
X115889654Y-91893646D01*
X115892496Y-91896401D01*
X115912230Y-91916135D01*
X115915427Y-91918615D01*
X115924447Y-91926318D01*
X115956679Y-91956586D01*
X115963625Y-91960405D01*
X115963628Y-91960407D01*
X115974434Y-91966348D01*
X115990953Y-91977199D01*
X116006959Y-91989614D01*
X116014228Y-91992759D01*
X116014232Y-91992762D01*
X116047537Y-92007174D01*
X116058187Y-92012391D01*
X116096940Y-92033695D01*
X116104615Y-92035666D01*
X116104616Y-92035666D01*
X116116562Y-92038733D01*
X116135267Y-92045137D01*
X116153855Y-92053181D01*
X116161678Y-92054420D01*
X116161688Y-92054423D01*
X116197524Y-92060099D01*
X116209144Y-92062505D01*
X116240959Y-92070673D01*
X116251970Y-92073500D01*
X116272224Y-92073500D01*
X116291934Y-92075051D01*
X116311943Y-92078220D01*
X116319835Y-92077474D01*
X116338580Y-92075702D01*
X116355962Y-92074059D01*
X116367819Y-92073500D01*
X118539233Y-92073500D01*
X118550416Y-92074027D01*
X118557909Y-92075702D01*
X118565835Y-92075453D01*
X118565836Y-92075453D01*
X118625986Y-92073562D01*
X118629945Y-92073500D01*
X118657856Y-92073500D01*
X118661791Y-92073003D01*
X118661856Y-92072995D01*
X118673693Y-92072062D01*
X118705951Y-92071048D01*
X118709970Y-92070922D01*
X118717889Y-92070673D01*
X118737343Y-92065021D01*
X118756700Y-92061013D01*
X118768930Y-92059468D01*
X118768931Y-92059468D01*
X118776797Y-92058474D01*
X118784168Y-92055555D01*
X118784170Y-92055555D01*
X118817912Y-92042196D01*
X118829142Y-92038351D01*
X118863983Y-92028229D01*
X118863984Y-92028229D01*
X118871593Y-92026018D01*
X118878412Y-92021985D01*
X118878417Y-92021983D01*
X118889028Y-92015707D01*
X118906776Y-92007012D01*
X118925617Y-91999552D01*
X118961387Y-91973564D01*
X118971307Y-91967048D01*
X119002535Y-91948580D01*
X119002538Y-91948578D01*
X119009362Y-91944542D01*
X119023683Y-91930221D01*
X119038717Y-91917380D01*
X119048694Y-91910131D01*
X119055107Y-91905472D01*
X119083298Y-91871395D01*
X119091288Y-91862616D01*
X119292490Y-91661414D01*
X119354802Y-91627388D01*
X119425617Y-91632453D01*
X119455646Y-91648573D01*
X119550143Y-91717229D01*
X119558248Y-91723118D01*
X119564276Y-91725802D01*
X119564278Y-91725803D01*
X119644022Y-91761307D01*
X119732712Y-91800794D01*
X119826112Y-91820647D01*
X119913056Y-91839128D01*
X119913061Y-91839128D01*
X119919513Y-91840500D01*
X120110487Y-91840500D01*
X120116939Y-91839128D01*
X120116944Y-91839128D01*
X120203887Y-91820647D01*
X120297288Y-91800794D01*
X120385978Y-91761307D01*
X120465722Y-91725803D01*
X120465724Y-91725802D01*
X120471752Y-91723118D01*
X120479858Y-91717229D01*
X120547041Y-91668417D01*
X120626253Y-91610866D01*
X120649091Y-91585502D01*
X120749621Y-91473852D01*
X120749622Y-91473851D01*
X120754040Y-91468944D01*
X120849527Y-91303556D01*
X120908542Y-91121928D01*
X120911551Y-91093305D01*
X120927814Y-90938565D01*
X120928504Y-90932000D01*
X120915547Y-90808721D01*
X120909232Y-90748635D01*
X120909232Y-90748633D01*
X120908542Y-90742072D01*
X120849527Y-90560444D01*
X120807124Y-90487000D01*
X120790386Y-90418005D01*
X120807124Y-90361000D01*
X120846223Y-90293279D01*
X120846224Y-90293278D01*
X120849527Y-90287556D01*
X120908542Y-90105928D01*
X120928504Y-89916000D01*
X120913317Y-89771502D01*
X120909232Y-89732635D01*
X120909232Y-89732633D01*
X120908542Y-89726072D01*
X120849527Y-89544444D01*
X120845228Y-89536997D01*
X120808568Y-89473501D01*
X120754040Y-89379056D01*
X120746036Y-89370166D01*
X120630675Y-89242045D01*
X120630674Y-89242044D01*
X120626253Y-89237134D01*
X120511829Y-89154000D01*
X120477094Y-89128763D01*
X120477093Y-89128762D01*
X120471752Y-89124882D01*
X120465724Y-89122198D01*
X120465722Y-89122197D01*
X120303319Y-89049891D01*
X120303318Y-89049891D01*
X120297288Y-89047206D01*
X120195170Y-89025500D01*
X120116944Y-89008872D01*
X120116939Y-89008872D01*
X120110487Y-89007500D01*
X119919513Y-89007500D01*
X119913061Y-89008872D01*
X119913056Y-89008872D01*
X119834830Y-89025500D01*
X119732712Y-89047206D01*
X119726682Y-89049891D01*
X119726681Y-89049891D01*
X119564278Y-89122197D01*
X119564276Y-89122198D01*
X119558248Y-89124882D01*
X119552907Y-89128762D01*
X119552906Y-89128763D01*
X119518171Y-89154000D01*
X119403747Y-89237134D01*
X119399326Y-89242044D01*
X119399325Y-89242045D01*
X119283965Y-89370166D01*
X119275960Y-89379056D01*
X119221432Y-89473501D01*
X119170049Y-89522494D01*
X119112313Y-89536500D01*
X118751805Y-89536500D01*
X118683684Y-89516498D01*
X118646013Y-89478940D01*
X118557822Y-89342617D01*
X118557820Y-89342614D01*
X118555014Y-89338277D01*
X118404670Y-89173051D01*
X118400619Y-89169852D01*
X118400615Y-89169848D01*
X118233414Y-89037800D01*
X118233410Y-89037798D01*
X118229359Y-89034598D01*
X118188053Y-89011796D01*
X118138084Y-88961364D01*
X118123312Y-88891921D01*
X118148428Y-88825516D01*
X118175780Y-88798909D01*
X118248196Y-88747255D01*
X118354860Y-88671173D01*
X118513096Y-88513489D01*
X118518294Y-88506256D01*
X118640435Y-88336277D01*
X118643453Y-88332077D01*
X118650027Y-88318777D01*
X118740136Y-88136453D01*
X118740137Y-88136451D01*
X118742430Y-88131811D01*
X118798254Y-87948072D01*
X118805865Y-87923023D01*
X118805865Y-87923021D01*
X118807370Y-87918069D01*
X118836529Y-87696590D01*
X118836879Y-87682253D01*
X118838074Y-87633365D01*
X118838074Y-87633361D01*
X118838156Y-87630000D01*
X118819852Y-87407361D01*
X118765431Y-87190702D01*
X118676354Y-86985840D01*
X118586407Y-86846803D01*
X118557822Y-86802617D01*
X118557820Y-86802614D01*
X118555014Y-86798277D01*
X118404670Y-86633051D01*
X118400619Y-86629852D01*
X118400615Y-86629848D01*
X118233414Y-86497800D01*
X118233410Y-86497798D01*
X118229359Y-86494598D01*
X118188053Y-86471796D01*
X118138084Y-86421364D01*
X118123312Y-86351921D01*
X118148428Y-86285516D01*
X118175780Y-86258909D01*
X118232071Y-86218757D01*
X118354860Y-86131173D01*
X118513096Y-85973489D01*
X118557198Y-85912115D01*
X118640435Y-85796277D01*
X118643453Y-85792077D01*
X118660769Y-85757042D01*
X118740136Y-85596453D01*
X118740137Y-85596451D01*
X118742430Y-85591811D01*
X118800640Y-85400221D01*
X118805865Y-85383023D01*
X118805865Y-85383021D01*
X118807370Y-85378069D01*
X118808711Y-85367885D01*
X120687000Y-85367885D01*
X120691475Y-85383124D01*
X120692865Y-85384329D01*
X120700548Y-85386000D01*
X121647885Y-85386000D01*
X121663124Y-85381525D01*
X121664329Y-85380135D01*
X121666000Y-85372452D01*
X121666000Y-85367885D01*
X122174000Y-85367885D01*
X122178475Y-85383124D01*
X122179865Y-85384329D01*
X122187548Y-85386000D01*
X123134884Y-85386000D01*
X123150123Y-85381525D01*
X123151328Y-85380135D01*
X123152999Y-85372452D01*
X123152999Y-85342905D01*
X123152662Y-85336386D01*
X123142743Y-85240794D01*
X123139851Y-85227400D01*
X123088412Y-85073216D01*
X123082239Y-85060038D01*
X122996937Y-84922193D01*
X122987901Y-84910792D01*
X122873171Y-84796261D01*
X122861760Y-84787249D01*
X122723757Y-84702184D01*
X122710576Y-84696037D01*
X122556290Y-84644862D01*
X122542914Y-84641995D01*
X122448562Y-84632328D01*
X122442145Y-84632000D01*
X122192115Y-84632000D01*
X122176876Y-84636475D01*
X122175671Y-84637865D01*
X122174000Y-84645548D01*
X122174000Y-85367885D01*
X121666000Y-85367885D01*
X121666000Y-84650116D01*
X121661525Y-84634877D01*
X121660135Y-84633672D01*
X121652452Y-84632001D01*
X121397905Y-84632001D01*
X121391386Y-84632338D01*
X121295794Y-84642257D01*
X121282400Y-84645149D01*
X121128216Y-84696588D01*
X121115038Y-84702761D01*
X120977193Y-84788063D01*
X120965792Y-84797099D01*
X120851261Y-84911829D01*
X120842249Y-84923240D01*
X120757184Y-85061243D01*
X120751037Y-85074424D01*
X120699862Y-85228710D01*
X120696995Y-85242086D01*
X120687328Y-85336438D01*
X120687000Y-85342855D01*
X120687000Y-85367885D01*
X118808711Y-85367885D01*
X118836529Y-85156590D01*
X118837328Y-85123892D01*
X118838074Y-85093365D01*
X118838074Y-85093361D01*
X118838156Y-85090000D01*
X118819852Y-84867361D01*
X118765431Y-84650702D01*
X118676354Y-84445840D01*
X118636906Y-84384862D01*
X118557822Y-84262617D01*
X118557820Y-84262614D01*
X118555014Y-84258277D01*
X118404670Y-84093051D01*
X118400619Y-84089852D01*
X118400615Y-84089848D01*
X118233414Y-83957800D01*
X118233410Y-83957798D01*
X118229359Y-83954598D01*
X118188053Y-83931796D01*
X118138084Y-83881364D01*
X118123312Y-83811921D01*
X118148428Y-83745516D01*
X118175780Y-83718909D01*
X118239454Y-83673491D01*
X118354860Y-83591173D01*
X118513096Y-83433489D01*
X118572594Y-83350689D01*
X118635627Y-83262968D01*
X118691622Y-83219320D01*
X118730038Y-83210743D01*
X118756302Y-83209091D01*
X118761736Y-83208749D01*
X118769647Y-83208500D01*
X118786432Y-83208500D01*
X118803090Y-83206396D01*
X118810966Y-83205652D01*
X118861461Y-83202475D01*
X118861463Y-83202475D01*
X118869371Y-83201977D01*
X118877951Y-83199189D01*
X118901105Y-83194014D01*
X118902203Y-83193875D01*
X118910064Y-83192882D01*
X118917429Y-83189966D01*
X118917433Y-83189965D01*
X118964506Y-83171327D01*
X118971956Y-83168645D01*
X119020061Y-83153015D01*
X119020062Y-83153015D01*
X119027604Y-83150564D01*
X119034298Y-83146316D01*
X119034304Y-83146313D01*
X119035232Y-83145724D01*
X119056355Y-83134961D01*
X119064756Y-83131635D01*
X119112116Y-83097226D01*
X119118663Y-83092777D01*
X119124773Y-83088899D01*
X119168080Y-83061416D01*
X119174268Y-83054827D01*
X119192051Y-83039149D01*
X119199357Y-83033841D01*
X119230086Y-82996697D01*
X119236665Y-82988745D01*
X119241896Y-82982811D01*
X119276547Y-82945910D01*
X119281972Y-82940133D01*
X119285788Y-82933191D01*
X119285792Y-82933186D01*
X119286325Y-82932216D01*
X119299652Y-82912605D01*
X119300356Y-82911754D01*
X119305409Y-82905646D01*
X119330331Y-82852685D01*
X119333924Y-82845633D01*
X119358304Y-82801286D01*
X119358305Y-82801285D01*
X119362124Y-82794337D01*
X119364370Y-82785590D01*
X119372403Y-82763278D01*
X119372873Y-82762280D01*
X119372874Y-82762277D01*
X119376249Y-82755105D01*
X119387219Y-82697596D01*
X119388945Y-82689875D01*
X119396905Y-82658872D01*
X119403500Y-82633188D01*
X119403500Y-82624155D01*
X119405732Y-82600546D01*
X119405939Y-82599462D01*
X119405939Y-82599460D01*
X119407424Y-82591676D01*
X119403749Y-82533264D01*
X119403500Y-82525353D01*
X119403500Y-81279950D01*
X119423502Y-81211829D01*
X119440405Y-81190855D01*
X120422605Y-80208655D01*
X120431385Y-80200665D01*
X120431387Y-80200663D01*
X120438080Y-80196416D01*
X120462313Y-80170611D01*
X120486604Y-80144743D01*
X120489359Y-80141901D01*
X120509927Y-80121333D01*
X120512647Y-80117826D01*
X120520353Y-80108804D01*
X120546546Y-80080911D01*
X120551972Y-80075133D01*
X120555790Y-80068188D01*
X120555793Y-80068184D01*
X120562300Y-80056347D01*
X120573157Y-80039818D01*
X120581446Y-80029132D01*
X120586304Y-80022869D01*
X120602287Y-79985935D01*
X120647696Y-79931364D01*
X120715403Y-79910004D01*
X120783910Y-79928641D01*
X120825065Y-79969674D01*
X120846522Y-80004348D01*
X120971697Y-80129305D01*
X120977927Y-80133145D01*
X120977928Y-80133146D01*
X121114490Y-80217324D01*
X121122262Y-80222115D01*
X121176184Y-80240000D01*
X121283611Y-80275632D01*
X121283613Y-80275632D01*
X121290139Y-80277797D01*
X121296975Y-80278497D01*
X121296978Y-80278498D01*
X121340031Y-80282909D01*
X121394600Y-80288500D01*
X121980405Y-80288500D01*
X122048526Y-80308502D01*
X122069500Y-80325405D01*
X122146348Y-80402253D01*
X122153888Y-80410539D01*
X122158000Y-80417018D01*
X122163777Y-80422443D01*
X122207651Y-80463643D01*
X122210493Y-80466398D01*
X122230230Y-80486135D01*
X122233427Y-80488615D01*
X122242447Y-80496318D01*
X122274679Y-80526586D01*
X122281625Y-80530405D01*
X122281628Y-80530407D01*
X122292434Y-80536348D01*
X122308953Y-80547199D01*
X122324959Y-80559614D01*
X122332228Y-80562759D01*
X122332232Y-80562762D01*
X122365537Y-80577174D01*
X122376187Y-80582391D01*
X122414940Y-80603695D01*
X122422615Y-80605666D01*
X122422616Y-80605666D01*
X122434562Y-80608733D01*
X122453267Y-80615137D01*
X122471855Y-80623181D01*
X122479678Y-80624420D01*
X122479688Y-80624423D01*
X122515524Y-80630099D01*
X122527144Y-80632505D01*
X122558959Y-80640673D01*
X122569970Y-80643500D01*
X122590224Y-80643500D01*
X122609934Y-80645051D01*
X122629943Y-80648220D01*
X122637835Y-80647474D01*
X122673961Y-80644059D01*
X122685819Y-80643500D01*
X125206646Y-80643500D01*
X125274767Y-80663502D01*
X125309858Y-80697228D01*
X125348117Y-80751868D01*
X125392385Y-80815088D01*
X125397251Y-80822038D01*
X125552962Y-80977749D01*
X125557471Y-80980906D01*
X125557473Y-80980908D01*
X125592874Y-81005696D01*
X125733346Y-81104056D01*
X125932924Y-81197120D01*
X126145629Y-81254115D01*
X126365000Y-81273307D01*
X126584371Y-81254115D01*
X126797076Y-81197120D01*
X126996654Y-81104056D01*
X127137126Y-81005696D01*
X127172527Y-80980908D01*
X127172529Y-80980906D01*
X127177038Y-80977749D01*
X127332749Y-80822038D01*
X127337616Y-80815088D01*
X127381883Y-80751868D01*
X127420142Y-80697228D01*
X127475598Y-80652901D01*
X127523354Y-80643500D01*
X129812886Y-80643500D01*
X129881007Y-80663502D01*
X129927500Y-80717158D01*
X129937604Y-80787432D01*
X129908110Y-80852012D01*
X129891523Y-80867889D01*
X129885652Y-80871522D01*
X129760695Y-80996697D01*
X129756855Y-81002927D01*
X129756854Y-81002928D01*
X129675958Y-81134166D01*
X129667885Y-81147262D01*
X129649895Y-81201500D01*
X129615023Y-81306638D01*
X129612203Y-81315139D01*
X129611503Y-81321975D01*
X129611502Y-81321978D01*
X129608093Y-81355255D01*
X129601500Y-81419600D01*
X129601500Y-82220400D01*
X129601837Y-82223646D01*
X129601837Y-82223650D01*
X129611225Y-82314127D01*
X129612474Y-82326166D01*
X129614655Y-82332702D01*
X129614655Y-82332704D01*
X129622738Y-82356930D01*
X129668450Y-82493946D01*
X129761522Y-82644348D01*
X129811760Y-82694498D01*
X129848109Y-82730784D01*
X129882188Y-82793066D01*
X129877185Y-82863886D01*
X129848264Y-82908975D01*
X129807808Y-82949502D01*
X129760695Y-82996697D01*
X129756855Y-83002927D01*
X129756854Y-83002928D01*
X129677518Y-83131635D01*
X129667885Y-83147262D01*
X129648518Y-83205652D01*
X129636284Y-83242538D01*
X129612203Y-83315139D01*
X129611503Y-83321975D01*
X129611502Y-83321978D01*
X129608446Y-83351807D01*
X129601500Y-83419600D01*
X129601500Y-84080405D01*
X129581498Y-84148526D01*
X129564595Y-84169500D01*
X129494500Y-84239595D01*
X129432188Y-84273621D01*
X129405405Y-84276500D01*
X127523354Y-84276500D01*
X127455233Y-84256498D01*
X127420141Y-84222771D01*
X127382841Y-84169500D01*
X127368154Y-84148526D01*
X127335908Y-84102473D01*
X127335906Y-84102470D01*
X127332749Y-84097962D01*
X127177038Y-83942251D01*
X127166879Y-83935137D01*
X127075277Y-83870997D01*
X126996654Y-83815944D01*
X126797076Y-83722880D01*
X126584371Y-83665885D01*
X126365000Y-83646693D01*
X126145629Y-83665885D01*
X125932924Y-83722880D01*
X125884381Y-83745516D01*
X125738334Y-83813618D01*
X125738329Y-83813621D01*
X125733347Y-83815944D01*
X125728840Y-83819100D01*
X125728838Y-83819101D01*
X125557473Y-83939092D01*
X125557470Y-83939094D01*
X125552962Y-83942251D01*
X125397251Y-84097962D01*
X125394094Y-84102470D01*
X125394092Y-84102473D01*
X125290765Y-84250039D01*
X125270944Y-84278347D01*
X125268621Y-84283329D01*
X125268618Y-84283334D01*
X125232071Y-84361711D01*
X125177880Y-84477924D01*
X125120885Y-84690629D01*
X125101693Y-84910000D01*
X125120885Y-85129371D01*
X125122309Y-85134685D01*
X125129284Y-85160717D01*
X125127594Y-85231694D01*
X125096672Y-85282423D01*
X123509500Y-86869595D01*
X123447188Y-86903621D01*
X123420405Y-86906500D01*
X123119899Y-86906500D01*
X123051778Y-86886498D01*
X123012755Y-86846803D01*
X122997332Y-86821880D01*
X122993478Y-86815652D01*
X122868303Y-86690695D01*
X122863765Y-86687898D01*
X122823176Y-86630647D01*
X122819946Y-86559724D01*
X122855572Y-86498313D01*
X122864068Y-86490938D01*
X122874207Y-86482902D01*
X122988739Y-86368171D01*
X122997751Y-86356760D01*
X123082816Y-86218757D01*
X123088963Y-86205576D01*
X123140138Y-86051290D01*
X123143005Y-86037914D01*
X123152672Y-85943562D01*
X123153000Y-85937146D01*
X123153000Y-85912115D01*
X123148525Y-85896876D01*
X123147135Y-85895671D01*
X123139452Y-85894000D01*
X120705116Y-85894000D01*
X120689877Y-85898475D01*
X120688672Y-85899865D01*
X120687001Y-85907548D01*
X120687001Y-85937095D01*
X120687338Y-85943614D01*
X120697257Y-86039206D01*
X120700149Y-86052600D01*
X120751588Y-86206784D01*
X120757761Y-86219962D01*
X120843063Y-86357807D01*
X120852099Y-86369208D01*
X120966828Y-86483738D01*
X120975762Y-86490794D01*
X121016823Y-86548712D01*
X121020053Y-86619635D01*
X120984426Y-86681046D01*
X120976593Y-86687846D01*
X120970652Y-86691522D01*
X120845695Y-86816697D01*
X120752885Y-86967262D01*
X120697203Y-87135139D01*
X120686500Y-87239600D01*
X120686500Y-87840400D01*
X120686837Y-87843646D01*
X120686837Y-87843650D01*
X120695073Y-87923023D01*
X120697474Y-87946166D01*
X120699655Y-87952702D01*
X120699655Y-87952704D01*
X120704822Y-87968192D01*
X120753450Y-88113946D01*
X120846522Y-88264348D01*
X120971697Y-88389305D01*
X120977927Y-88393145D01*
X120977928Y-88393146D01*
X121115090Y-88477694D01*
X121122262Y-88482115D01*
X121183643Y-88502474D01*
X121283611Y-88535632D01*
X121283613Y-88535632D01*
X121290139Y-88537797D01*
X121296975Y-88538497D01*
X121296978Y-88538498D01*
X121340031Y-88542909D01*
X121394600Y-88548500D01*
X122445400Y-88548500D01*
X122448646Y-88548163D01*
X122448650Y-88548163D01*
X122544308Y-88538238D01*
X122544312Y-88538237D01*
X122551166Y-88537526D01*
X122557702Y-88535345D01*
X122557704Y-88535345D01*
X122705020Y-88486196D01*
X122718946Y-88481550D01*
X122869348Y-88388478D01*
X122994305Y-88263303D01*
X123012749Y-88233382D01*
X123065522Y-88185890D01*
X123120008Y-88173500D01*
X123656233Y-88173500D01*
X123667416Y-88174027D01*
X123674909Y-88175702D01*
X123682835Y-88175453D01*
X123682836Y-88175453D01*
X123742986Y-88173562D01*
X123746945Y-88173500D01*
X123774856Y-88173500D01*
X123778791Y-88173003D01*
X123778856Y-88172995D01*
X123790693Y-88172062D01*
X123822951Y-88171048D01*
X123826970Y-88170922D01*
X123834889Y-88170673D01*
X123854343Y-88165021D01*
X123873700Y-88161013D01*
X123885930Y-88159468D01*
X123885931Y-88159468D01*
X123893797Y-88158474D01*
X123901168Y-88155555D01*
X123901170Y-88155555D01*
X123934912Y-88142196D01*
X123946142Y-88138351D01*
X123980983Y-88128229D01*
X123980984Y-88128229D01*
X123988593Y-88126018D01*
X123995412Y-88121985D01*
X123995417Y-88121983D01*
X124006028Y-88115707D01*
X124023776Y-88107012D01*
X124042617Y-88099552D01*
X124051037Y-88093435D01*
X124078387Y-88073564D01*
X124088307Y-88067048D01*
X124119535Y-88048580D01*
X124119538Y-88048578D01*
X124126362Y-88044542D01*
X124140683Y-88030221D01*
X124155717Y-88017380D01*
X124165694Y-88010131D01*
X124172107Y-88005472D01*
X124200298Y-87971395D01*
X124208288Y-87962616D01*
X125992576Y-86178328D01*
X126054888Y-86144302D01*
X126114281Y-86145716D01*
X126140312Y-86152691D01*
X126140319Y-86152692D01*
X126145629Y-86154115D01*
X126365000Y-86173307D01*
X126584371Y-86154115D01*
X126797076Y-86097120D01*
X126996654Y-86004056D01*
X127134481Y-85907548D01*
X127172527Y-85880908D01*
X127172529Y-85880906D01*
X127177038Y-85877749D01*
X127332749Y-85722038D01*
X127341865Y-85709020D01*
X127389995Y-85640282D01*
X127420142Y-85597228D01*
X127475598Y-85552901D01*
X127523354Y-85543500D01*
X129641233Y-85543500D01*
X129652416Y-85544027D01*
X129659909Y-85545702D01*
X129667835Y-85545453D01*
X129667836Y-85545453D01*
X129727986Y-85543562D01*
X129731945Y-85543500D01*
X129759856Y-85543500D01*
X129763791Y-85543003D01*
X129763856Y-85542995D01*
X129775693Y-85542062D01*
X129807951Y-85541048D01*
X129811970Y-85540922D01*
X129819889Y-85540673D01*
X129839343Y-85535021D01*
X129858700Y-85531013D01*
X129870930Y-85529468D01*
X129870931Y-85529468D01*
X129878797Y-85528474D01*
X129886168Y-85525555D01*
X129886170Y-85525555D01*
X129919912Y-85512196D01*
X129931142Y-85508351D01*
X129965983Y-85498229D01*
X129965984Y-85498229D01*
X129973593Y-85496018D01*
X129980412Y-85491985D01*
X129980417Y-85491983D01*
X129991028Y-85485707D01*
X130008776Y-85477012D01*
X130027617Y-85469552D01*
X130063387Y-85443564D01*
X130073307Y-85437048D01*
X130104535Y-85418580D01*
X130104538Y-85418578D01*
X130111362Y-85414542D01*
X130125683Y-85400221D01*
X130140717Y-85387380D01*
X130157107Y-85375472D01*
X130185298Y-85341395D01*
X130193288Y-85332616D01*
X130560499Y-84965405D01*
X130622811Y-84931379D01*
X130649594Y-84928500D01*
X131310400Y-84928500D01*
X131313646Y-84928163D01*
X131313650Y-84928163D01*
X131409308Y-84918238D01*
X131409312Y-84918237D01*
X131416166Y-84917526D01*
X131422702Y-84915345D01*
X131422704Y-84915345D01*
X131576998Y-84863868D01*
X131583946Y-84861550D01*
X131734348Y-84768478D01*
X131859305Y-84643303D01*
X131944053Y-84505817D01*
X131996826Y-84458324D01*
X132066897Y-84446902D01*
X132132021Y-84475176D01*
X132170837Y-84532059D01*
X132181587Y-84564282D01*
X132187761Y-84577462D01*
X132273063Y-84715307D01*
X132282099Y-84726708D01*
X132396829Y-84841239D01*
X132408240Y-84850251D01*
X132546243Y-84935316D01*
X132559424Y-84941463D01*
X132713710Y-84992638D01*
X132727086Y-84995505D01*
X132821438Y-85005172D01*
X132827854Y-85005500D01*
X133077885Y-85005500D01*
X133093124Y-85001025D01*
X133094329Y-84999635D01*
X133096000Y-84991952D01*
X133096000Y-83782000D01*
X133116002Y-83713879D01*
X133169658Y-83667386D01*
X133222000Y-83656000D01*
X134564882Y-83656000D01*
X134578992Y-83651857D01*
X134641273Y-83649632D01*
X134670547Y-83656000D01*
X137104884Y-83656000D01*
X137120123Y-83651525D01*
X137121328Y-83650135D01*
X137122999Y-83642452D01*
X137122999Y-83525405D01*
X137122662Y-83518886D01*
X137112743Y-83423294D01*
X137109851Y-83409900D01*
X137058412Y-83255716D01*
X137052239Y-83242538D01*
X136966937Y-83104693D01*
X136957901Y-83093292D01*
X136843172Y-82978762D01*
X136834238Y-82971706D01*
X136793177Y-82913788D01*
X136789947Y-82842865D01*
X136825574Y-82781454D01*
X136833407Y-82774654D01*
X136839348Y-82770978D01*
X136964305Y-82645803D01*
X136973293Y-82631222D01*
X137053275Y-82501468D01*
X137053276Y-82501466D01*
X137057115Y-82495238D01*
X137102939Y-82357082D01*
X137110632Y-82333889D01*
X137110632Y-82333887D01*
X137112797Y-82327361D01*
X137113622Y-82319308D01*
X137123173Y-82226096D01*
X137123173Y-82226087D01*
X137123500Y-82222900D01*
X137123500Y-82219684D01*
X137123582Y-82218076D01*
X137147031Y-82151063D01*
X137202988Y-82107367D01*
X137249418Y-82098500D01*
X138046405Y-82098500D01*
X138114526Y-82118502D01*
X138135501Y-82135405D01*
X138688353Y-82688258D01*
X138695887Y-82696537D01*
X138700000Y-82703018D01*
X138739079Y-82739715D01*
X138749651Y-82749643D01*
X138752493Y-82752398D01*
X138772230Y-82772135D01*
X138775427Y-82774615D01*
X138784447Y-82782318D01*
X138816679Y-82812586D01*
X138823625Y-82816405D01*
X138823628Y-82816407D01*
X138834434Y-82822348D01*
X138850953Y-82833199D01*
X138866959Y-82845614D01*
X138874228Y-82848759D01*
X138874232Y-82848762D01*
X138907537Y-82863174D01*
X138918187Y-82868391D01*
X138956940Y-82889695D01*
X138964615Y-82891666D01*
X138964616Y-82891666D01*
X138976562Y-82894733D01*
X138995267Y-82901137D01*
X139013855Y-82909181D01*
X139021678Y-82910420D01*
X139021688Y-82910423D01*
X139057524Y-82916099D01*
X139069144Y-82918505D01*
X139104289Y-82927528D01*
X139111970Y-82929500D01*
X139132224Y-82929500D01*
X139151934Y-82931051D01*
X139171943Y-82934220D01*
X139179835Y-82933474D01*
X139215961Y-82930059D01*
X139227819Y-82929500D01*
X139898405Y-82929500D01*
X139966526Y-82949502D01*
X140013019Y-83003158D01*
X140023123Y-83073432D01*
X139993629Y-83138012D01*
X139987500Y-83144595D01*
X138471747Y-84660348D01*
X138463461Y-84667888D01*
X138456982Y-84672000D01*
X138451557Y-84677777D01*
X138410357Y-84721651D01*
X138407602Y-84724493D01*
X138387865Y-84744230D01*
X138385385Y-84747427D01*
X138377682Y-84756447D01*
X138347414Y-84788679D01*
X138343595Y-84795625D01*
X138343593Y-84795628D01*
X138337652Y-84806434D01*
X138326801Y-84822953D01*
X138314386Y-84838959D01*
X138311241Y-84846228D01*
X138311238Y-84846232D01*
X138296826Y-84879537D01*
X138291609Y-84890187D01*
X138270305Y-84928940D01*
X138268334Y-84936615D01*
X138268334Y-84936616D01*
X138265267Y-84948562D01*
X138258863Y-84967266D01*
X138250819Y-84985855D01*
X138249580Y-84993678D01*
X138249577Y-84993688D01*
X138243901Y-85029524D01*
X138241495Y-85041144D01*
X138236644Y-85060038D01*
X138230500Y-85083970D01*
X138230500Y-85104224D01*
X138228949Y-85123934D01*
X138225780Y-85143943D01*
X138226526Y-85151835D01*
X138229941Y-85187961D01*
X138230500Y-85199819D01*
X138230500Y-85573500D01*
X138210498Y-85641621D01*
X138156842Y-85688114D01*
X138104500Y-85699500D01*
X137615866Y-85699500D01*
X137553684Y-85706255D01*
X137523616Y-85717527D01*
X137425699Y-85754234D01*
X137425696Y-85754236D01*
X137417295Y-85757385D01*
X137416976Y-85756534D01*
X137355151Y-85770055D01*
X137310834Y-85757042D01*
X137310705Y-85757385D01*
X137306019Y-85755628D01*
X137306015Y-85755627D01*
X137302304Y-85754236D01*
X137302301Y-85754234D01*
X137204384Y-85717527D01*
X137174316Y-85706255D01*
X137112134Y-85699500D01*
X136919425Y-85699500D01*
X136851304Y-85679498D01*
X136804811Y-85625842D01*
X136794115Y-85560329D01*
X136795653Y-85545702D01*
X136803504Y-85471000D01*
X136800620Y-85443564D01*
X136784232Y-85287635D01*
X136784232Y-85287633D01*
X136783542Y-85281072D01*
X136724527Y-85099444D01*
X136721222Y-85093719D01*
X136707787Y-85070448D01*
X136691050Y-85001452D01*
X136714272Y-84934361D01*
X136750604Y-84900306D01*
X136832807Y-84849437D01*
X136844208Y-84840401D01*
X136958739Y-84725671D01*
X136967751Y-84714260D01*
X137052816Y-84576257D01*
X137058963Y-84563076D01*
X137110138Y-84408790D01*
X137113005Y-84395414D01*
X137122672Y-84301062D01*
X137123000Y-84294646D01*
X137123000Y-84182115D01*
X137118525Y-84166876D01*
X137117135Y-84165671D01*
X137109452Y-84164000D01*
X134675118Y-84164000D01*
X134661008Y-84168143D01*
X134598727Y-84170368D01*
X134569453Y-84164000D01*
X133622115Y-84164000D01*
X133606876Y-84168475D01*
X133605671Y-84169865D01*
X133604000Y-84177548D01*
X133604000Y-84987384D01*
X133608475Y-85002623D01*
X133609865Y-85003828D01*
X133617548Y-85005499D01*
X133872095Y-85005499D01*
X133878614Y-85005162D01*
X133974206Y-84995243D01*
X133987605Y-84992350D01*
X133994433Y-84990072D01*
X134065383Y-84987486D01*
X134126467Y-85023670D01*
X134158292Y-85087134D01*
X134150754Y-85157729D01*
X134123405Y-85198690D01*
X133654791Y-85667304D01*
X133592479Y-85701330D01*
X133579304Y-85703472D01*
X133553684Y-85706255D01*
X133417295Y-85757385D01*
X133300739Y-85844739D01*
X133213385Y-85961295D01*
X133162255Y-86097684D01*
X133155500Y-86159866D01*
X133155500Y-87256134D01*
X133162255Y-87318316D01*
X133213385Y-87454705D01*
X133300739Y-87571261D01*
X133417295Y-87658615D01*
X133553684Y-87709745D01*
X133615866Y-87716500D01*
X134112134Y-87716500D01*
X134120952Y-87715542D01*
X134190834Y-87728070D01*
X134242850Y-87776390D01*
X134251712Y-87794422D01*
X134261804Y-87819912D01*
X134265649Y-87831142D01*
X134277982Y-87873593D01*
X134282015Y-87880412D01*
X134282017Y-87880417D01*
X134288293Y-87891028D01*
X134296988Y-87908776D01*
X134304448Y-87927617D01*
X134309110Y-87934033D01*
X134309110Y-87934034D01*
X134330436Y-87963387D01*
X134336952Y-87973307D01*
X134359458Y-88011362D01*
X134373779Y-88025683D01*
X134386619Y-88040716D01*
X134398528Y-88057107D01*
X134420244Y-88075072D01*
X134432593Y-88085288D01*
X134441374Y-88093278D01*
X135005353Y-88657258D01*
X135012887Y-88665537D01*
X135017000Y-88672018D01*
X135060943Y-88713283D01*
X135066651Y-88718643D01*
X135069493Y-88721398D01*
X135089230Y-88741135D01*
X135092427Y-88743615D01*
X135101447Y-88751318D01*
X135133679Y-88781586D01*
X135140625Y-88785405D01*
X135140628Y-88785407D01*
X135151434Y-88791348D01*
X135167953Y-88802199D01*
X135183959Y-88814614D01*
X135191228Y-88817759D01*
X135191232Y-88817762D01*
X135224537Y-88832174D01*
X135235187Y-88837391D01*
X135273940Y-88858695D01*
X135281615Y-88860666D01*
X135281616Y-88860666D01*
X135293562Y-88863733D01*
X135312266Y-88870137D01*
X135330855Y-88878181D01*
X135329547Y-88881204D01*
X135374938Y-88909649D01*
X135405747Y-88943866D01*
X135411089Y-88947747D01*
X135411091Y-88947749D01*
X135551226Y-89049563D01*
X135560248Y-89056118D01*
X135566276Y-89058802D01*
X135566278Y-89058803D01*
X135714695Y-89124882D01*
X135734712Y-89133794D01*
X135798888Y-89147435D01*
X135915056Y-89172128D01*
X135915061Y-89172128D01*
X135921513Y-89173500D01*
X136112487Y-89173500D01*
X136118939Y-89172128D01*
X136118944Y-89172128D01*
X136269202Y-89140189D01*
X136339993Y-89145591D01*
X136379709Y-89169800D01*
X136384331Y-89173962D01*
X136388747Y-89178866D01*
X136543248Y-89291118D01*
X136549276Y-89293802D01*
X136549278Y-89293803D01*
X136675962Y-89350206D01*
X136717712Y-89368794D01*
X136792892Y-89384774D01*
X136898056Y-89407128D01*
X136898061Y-89407128D01*
X136904513Y-89408500D01*
X137095487Y-89408500D01*
X137101939Y-89407128D01*
X137101944Y-89407128D01*
X137207108Y-89384774D01*
X137282288Y-89368794D01*
X137324038Y-89350206D01*
X137450722Y-89293803D01*
X137450724Y-89293802D01*
X137456752Y-89291118D01*
X137611253Y-89178866D01*
X137627731Y-89160565D01*
X137734621Y-89041852D01*
X137734622Y-89041851D01*
X137739040Y-89036944D01*
X137834527Y-88871556D01*
X137834808Y-88870691D01*
X137879416Y-88818205D01*
X137947343Y-88797553D01*
X138015651Y-88816903D01*
X138034800Y-88831697D01*
X138049651Y-88845643D01*
X138052493Y-88848398D01*
X138072230Y-88868135D01*
X138075427Y-88870615D01*
X138084447Y-88878318D01*
X138116679Y-88908586D01*
X138123625Y-88912405D01*
X138123628Y-88912407D01*
X138134434Y-88918348D01*
X138150953Y-88929199D01*
X138166959Y-88941614D01*
X138174228Y-88944759D01*
X138174232Y-88944762D01*
X138207537Y-88959174D01*
X138218187Y-88964391D01*
X138256940Y-88985695D01*
X138274206Y-88990128D01*
X138276562Y-88990733D01*
X138295267Y-88997137D01*
X138313855Y-89005181D01*
X138321678Y-89006420D01*
X138321688Y-89006423D01*
X138357524Y-89012099D01*
X138369144Y-89014505D01*
X138404289Y-89023528D01*
X138411970Y-89025500D01*
X138432224Y-89025500D01*
X138451934Y-89027051D01*
X138471943Y-89030220D01*
X138479835Y-89029474D01*
X138515961Y-89026059D01*
X138527819Y-89025500D01*
X139160166Y-89025500D01*
X139234226Y-89049563D01*
X139237907Y-89052238D01*
X139237910Y-89052240D01*
X139243248Y-89056118D01*
X139249276Y-89058802D01*
X139249278Y-89058803D01*
X139397695Y-89124882D01*
X139417712Y-89133794D01*
X139481888Y-89147435D01*
X139598056Y-89172128D01*
X139598061Y-89172128D01*
X139604513Y-89173500D01*
X139795487Y-89173500D01*
X139801939Y-89172128D01*
X139801944Y-89172128D01*
X139918112Y-89147435D01*
X139982288Y-89133794D01*
X140002305Y-89124882D01*
X140150722Y-89058803D01*
X140150724Y-89058802D01*
X140156752Y-89056118D01*
X140169019Y-89047206D01*
X140243352Y-88993199D01*
X140311253Y-88943866D01*
X140368365Y-88880436D01*
X140428810Y-88843198D01*
X140499794Y-88844550D01*
X140555634Y-88880436D01*
X140612747Y-88943866D01*
X140680648Y-88993199D01*
X140754982Y-89047206D01*
X140767248Y-89056118D01*
X140773276Y-89058802D01*
X140773278Y-89058803D01*
X140921695Y-89124882D01*
X140941712Y-89133794D01*
X141005888Y-89147435D01*
X141122056Y-89172128D01*
X141122061Y-89172128D01*
X141128513Y-89173500D01*
X141319487Y-89173500D01*
X141325939Y-89172128D01*
X141325944Y-89172128D01*
X141442112Y-89147435D01*
X141506288Y-89133794D01*
X141526305Y-89124882D01*
X141674722Y-89058803D01*
X141674724Y-89058802D01*
X141680752Y-89056118D01*
X141693019Y-89047206D01*
X141767352Y-88993199D01*
X141835253Y-88943866D01*
X141853932Y-88923121D01*
X141958621Y-88806852D01*
X141958622Y-88806851D01*
X141963040Y-88801944D01*
X142052102Y-88647684D01*
X142055223Y-88642279D01*
X142055224Y-88642278D01*
X142058527Y-88636556D01*
X142117542Y-88454928D01*
X142119466Y-88436628D01*
X142136814Y-88271565D01*
X142137504Y-88265000D01*
X142123993Y-88136453D01*
X142118232Y-88081635D01*
X142118232Y-88081633D01*
X142117542Y-88075072D01*
X142058527Y-87893444D01*
X142055396Y-87888021D01*
X142045979Y-87817781D01*
X142076085Y-87753484D01*
X142136174Y-87715670D01*
X142156910Y-87711636D01*
X142159864Y-87711315D01*
X142174316Y-87709745D01*
X142230499Y-87688683D01*
X142302301Y-87661766D01*
X142302304Y-87661764D01*
X142310705Y-87658615D01*
X142311024Y-87659466D01*
X142372849Y-87645945D01*
X142417166Y-87658958D01*
X142417295Y-87658615D01*
X142421981Y-87660372D01*
X142421985Y-87660373D01*
X142425696Y-87661764D01*
X142425699Y-87661766D01*
X142497501Y-87688683D01*
X142553684Y-87709745D01*
X142615866Y-87716500D01*
X143112134Y-87716500D01*
X143119775Y-87715670D01*
X143126465Y-87714943D01*
X143174316Y-87709745D01*
X143181711Y-87706973D01*
X143182530Y-87706778D01*
X143253430Y-87710481D01*
X143311073Y-87751927D01*
X143337158Y-87817958D01*
X143331508Y-87868296D01*
X143323458Y-87893072D01*
X143322768Y-87899633D01*
X143322768Y-87899635D01*
X143316149Y-87962616D01*
X143303496Y-88083000D01*
X143304186Y-88089565D01*
X143321902Y-88258120D01*
X143323458Y-88272928D01*
X143382473Y-88454556D01*
X143385776Y-88460278D01*
X143385777Y-88460279D01*
X143417984Y-88516062D01*
X143477960Y-88619944D01*
X143482378Y-88624851D01*
X143482379Y-88624852D01*
X143526786Y-88674171D01*
X143605747Y-88761866D01*
X143678348Y-88814614D01*
X143754769Y-88870137D01*
X143760248Y-88874118D01*
X143766276Y-88876802D01*
X143766278Y-88876803D01*
X143928681Y-88949109D01*
X143934712Y-88951794D01*
X144028112Y-88971647D01*
X144115056Y-88990128D01*
X144115061Y-88990128D01*
X144121513Y-88991500D01*
X144312487Y-88991500D01*
X144318939Y-88990128D01*
X144318944Y-88990128D01*
X144405888Y-88971647D01*
X144499288Y-88951794D01*
X144505319Y-88949109D01*
X144667722Y-88876803D01*
X144667724Y-88876802D01*
X144673752Y-88874118D01*
X144679094Y-88870237D01*
X144822909Y-88765749D01*
X144822911Y-88765747D01*
X144828253Y-88761866D01*
X144832671Y-88756959D01*
X144832678Y-88756953D01*
X144857211Y-88729706D01*
X144917657Y-88692466D01*
X144988641Y-88693818D01*
X145044481Y-88729704D01*
X145088747Y-88778866D01*
X145169306Y-88837396D01*
X145229603Y-88881204D01*
X145243248Y-88891118D01*
X145249276Y-88893802D01*
X145249278Y-88893803D01*
X145401403Y-88961533D01*
X145417712Y-88968794D01*
X145497225Y-88985695D01*
X145598056Y-89007128D01*
X145598061Y-89007128D01*
X145604513Y-89008500D01*
X145795487Y-89008500D01*
X145801939Y-89007128D01*
X145801944Y-89007128D01*
X145902775Y-88985695D01*
X145982288Y-88968794D01*
X145998597Y-88961533D01*
X146150722Y-88893803D01*
X146150724Y-88893802D01*
X146156752Y-88891118D01*
X146170398Y-88881204D01*
X146230694Y-88837396D01*
X146311253Y-88778866D01*
X146341544Y-88745224D01*
X146434621Y-88641852D01*
X146434622Y-88641851D01*
X146439040Y-88636944D01*
X146508831Y-88516062D01*
X146531223Y-88477279D01*
X146531224Y-88477278D01*
X146534527Y-88471556D01*
X146593542Y-88289928D01*
X146596341Y-88263303D01*
X146612814Y-88106565D01*
X146613504Y-88100000D01*
X146610884Y-88075072D01*
X146594232Y-87916635D01*
X146594232Y-87916633D01*
X146593542Y-87910072D01*
X146584237Y-87881434D01*
X146582211Y-87810467D01*
X146618874Y-87749670D01*
X146682587Y-87718345D01*
X146704071Y-87716500D01*
X147112134Y-87716500D01*
X147174316Y-87709745D01*
X147230499Y-87688683D01*
X147302301Y-87661766D01*
X147302304Y-87661764D01*
X147310705Y-87658615D01*
X147311024Y-87659466D01*
X147372849Y-87645945D01*
X147417166Y-87658958D01*
X147417295Y-87658615D01*
X147421981Y-87660372D01*
X147421985Y-87660373D01*
X147425696Y-87661764D01*
X147425699Y-87661766D01*
X147497501Y-87688683D01*
X147553684Y-87709745D01*
X147615866Y-87716500D01*
X148112134Y-87716500D01*
X148174316Y-87709745D01*
X148230499Y-87688683D01*
X148302301Y-87661766D01*
X148302304Y-87661764D01*
X148310705Y-87658615D01*
X148311024Y-87659466D01*
X148372849Y-87645945D01*
X148417166Y-87658958D01*
X148417295Y-87658615D01*
X148421981Y-87660372D01*
X148421985Y-87660373D01*
X148425696Y-87661764D01*
X148425699Y-87661766D01*
X148497501Y-87688683D01*
X148553684Y-87709745D01*
X148615866Y-87716500D01*
X148868277Y-87716500D01*
X148936398Y-87736502D01*
X148982891Y-87790158D01*
X148992995Y-87860432D01*
X148988112Y-87881428D01*
X148966458Y-87948072D01*
X148965768Y-87954633D01*
X148965768Y-87954635D01*
X148958561Y-88023207D01*
X148946496Y-88138000D01*
X148947186Y-88144565D01*
X148964661Y-88310827D01*
X148966458Y-88327928D01*
X149025473Y-88509556D01*
X149028776Y-88515278D01*
X149028777Y-88515279D01*
X149042183Y-88538498D01*
X149064768Y-88577616D01*
X149067876Y-88583000D01*
X149084614Y-88651995D01*
X149067876Y-88709000D01*
X149029102Y-88776159D01*
X149025473Y-88782444D01*
X148966458Y-88964072D01*
X148965768Y-88970633D01*
X148965768Y-88970635D01*
X148947948Y-89140189D01*
X148946496Y-89154000D01*
X148947186Y-89160565D01*
X148965463Y-89334457D01*
X148966458Y-89343928D01*
X149025473Y-89525556D01*
X149028776Y-89531278D01*
X149028777Y-89531279D01*
X149053635Y-89574334D01*
X149065160Y-89594295D01*
X149067876Y-89599000D01*
X149084614Y-89667995D01*
X149067876Y-89725000D01*
X149025473Y-89798444D01*
X148966458Y-89980072D01*
X148965768Y-89986633D01*
X148965768Y-89986635D01*
X148952851Y-90109531D01*
X148946496Y-90170000D01*
X148946871Y-90173571D01*
X148927184Y-90240621D01*
X148873528Y-90287114D01*
X148821186Y-90298500D01*
X148612814Y-90298500D01*
X148544693Y-90278498D01*
X148498200Y-90224842D01*
X148487102Y-90173824D01*
X148487504Y-90170000D01*
X148481149Y-90109531D01*
X148468232Y-89986635D01*
X148468232Y-89986633D01*
X148467542Y-89980072D01*
X148408527Y-89798444D01*
X148313040Y-89633056D01*
X148298798Y-89617238D01*
X148189675Y-89496045D01*
X148189674Y-89496044D01*
X148185253Y-89491134D01*
X148038862Y-89384774D01*
X148036094Y-89382763D01*
X148036093Y-89382762D01*
X148030752Y-89378882D01*
X148024724Y-89376198D01*
X148024722Y-89376197D01*
X147862319Y-89303891D01*
X147862318Y-89303891D01*
X147856288Y-89301206D01*
X147762887Y-89281353D01*
X147675944Y-89262872D01*
X147675939Y-89262872D01*
X147669487Y-89261500D01*
X147478513Y-89261500D01*
X147472061Y-89262872D01*
X147472056Y-89262872D01*
X147385113Y-89281353D01*
X147291712Y-89301206D01*
X147285682Y-89303891D01*
X147285681Y-89303891D01*
X147123278Y-89376197D01*
X147123276Y-89376198D01*
X147117248Y-89378882D01*
X147111907Y-89382762D01*
X147111906Y-89382763D01*
X147109138Y-89384774D01*
X146962747Y-89491134D01*
X146958332Y-89496037D01*
X146953420Y-89500460D01*
X146952295Y-89499211D01*
X146898986Y-89532051D01*
X146865800Y-89536500D01*
X138249768Y-89536500D01*
X138238585Y-89535973D01*
X138231092Y-89534298D01*
X138223166Y-89534547D01*
X138223165Y-89534547D01*
X138163002Y-89536438D01*
X138159044Y-89536500D01*
X138131144Y-89536500D01*
X138127154Y-89537004D01*
X138115320Y-89537936D01*
X138071111Y-89539326D01*
X138063495Y-89541539D01*
X138063493Y-89541539D01*
X138051652Y-89544979D01*
X138032293Y-89548988D01*
X138030983Y-89549154D01*
X138012203Y-89551526D01*
X138004837Y-89554442D01*
X138004831Y-89554444D01*
X137971098Y-89567800D01*
X137959868Y-89571645D01*
X137943828Y-89576305D01*
X137917407Y-89583981D01*
X137910584Y-89588016D01*
X137899966Y-89594295D01*
X137882213Y-89602992D01*
X137874568Y-89606019D01*
X137863383Y-89610448D01*
X137843021Y-89625242D01*
X137827612Y-89636437D01*
X137817695Y-89642951D01*
X137779638Y-89665458D01*
X137765317Y-89679779D01*
X137750284Y-89692619D01*
X137733893Y-89704528D01*
X137728840Y-89710636D01*
X137705708Y-89738598D01*
X137697718Y-89747378D01*
X137590501Y-89854595D01*
X137528189Y-89888621D01*
X137501406Y-89891500D01*
X137445513Y-89891500D01*
X137439061Y-89892872D01*
X137439056Y-89892872D01*
X137361136Y-89909435D01*
X137258712Y-89931206D01*
X137252682Y-89933891D01*
X137252681Y-89933891D01*
X137090278Y-90006197D01*
X137090276Y-90006198D01*
X137084248Y-90008882D01*
X136929747Y-90121134D01*
X136925326Y-90126044D01*
X136925325Y-90126045D01*
X136822161Y-90240621D01*
X136801960Y-90263056D01*
X136706473Y-90428444D01*
X136647458Y-90610072D01*
X136646768Y-90616633D01*
X136646768Y-90616635D01*
X136642760Y-90654774D01*
X136627496Y-90800000D01*
X136628186Y-90806565D01*
X136642060Y-90938565D01*
X136647458Y-90989928D01*
X136676908Y-91080565D01*
X136678936Y-91151531D01*
X136642274Y-91212329D01*
X136578562Y-91243654D01*
X136557075Y-91245500D01*
X130928595Y-91245500D01*
X130860474Y-91225498D01*
X130839499Y-91208595D01*
X130412500Y-90781595D01*
X130378475Y-90719283D01*
X130383540Y-90648467D01*
X130426087Y-90591632D01*
X130492607Y-90566821D01*
X130501596Y-90566500D01*
X132112134Y-90566500D01*
X132174316Y-90559745D01*
X132310705Y-90508615D01*
X132427261Y-90421261D01*
X132514615Y-90304705D01*
X132565745Y-90168316D01*
X132572500Y-90106134D01*
X132572500Y-88709866D01*
X132565745Y-88647684D01*
X132524813Y-88538498D01*
X132517767Y-88519702D01*
X132517766Y-88519700D01*
X132514615Y-88511295D01*
X132427261Y-88394739D01*
X132310705Y-88307385D01*
X132174316Y-88256255D01*
X132112134Y-88249500D01*
X130015866Y-88249500D01*
X129953684Y-88256255D01*
X129817295Y-88307385D01*
X129700739Y-88394739D01*
X129613385Y-88511295D01*
X129610234Y-88519700D01*
X129610233Y-88519702D01*
X129603187Y-88538498D01*
X129562255Y-88647684D01*
X129555500Y-88709866D01*
X129555500Y-89620405D01*
X129535498Y-89688526D01*
X129481842Y-89735019D01*
X129411568Y-89745123D01*
X129346988Y-89715629D01*
X129340405Y-89709500D01*
X129324770Y-89693865D01*
X129321573Y-89691385D01*
X129312551Y-89683680D01*
X129308397Y-89679779D01*
X129280321Y-89653414D01*
X129273375Y-89649595D01*
X129273372Y-89649593D01*
X129262566Y-89643652D01*
X129246047Y-89632801D01*
X129240048Y-89628148D01*
X129230041Y-89620386D01*
X129222772Y-89617241D01*
X129222768Y-89617238D01*
X129189463Y-89602826D01*
X129178813Y-89597609D01*
X129140060Y-89576305D01*
X129120437Y-89571267D01*
X129101734Y-89564863D01*
X129090420Y-89559967D01*
X129090419Y-89559967D01*
X129083145Y-89556819D01*
X129075322Y-89555580D01*
X129075312Y-89555577D01*
X129039476Y-89549901D01*
X129027856Y-89547495D01*
X128992711Y-89538472D01*
X128992710Y-89538472D01*
X128985030Y-89536500D01*
X128964776Y-89536500D01*
X128945065Y-89534949D01*
X128932886Y-89533020D01*
X128925057Y-89531780D01*
X128895786Y-89534547D01*
X128881039Y-89535941D01*
X128869181Y-89536500D01*
X127013687Y-89536500D01*
X126945566Y-89516498D01*
X126904568Y-89473501D01*
X126850040Y-89379056D01*
X126842036Y-89370166D01*
X126726675Y-89242045D01*
X126726674Y-89242044D01*
X126722253Y-89237134D01*
X126607829Y-89154000D01*
X126573094Y-89128763D01*
X126573093Y-89128762D01*
X126567752Y-89124882D01*
X126561724Y-89122198D01*
X126561722Y-89122197D01*
X126399319Y-89049891D01*
X126399318Y-89049891D01*
X126393288Y-89047206D01*
X126291170Y-89025500D01*
X126212944Y-89008872D01*
X126212939Y-89008872D01*
X126206487Y-89007500D01*
X126015513Y-89007500D01*
X126009061Y-89008872D01*
X126009056Y-89008872D01*
X125930830Y-89025500D01*
X125828712Y-89047206D01*
X125822682Y-89049891D01*
X125822681Y-89049891D01*
X125660278Y-89122197D01*
X125660276Y-89122198D01*
X125654248Y-89124882D01*
X125648907Y-89128762D01*
X125648906Y-89128763D01*
X125614171Y-89154000D01*
X125499747Y-89237134D01*
X125495326Y-89242044D01*
X125495325Y-89242045D01*
X125379965Y-89370166D01*
X125371960Y-89379056D01*
X125317432Y-89473501D01*
X125280773Y-89536997D01*
X125276473Y-89544444D01*
X125217458Y-89726072D01*
X125216768Y-89732633D01*
X125216768Y-89732635D01*
X125212683Y-89771502D01*
X125197496Y-89916000D01*
X125217458Y-90105928D01*
X125276473Y-90287556D01*
X125279776Y-90293278D01*
X125279777Y-90293279D01*
X125318876Y-90361000D01*
X125335614Y-90429995D01*
X125318876Y-90487000D01*
X125276473Y-90560444D01*
X125217458Y-90742072D01*
X125216768Y-90748633D01*
X125216768Y-90748635D01*
X125210453Y-90808721D01*
X125197496Y-90932000D01*
X125198186Y-90938565D01*
X125214450Y-91093305D01*
X125217458Y-91121928D01*
X125276473Y-91303556D01*
X125371960Y-91468944D01*
X125376378Y-91473851D01*
X125376379Y-91473852D01*
X125476909Y-91585502D01*
X125499747Y-91610866D01*
X125578959Y-91668417D01*
X125646143Y-91717229D01*
X125654248Y-91723118D01*
X125660276Y-91725802D01*
X125660278Y-91725803D01*
X125740022Y-91761307D01*
X125828712Y-91800794D01*
X125922112Y-91820647D01*
X126009056Y-91839128D01*
X126009061Y-91839128D01*
X126015513Y-91840500D01*
X126206487Y-91840500D01*
X126212939Y-91839128D01*
X126212944Y-91839128D01*
X126299887Y-91820647D01*
X126393288Y-91800794D01*
X126481978Y-91761307D01*
X126561722Y-91725803D01*
X126561724Y-91725802D01*
X126567752Y-91723118D01*
X126575858Y-91717229D01*
X126643041Y-91668417D01*
X126722253Y-91610866D01*
X126745091Y-91585502D01*
X126845621Y-91473852D01*
X126845622Y-91473851D01*
X126850040Y-91468944D01*
X126904569Y-91374498D01*
X126955951Y-91325506D01*
X127013687Y-91311500D01*
X128336406Y-91311500D01*
X128404527Y-91331502D01*
X128425501Y-91348405D01*
X129798343Y-92721247D01*
X129805887Y-92729537D01*
X129810000Y-92736018D01*
X129815777Y-92741443D01*
X129859667Y-92782658D01*
X129862509Y-92785413D01*
X129882231Y-92805135D01*
X129885355Y-92807558D01*
X129885359Y-92807562D01*
X129885424Y-92807612D01*
X129894445Y-92815317D01*
X129926679Y-92845586D01*
X129933627Y-92849405D01*
X129933629Y-92849407D01*
X129944432Y-92855346D01*
X129960959Y-92866202D01*
X129970698Y-92873757D01*
X129970700Y-92873758D01*
X129976960Y-92878614D01*
X130017540Y-92896174D01*
X130028188Y-92901391D01*
X130052976Y-92915018D01*
X130066940Y-92922695D01*
X130074616Y-92924666D01*
X130074619Y-92924667D01*
X130086562Y-92927733D01*
X130105267Y-92934137D01*
X130123855Y-92942181D01*
X130131678Y-92943420D01*
X130131688Y-92943423D01*
X130167524Y-92949099D01*
X130179144Y-92951505D01*
X130210959Y-92959673D01*
X130221970Y-92962500D01*
X130242224Y-92962500D01*
X130261934Y-92964051D01*
X130281943Y-92967220D01*
X130289835Y-92966474D01*
X130308580Y-92964702D01*
X130325962Y-92963059D01*
X130337819Y-92962500D01*
X145590233Y-92962500D01*
X145601416Y-92963027D01*
X145608909Y-92964702D01*
X145616835Y-92964453D01*
X145616836Y-92964453D01*
X145676986Y-92962562D01*
X145680945Y-92962500D01*
X145708856Y-92962500D01*
X145712791Y-92962003D01*
X145712856Y-92961995D01*
X145724693Y-92961062D01*
X145756951Y-92960048D01*
X145760970Y-92959922D01*
X145768889Y-92959673D01*
X145788343Y-92954021D01*
X145807700Y-92950013D01*
X145819930Y-92948468D01*
X145819931Y-92948468D01*
X145827797Y-92947474D01*
X145835168Y-92944555D01*
X145835170Y-92944555D01*
X145868912Y-92931196D01*
X145880142Y-92927351D01*
X145914983Y-92917229D01*
X145914984Y-92917229D01*
X145922593Y-92915018D01*
X145929412Y-92910985D01*
X145929417Y-92910983D01*
X145940028Y-92904707D01*
X145957776Y-92896012D01*
X145976617Y-92888552D01*
X146012387Y-92862564D01*
X146022307Y-92856048D01*
X146053535Y-92837580D01*
X146053538Y-92837578D01*
X146060362Y-92833542D01*
X146074683Y-92819221D01*
X146089717Y-92806380D01*
X146091431Y-92805135D01*
X146106107Y-92794472D01*
X146111158Y-92788367D01*
X146111163Y-92788362D01*
X146134294Y-92760402D01*
X146142281Y-92751624D01*
X146430404Y-92463500D01*
X157386738Y-92463500D01*
X161413262Y-92463500D01*
X161413262Y-90106134D01*
X162155500Y-90106134D01*
X162162255Y-90168316D01*
X162213385Y-90304705D01*
X162300739Y-90421261D01*
X162417295Y-90508615D01*
X162553684Y-90559745D01*
X162615866Y-90566500D01*
X164712134Y-90566500D01*
X164774316Y-90559745D01*
X164910705Y-90508615D01*
X165027261Y-90421261D01*
X165114615Y-90304705D01*
X165165745Y-90168316D01*
X165172500Y-90106134D01*
X165172500Y-88709866D01*
X165165745Y-88647684D01*
X165124813Y-88538498D01*
X165117767Y-88519702D01*
X165117766Y-88519700D01*
X165114615Y-88511295D01*
X165027261Y-88394739D01*
X164910705Y-88307385D01*
X164774316Y-88256255D01*
X164712134Y-88249500D01*
X162615866Y-88249500D01*
X162553684Y-88256255D01*
X162417295Y-88307385D01*
X162300739Y-88394739D01*
X162213385Y-88511295D01*
X162210234Y-88519700D01*
X162210233Y-88519702D01*
X162203187Y-88538498D01*
X162162255Y-88647684D01*
X162155500Y-88709866D01*
X162155500Y-90106134D01*
X161413262Y-90106134D01*
X161413262Y-89536500D01*
X157386738Y-89536500D01*
X157386738Y-92463500D01*
X146430404Y-92463500D01*
X146508499Y-92385405D01*
X146570812Y-92351380D01*
X146597595Y-92348500D01*
X146653487Y-92348500D01*
X146659939Y-92347128D01*
X146659944Y-92347128D01*
X146746888Y-92328647D01*
X146840288Y-92308794D01*
X146846319Y-92306109D01*
X147008722Y-92233803D01*
X147008724Y-92233802D01*
X147014752Y-92231118D01*
X147169253Y-92118866D01*
X147205851Y-92078220D01*
X147292621Y-91981852D01*
X147292622Y-91981851D01*
X147297040Y-91976944D01*
X147392527Y-91811556D01*
X147444187Y-91652564D01*
X147484261Y-91593958D01*
X147549657Y-91566321D01*
X147564020Y-91565500D01*
X149973313Y-91565500D01*
X150041434Y-91585502D01*
X150082431Y-91628498D01*
X150136960Y-91722944D01*
X150141378Y-91727851D01*
X150141379Y-91727852D01*
X150260325Y-91859955D01*
X150264747Y-91864866D01*
X150419248Y-91977118D01*
X150425276Y-91979802D01*
X150425278Y-91979803D01*
X150587681Y-92052109D01*
X150593712Y-92054794D01*
X150679378Y-92073003D01*
X150774056Y-92093128D01*
X150774061Y-92093128D01*
X150780513Y-92094500D01*
X150971487Y-92094500D01*
X150977939Y-92093128D01*
X150977944Y-92093128D01*
X151072622Y-92073003D01*
X151158288Y-92054794D01*
X151164319Y-92052109D01*
X151326722Y-91979803D01*
X151326724Y-91979802D01*
X151332752Y-91977118D01*
X151487253Y-91864866D01*
X151491675Y-91859955D01*
X151610621Y-91727852D01*
X151610622Y-91727851D01*
X151615040Y-91722944D01*
X151677507Y-91614749D01*
X151707223Y-91563279D01*
X151707224Y-91563278D01*
X151710527Y-91557556D01*
X151769542Y-91375928D01*
X151789504Y-91186000D01*
X151780630Y-91101568D01*
X151770232Y-91002635D01*
X151770232Y-91002633D01*
X151769542Y-90996072D01*
X151710527Y-90814444D01*
X151704209Y-90803500D01*
X151618341Y-90654774D01*
X151615040Y-90649056D01*
X151540996Y-90566821D01*
X151491675Y-90512045D01*
X151491674Y-90512044D01*
X151487253Y-90507134D01*
X151371069Y-90422721D01*
X151338094Y-90398763D01*
X151338093Y-90398762D01*
X151332752Y-90394882D01*
X151326726Y-90392199D01*
X151326719Y-90392195D01*
X151270699Y-90367254D01*
X151216603Y-90321274D01*
X151195953Y-90253347D01*
X151215305Y-90185039D01*
X151232852Y-90163052D01*
X152841499Y-88554405D01*
X152903811Y-88520379D01*
X152930594Y-88517500D01*
X158071233Y-88517500D01*
X158082416Y-88518027D01*
X158089909Y-88519702D01*
X158097835Y-88519453D01*
X158097836Y-88519453D01*
X158157986Y-88517562D01*
X158161945Y-88517500D01*
X158189856Y-88517500D01*
X158193791Y-88517003D01*
X158193856Y-88516995D01*
X158205693Y-88516062D01*
X158237951Y-88515048D01*
X158241970Y-88514922D01*
X158249889Y-88514673D01*
X158269343Y-88509021D01*
X158288700Y-88505013D01*
X158300930Y-88503468D01*
X158300931Y-88503468D01*
X158308797Y-88502474D01*
X158316168Y-88499555D01*
X158316170Y-88499555D01*
X158349912Y-88486196D01*
X158361142Y-88482351D01*
X158395983Y-88472229D01*
X158395984Y-88472229D01*
X158403593Y-88470018D01*
X158410412Y-88465985D01*
X158410417Y-88465983D01*
X158421028Y-88459707D01*
X158438776Y-88451012D01*
X158457617Y-88443552D01*
X158493387Y-88417564D01*
X158503307Y-88411048D01*
X158534535Y-88392580D01*
X158534538Y-88392578D01*
X158541362Y-88388542D01*
X158555683Y-88374221D01*
X158570717Y-88361380D01*
X158580694Y-88354131D01*
X158587107Y-88349472D01*
X158615298Y-88315395D01*
X158623288Y-88306616D01*
X159228346Y-87701558D01*
X159273211Y-87672671D01*
X159302301Y-87661766D01*
X159302304Y-87661765D01*
X159310705Y-87658615D01*
X159311024Y-87659466D01*
X159372849Y-87645945D01*
X159417166Y-87658958D01*
X159417295Y-87658615D01*
X159421981Y-87660372D01*
X159421985Y-87660373D01*
X159425696Y-87661764D01*
X159425699Y-87661766D01*
X159497501Y-87688683D01*
X159553684Y-87709745D01*
X159615866Y-87716500D01*
X160112134Y-87716500D01*
X160174316Y-87709745D01*
X160230499Y-87688683D01*
X160302301Y-87661766D01*
X160302304Y-87661764D01*
X160310705Y-87658615D01*
X160311024Y-87659466D01*
X160372849Y-87645945D01*
X160417166Y-87658958D01*
X160417295Y-87658615D01*
X160421981Y-87660372D01*
X160421985Y-87660373D01*
X160425696Y-87661764D01*
X160425699Y-87661766D01*
X160497501Y-87688683D01*
X160553684Y-87709745D01*
X160615866Y-87716500D01*
X160742965Y-87716500D01*
X160766575Y-87718732D01*
X160772120Y-87719790D01*
X160772122Y-87719790D01*
X160779906Y-87721275D01*
X160851846Y-87716749D01*
X160859757Y-87716500D01*
X161112134Y-87716500D01*
X161174316Y-87709745D01*
X161310705Y-87658615D01*
X161427261Y-87571261D01*
X161514615Y-87454705D01*
X161565745Y-87318316D01*
X161572500Y-87256134D01*
X161572500Y-86159866D01*
X161565745Y-86097684D01*
X161514615Y-85961295D01*
X161427261Y-85844739D01*
X161310705Y-85757385D01*
X161174316Y-85706255D01*
X161112134Y-85699500D01*
X160615866Y-85699500D01*
X160553684Y-85706255D01*
X160523616Y-85717527D01*
X160425699Y-85754234D01*
X160425696Y-85754236D01*
X160417295Y-85757385D01*
X160416976Y-85756534D01*
X160355151Y-85770055D01*
X160310834Y-85757042D01*
X160310705Y-85757385D01*
X160306019Y-85755628D01*
X160306015Y-85755627D01*
X160302304Y-85754236D01*
X160302301Y-85754234D01*
X160204384Y-85717527D01*
X160174316Y-85706255D01*
X160112134Y-85699500D01*
X159615866Y-85699500D01*
X159606444Y-85700524D01*
X159536564Y-85687998D01*
X159484547Y-85639679D01*
X159466910Y-85570908D01*
X159489254Y-85503519D01*
X159503740Y-85486166D01*
X160212258Y-84777648D01*
X160220538Y-84770113D01*
X160227018Y-84766000D01*
X160273644Y-84716348D01*
X160276398Y-84713507D01*
X160296135Y-84693770D01*
X160298615Y-84690573D01*
X160306320Y-84681551D01*
X160318729Y-84668337D01*
X160336586Y-84649321D01*
X160340405Y-84642375D01*
X160340407Y-84642372D01*
X160346348Y-84631566D01*
X160357199Y-84615047D01*
X160364758Y-84605301D01*
X160369614Y-84599041D01*
X160372759Y-84591772D01*
X160372762Y-84591768D01*
X160387174Y-84558463D01*
X160392391Y-84547813D01*
X160413695Y-84509060D01*
X160418733Y-84489437D01*
X160425137Y-84470734D01*
X160430033Y-84459420D01*
X160430033Y-84459419D01*
X160433181Y-84452145D01*
X160434420Y-84444322D01*
X160434423Y-84444312D01*
X160440099Y-84408476D01*
X160442505Y-84396856D01*
X160451528Y-84361711D01*
X160451528Y-84361710D01*
X160453500Y-84354030D01*
X160453500Y-84333776D01*
X160455051Y-84314065D01*
X160456980Y-84301886D01*
X160458220Y-84294057D01*
X160454059Y-84250038D01*
X160453500Y-84238181D01*
X160453500Y-83200000D01*
X160886761Y-83200000D01*
X160887031Y-83204119D01*
X160903249Y-83451547D01*
X160905696Y-83488886D01*
X160906500Y-83492926D01*
X160906500Y-83492929D01*
X160960179Y-83762791D01*
X160962175Y-83772828D01*
X160963501Y-83776734D01*
X160963502Y-83776738D01*
X161021009Y-83946148D01*
X161055234Y-84046970D01*
X161057055Y-84050663D01*
X161057056Y-84050665D01*
X161082605Y-84102473D01*
X161183279Y-84306619D01*
X161344119Y-84547335D01*
X161346831Y-84550427D01*
X161346836Y-84550434D01*
X161516793Y-84744230D01*
X161535004Y-84764996D01*
X161538093Y-84767705D01*
X161749565Y-84953163D01*
X161749571Y-84953168D01*
X161752665Y-84955881D01*
X161993380Y-85116721D01*
X161997079Y-85118545D01*
X161997084Y-85118548D01*
X162247595Y-85242086D01*
X162253030Y-85244766D01*
X162256928Y-85246089D01*
X162256930Y-85246090D01*
X162523262Y-85336498D01*
X162523266Y-85336499D01*
X162527172Y-85337825D01*
X162531216Y-85338629D01*
X162531222Y-85338631D01*
X162807071Y-85393500D01*
X162807074Y-85393500D01*
X162811114Y-85394304D01*
X162815225Y-85394573D01*
X162815229Y-85394574D01*
X163095881Y-85412969D01*
X163100000Y-85413239D01*
X163104119Y-85412969D01*
X163384771Y-85394574D01*
X163384775Y-85394573D01*
X163388886Y-85394304D01*
X163392926Y-85393500D01*
X163392929Y-85393500D01*
X163668778Y-85338631D01*
X163668784Y-85338629D01*
X163672828Y-85337825D01*
X163676734Y-85336499D01*
X163676738Y-85336498D01*
X163943070Y-85246090D01*
X163943072Y-85246089D01*
X163946970Y-85244766D01*
X163952405Y-85242086D01*
X164202916Y-85118548D01*
X164202921Y-85118545D01*
X164206620Y-85116721D01*
X164447335Y-84955881D01*
X164450429Y-84953168D01*
X164450435Y-84953163D01*
X164661907Y-84767705D01*
X164664996Y-84764996D01*
X164683207Y-84744230D01*
X164853164Y-84550434D01*
X164853169Y-84550427D01*
X164855881Y-84547335D01*
X165016721Y-84306619D01*
X165117395Y-84102473D01*
X165142944Y-84050665D01*
X165142945Y-84050663D01*
X165144766Y-84046970D01*
X165178991Y-83946148D01*
X165236498Y-83776738D01*
X165236499Y-83776734D01*
X165237825Y-83772828D01*
X165239822Y-83762791D01*
X165293500Y-83492929D01*
X165293500Y-83492926D01*
X165294304Y-83488886D01*
X165296752Y-83451547D01*
X165312969Y-83204119D01*
X165313239Y-83200000D01*
X165309703Y-83146054D01*
X165294574Y-82915229D01*
X165294573Y-82915225D01*
X165294304Y-82911114D01*
X165293500Y-82907071D01*
X165238631Y-82631222D01*
X165238629Y-82631216D01*
X165237825Y-82627172D01*
X165223117Y-82583842D01*
X165146090Y-82356930D01*
X165146089Y-82356928D01*
X165144766Y-82353030D01*
X165142254Y-82347935D01*
X165018550Y-82097090D01*
X165016721Y-82093381D01*
X164855881Y-81852665D01*
X164853169Y-81849573D01*
X164853164Y-81849566D01*
X164667705Y-81638093D01*
X164664996Y-81635004D01*
X164609277Y-81586139D01*
X164450435Y-81446837D01*
X164450429Y-81446832D01*
X164447335Y-81444119D01*
X164206620Y-81283279D01*
X164202921Y-81281455D01*
X164202916Y-81281452D01*
X163950665Y-81157056D01*
X163950663Y-81157055D01*
X163946970Y-81155234D01*
X163934406Y-81150969D01*
X163676738Y-81063502D01*
X163676734Y-81063501D01*
X163672828Y-81062175D01*
X163668784Y-81061371D01*
X163668778Y-81061369D01*
X163392929Y-81006500D01*
X163392926Y-81006500D01*
X163388886Y-81005696D01*
X163384775Y-81005427D01*
X163384771Y-81005426D01*
X163104119Y-80987031D01*
X163100000Y-80986761D01*
X163095881Y-80987031D01*
X162815229Y-81005426D01*
X162815225Y-81005427D01*
X162811114Y-81005696D01*
X162807074Y-81006500D01*
X162807071Y-81006500D01*
X162531222Y-81061369D01*
X162531216Y-81061371D01*
X162527172Y-81062175D01*
X162523266Y-81063501D01*
X162523262Y-81063502D01*
X162265594Y-81150969D01*
X162253030Y-81155234D01*
X162249337Y-81157055D01*
X162249335Y-81157056D01*
X162199772Y-81181498D01*
X161993381Y-81283279D01*
X161752665Y-81444119D01*
X161749573Y-81446831D01*
X161749566Y-81446836D01*
X161590723Y-81586139D01*
X161535004Y-81635004D01*
X161532295Y-81638093D01*
X161346836Y-81849566D01*
X161346831Y-81849573D01*
X161344119Y-81852665D01*
X161183279Y-82093381D01*
X161181450Y-82097090D01*
X161057747Y-82347935D01*
X161055234Y-82353030D01*
X161053911Y-82356928D01*
X161053910Y-82356930D01*
X160976884Y-82583842D01*
X160962175Y-82627172D01*
X160961371Y-82631216D01*
X160961369Y-82631222D01*
X160906500Y-82907071D01*
X160905696Y-82911114D01*
X160905427Y-82915225D01*
X160905426Y-82915229D01*
X160890297Y-83146054D01*
X160886761Y-83200000D01*
X160453500Y-83200000D01*
X160453500Y-81793767D01*
X160454027Y-81782584D01*
X160455702Y-81775091D01*
X160453562Y-81707014D01*
X160453500Y-81703055D01*
X160453500Y-81675144D01*
X160452995Y-81671144D01*
X160452062Y-81659301D01*
X160451396Y-81638093D01*
X160450673Y-81615111D01*
X160445021Y-81595657D01*
X160441013Y-81576300D01*
X160439468Y-81564070D01*
X160439468Y-81564069D01*
X160438474Y-81556203D01*
X160428351Y-81530635D01*
X160422196Y-81515088D01*
X160418351Y-81503858D01*
X160408229Y-81469017D01*
X160408229Y-81469016D01*
X160406018Y-81461407D01*
X160401985Y-81454588D01*
X160401983Y-81454583D01*
X160395707Y-81443972D01*
X160387012Y-81426224D01*
X160379552Y-81407383D01*
X160353564Y-81371613D01*
X160347048Y-81361693D01*
X160328580Y-81330465D01*
X160328578Y-81330462D01*
X160324542Y-81323638D01*
X160310221Y-81309317D01*
X160297380Y-81294283D01*
X160290131Y-81284306D01*
X160285472Y-81277893D01*
X160251395Y-81249702D01*
X160242616Y-81241712D01*
X155690117Y-76689212D01*
X155656091Y-76626900D01*
X155661156Y-76556085D01*
X155701984Y-76500559D01*
X155704538Y-76498577D01*
X155711362Y-76494542D01*
X155725683Y-76480221D01*
X155740717Y-76467380D01*
X155745427Y-76463958D01*
X155757107Y-76455472D01*
X155762158Y-76449367D01*
X155762163Y-76449362D01*
X155785294Y-76421402D01*
X155793281Y-76412624D01*
X155972999Y-76232905D01*
X156035311Y-76198880D01*
X156062095Y-76196000D01*
X156735400Y-76196000D01*
X156738646Y-76195663D01*
X156738650Y-76195663D01*
X156834308Y-76185738D01*
X156834312Y-76185737D01*
X156841166Y-76185026D01*
X156847702Y-76182845D01*
X156847704Y-76182845D01*
X156981343Y-76138259D01*
X157008946Y-76129050D01*
X157159348Y-76035978D01*
X157187729Y-76007548D01*
X157279134Y-75915983D01*
X157284305Y-75910803D01*
X157356684Y-75793383D01*
X157409455Y-75745891D01*
X157463943Y-75733500D01*
X157845954Y-75733500D01*
X157914075Y-75753502D01*
X157953098Y-75793197D01*
X157971850Y-75823500D01*
X158026522Y-75911848D01*
X158151697Y-76036805D01*
X158157927Y-76040645D01*
X158157928Y-76040646D01*
X158295288Y-76125316D01*
X158302262Y-76129615D01*
X158313695Y-76133407D01*
X158463611Y-76183132D01*
X158463613Y-76183132D01*
X158470139Y-76185297D01*
X158476975Y-76185997D01*
X158476978Y-76185998D01*
X158520031Y-76190409D01*
X158574600Y-76196000D01*
X159625400Y-76196000D01*
X159628646Y-76195663D01*
X159628650Y-76195663D01*
X159724308Y-76185738D01*
X159724312Y-76185737D01*
X159731166Y-76185026D01*
X159737702Y-76182845D01*
X159737704Y-76182845D01*
X159871343Y-76138259D01*
X159898946Y-76129050D01*
X160049348Y-76035978D01*
X160077729Y-76007548D01*
X160169134Y-75915983D01*
X160174305Y-75910803D01*
X160179649Y-75902134D01*
X160263275Y-75766468D01*
X160263276Y-75766466D01*
X160267115Y-75760238D01*
X160298030Y-75667033D01*
X160320632Y-75598889D01*
X160320632Y-75598887D01*
X160322797Y-75592361D01*
X160323721Y-75583348D01*
X160329069Y-75531148D01*
X160333500Y-75487900D01*
X160333500Y-74712100D01*
X160332045Y-74698073D01*
X160323238Y-74613192D01*
X160323237Y-74613188D01*
X160322526Y-74606334D01*
X160316649Y-74588717D01*
X160268868Y-74445502D01*
X160266550Y-74438554D01*
X160173478Y-74288152D01*
X160048303Y-74163195D01*
X160043765Y-74160398D01*
X160003176Y-74103147D01*
X159999946Y-74032224D01*
X160035572Y-73970813D01*
X160044068Y-73963438D01*
X160054207Y-73955402D01*
X160168739Y-73840671D01*
X160177751Y-73829260D01*
X160262816Y-73691257D01*
X160268963Y-73678076D01*
X160320138Y-73523790D01*
X160323005Y-73510414D01*
X160332672Y-73416062D01*
X160333000Y-73409646D01*
X160333000Y-73297115D01*
X160328525Y-73281876D01*
X160327135Y-73280671D01*
X160319452Y-73279000D01*
X157885116Y-73279000D01*
X157869877Y-73283475D01*
X157868672Y-73284865D01*
X157867001Y-73292548D01*
X157867001Y-73409595D01*
X157867338Y-73416114D01*
X157877257Y-73511706D01*
X157880149Y-73525100D01*
X157931588Y-73679284D01*
X157937761Y-73692462D01*
X158023063Y-73830307D01*
X158032099Y-73841708D01*
X158146828Y-73956238D01*
X158155762Y-73963294D01*
X158196823Y-74021212D01*
X158200053Y-74092135D01*
X158164426Y-74153546D01*
X158156593Y-74160346D01*
X158150652Y-74164022D01*
X158025695Y-74289197D01*
X158021855Y-74295427D01*
X158021854Y-74295428D01*
X158015145Y-74306312D01*
X157986350Y-74353027D01*
X157953317Y-74406616D01*
X157900545Y-74454109D01*
X157846057Y-74466500D01*
X157464046Y-74466500D01*
X157395925Y-74446498D01*
X157356902Y-74406803D01*
X157287332Y-74294380D01*
X157283478Y-74288152D01*
X157158303Y-74163195D01*
X157153765Y-74160398D01*
X157113176Y-74103147D01*
X157109946Y-74032224D01*
X157145572Y-73970813D01*
X157154068Y-73963438D01*
X157164207Y-73955402D01*
X157278739Y-73840671D01*
X157287751Y-73829260D01*
X157372816Y-73691257D01*
X157378963Y-73678076D01*
X157430138Y-73523790D01*
X157433005Y-73510414D01*
X157442672Y-73416062D01*
X157443000Y-73409646D01*
X157443000Y-73297115D01*
X157438525Y-73281876D01*
X157437135Y-73280671D01*
X157429452Y-73279000D01*
X154995116Y-73279000D01*
X154979877Y-73283475D01*
X154978672Y-73284865D01*
X154977001Y-73292548D01*
X154977001Y-73409595D01*
X154977338Y-73416114D01*
X154987257Y-73511706D01*
X154990149Y-73525100D01*
X155041588Y-73679284D01*
X155047761Y-73692462D01*
X155133063Y-73830307D01*
X155142099Y-73841708D01*
X155256828Y-73956238D01*
X155265762Y-73963294D01*
X155306823Y-74021212D01*
X155310053Y-74092135D01*
X155274426Y-74153546D01*
X155266593Y-74160346D01*
X155260652Y-74164022D01*
X155135695Y-74289197D01*
X155131855Y-74295427D01*
X155131854Y-74295428D01*
X155054085Y-74421593D01*
X155042885Y-74439762D01*
X155028864Y-74482034D01*
X154991453Y-74594827D01*
X154987203Y-74607639D01*
X154986503Y-74614475D01*
X154986502Y-74614478D01*
X154984574Y-74633299D01*
X154976500Y-74712100D01*
X154976500Y-75230500D01*
X154956498Y-75298621D01*
X154902842Y-75345114D01*
X154850500Y-75356500D01*
X152385396Y-75356500D01*
X152317275Y-75336498D01*
X152270782Y-75282842D01*
X152260678Y-75212568D01*
X152276277Y-75167500D01*
X152342223Y-75053279D01*
X152342224Y-75053278D01*
X152345527Y-75047556D01*
X152404542Y-74865928D01*
X152406637Y-74846000D01*
X152420362Y-74715405D01*
X152421907Y-74700706D01*
X152448920Y-74635050D01*
X152458122Y-74624782D01*
X154784500Y-72298405D01*
X154846812Y-72264379D01*
X154873595Y-72261500D01*
X154903120Y-72261500D01*
X154971241Y-72281502D01*
X155017734Y-72335158D01*
X155027838Y-72405432D01*
X155022713Y-72427167D01*
X154989863Y-72526207D01*
X154986995Y-72539586D01*
X154977328Y-72633938D01*
X154977000Y-72640355D01*
X154977000Y-72752885D01*
X154981475Y-72768124D01*
X154982865Y-72769329D01*
X154990548Y-72771000D01*
X157424884Y-72771000D01*
X157440123Y-72766525D01*
X157441328Y-72765135D01*
X157442999Y-72757452D01*
X157442999Y-72640405D01*
X157442662Y-72633886D01*
X157432743Y-72538294D01*
X157429851Y-72524900D01*
X157397315Y-72427376D01*
X157394731Y-72356426D01*
X157430915Y-72295342D01*
X157494379Y-72263518D01*
X157516839Y-72261500D01*
X157793120Y-72261500D01*
X157861241Y-72281502D01*
X157907734Y-72335158D01*
X157917838Y-72405432D01*
X157912713Y-72427167D01*
X157879863Y-72526207D01*
X157876995Y-72539586D01*
X157867328Y-72633938D01*
X157867000Y-72640355D01*
X157867000Y-72752885D01*
X157871475Y-72768124D01*
X157872865Y-72769329D01*
X157880548Y-72771000D01*
X160314884Y-72771000D01*
X160330123Y-72766525D01*
X160331328Y-72765135D01*
X160332999Y-72757452D01*
X160332999Y-72640405D01*
X160332662Y-72633886D01*
X160322743Y-72538294D01*
X160319851Y-72524900D01*
X160287315Y-72427376D01*
X160284731Y-72356426D01*
X160320915Y-72295342D01*
X160384379Y-72263518D01*
X160406839Y-72261500D01*
X160703233Y-72261500D01*
X160714416Y-72262027D01*
X160721909Y-72263702D01*
X160729835Y-72263453D01*
X160729836Y-72263453D01*
X160789986Y-72261562D01*
X160793945Y-72261500D01*
X160821856Y-72261500D01*
X160825791Y-72261003D01*
X160825856Y-72260995D01*
X160837693Y-72260062D01*
X160869951Y-72259048D01*
X160873970Y-72258922D01*
X160881889Y-72258673D01*
X160901343Y-72253021D01*
X160920700Y-72249013D01*
X160932930Y-72247468D01*
X160932931Y-72247468D01*
X160940797Y-72246474D01*
X160948168Y-72243555D01*
X160948170Y-72243555D01*
X160981912Y-72230196D01*
X160993142Y-72226351D01*
X161027983Y-72216229D01*
X161027984Y-72216229D01*
X161035593Y-72214018D01*
X161042412Y-72209985D01*
X161042417Y-72209983D01*
X161053028Y-72203707D01*
X161070776Y-72195012D01*
X161089617Y-72187552D01*
X161105994Y-72175654D01*
X161125387Y-72161564D01*
X161135307Y-72155048D01*
X161166535Y-72136580D01*
X161166538Y-72136578D01*
X161173362Y-72132542D01*
X161187683Y-72118221D01*
X161202717Y-72105380D01*
X161212694Y-72098131D01*
X161219107Y-72093472D01*
X161247298Y-72059395D01*
X161255288Y-72050616D01*
X162062148Y-71243756D01*
X162124460Y-71209730D01*
X162176363Y-71209380D01*
X162267108Y-71227842D01*
X162392656Y-71253385D01*
X162523324Y-71258176D01*
X162618949Y-71261683D01*
X162618953Y-71261683D01*
X162624113Y-71261872D01*
X162629233Y-71261216D01*
X162629235Y-71261216D01*
X162702270Y-71251860D01*
X162853847Y-71232442D01*
X162858795Y-71230957D01*
X162858802Y-71230956D01*
X163070747Y-71167369D01*
X163075690Y-71165886D01*
X163092055Y-71157869D01*
X163279049Y-71066262D01*
X163279052Y-71066260D01*
X163283684Y-71063991D01*
X163472243Y-70929494D01*
X163636303Y-70766005D01*
X163771458Y-70577917D01*
X163774243Y-70572283D01*
X163871784Y-70374922D01*
X163871785Y-70374920D01*
X163874078Y-70370280D01*
X163941408Y-70148671D01*
X163971640Y-69919041D01*
X163971840Y-69910849D01*
X163973245Y-69853365D01*
X163973245Y-69853361D01*
X163973327Y-69850000D01*
X163959953Y-69687327D01*
X163954773Y-69624318D01*
X163954772Y-69624312D01*
X163954349Y-69619167D01*
X163916813Y-69469731D01*
X163899184Y-69399544D01*
X163899183Y-69399540D01*
X163897925Y-69394533D01*
X163895841Y-69389740D01*
X163807630Y-69186868D01*
X163807628Y-69186865D01*
X163805570Y-69182131D01*
X163679764Y-68987665D01*
X163611738Y-68912905D01*
X163589848Y-68888848D01*
X163558796Y-68825002D01*
X163567192Y-68754504D01*
X163612369Y-68699736D01*
X163638812Y-68686067D01*
X163698297Y-68663767D01*
X163706705Y-68660615D01*
X163823261Y-68573261D01*
X163910615Y-68456705D01*
X163961745Y-68320316D01*
X163968500Y-68258134D01*
X163968500Y-66361866D01*
X163961745Y-66299684D01*
X163910615Y-66163295D01*
X163823261Y-66046739D01*
X163706705Y-65959385D01*
X163570316Y-65908255D01*
X163508134Y-65901500D01*
X161611866Y-65901500D01*
X161549684Y-65908255D01*
X161413295Y-65959385D01*
X161296739Y-66046739D01*
X161209385Y-66163295D01*
X161158255Y-66299684D01*
X161151500Y-66361866D01*
X161151500Y-66550500D01*
X161131498Y-66618621D01*
X161077842Y-66665114D01*
X161025500Y-66676500D01*
X159771315Y-66676500D01*
X159703194Y-66656498D01*
X159682299Y-66639675D01*
X159678484Y-66635867D01*
X159673303Y-66630695D01*
X159658917Y-66621827D01*
X159528968Y-66541725D01*
X159528966Y-66541724D01*
X159522738Y-66537885D01*
X159442995Y-66511436D01*
X159361389Y-66484368D01*
X159361387Y-66484368D01*
X159354861Y-66482203D01*
X159348025Y-66481503D01*
X159348022Y-66481502D01*
X159303680Y-66476959D01*
X159250400Y-66471500D01*
X158249600Y-66471500D01*
X158246354Y-66471837D01*
X158246350Y-66471837D01*
X158150692Y-66481762D01*
X158150688Y-66481763D01*
X158143834Y-66482474D01*
X158137298Y-66484655D01*
X158137296Y-66484655D01*
X158038738Y-66517537D01*
X157976054Y-66538450D01*
X157825652Y-66631522D01*
X157820479Y-66636704D01*
X157789713Y-66667524D01*
X157700695Y-66756697D01*
X157696855Y-66762927D01*
X157696854Y-66762928D01*
X157677961Y-66793579D01*
X157607885Y-66907262D01*
X157605581Y-66914209D01*
X157555764Y-67064404D01*
X157552203Y-67075139D01*
X157541500Y-67179600D01*
X157541500Y-67980400D01*
X157541837Y-67983646D01*
X157541837Y-67983650D01*
X157550745Y-68069500D01*
X157552474Y-68086166D01*
X157608450Y-68253946D01*
X157701522Y-68404348D01*
X157706704Y-68409521D01*
X157788463Y-68491138D01*
X157822542Y-68553421D01*
X157817539Y-68624241D01*
X157788618Y-68669329D01*
X157706261Y-68751829D01*
X157697249Y-68763240D01*
X157612184Y-68901243D01*
X157606037Y-68914424D01*
X157554862Y-69068710D01*
X157551995Y-69082086D01*
X157542328Y-69176438D01*
X157542000Y-69182855D01*
X157542000Y-69307885D01*
X157546475Y-69323124D01*
X157547865Y-69324329D01*
X157555548Y-69326000D01*
X159939884Y-69326000D01*
X159955123Y-69321525D01*
X159956328Y-69320135D01*
X159957999Y-69312452D01*
X159957999Y-69182905D01*
X159957662Y-69176386D01*
X159947743Y-69080794D01*
X159944851Y-69067400D01*
X159893412Y-68913216D01*
X159887239Y-68900038D01*
X159801937Y-68762193D01*
X159792901Y-68750792D01*
X159711538Y-68669570D01*
X159677459Y-68607287D01*
X159682462Y-68536467D01*
X159711383Y-68491380D01*
X159794130Y-68408488D01*
X159794134Y-68408483D01*
X159799305Y-68403303D01*
X159803146Y-68397072D01*
X159888275Y-68258968D01*
X159888276Y-68258966D01*
X159892115Y-68252738D01*
X159947797Y-68084861D01*
X159950687Y-68056656D01*
X159977529Y-67990929D01*
X160035644Y-67950148D01*
X160076031Y-67943500D01*
X161025500Y-67943500D01*
X161093621Y-67963502D01*
X161140114Y-68017158D01*
X161151500Y-68069500D01*
X161151500Y-68258134D01*
X161158255Y-68320316D01*
X161209385Y-68456705D01*
X161296739Y-68573261D01*
X161413295Y-68660615D01*
X161421704Y-68663767D01*
X161421705Y-68663768D01*
X161481164Y-68686058D01*
X161537929Y-68728699D01*
X161562629Y-68795261D01*
X161547422Y-68864609D01*
X161528029Y-68891091D01*
X161461639Y-68960564D01*
X161458725Y-68964836D01*
X161458724Y-68964837D01*
X161444205Y-68986121D01*
X161331119Y-69151899D01*
X161233602Y-69361981D01*
X161171707Y-69585169D01*
X161147095Y-69815469D01*
X161147392Y-69820622D01*
X161147392Y-69820625D01*
X161159279Y-70026793D01*
X161160427Y-70046697D01*
X161161564Y-70051743D01*
X161161565Y-70051749D01*
X161201623Y-70229498D01*
X161197087Y-70300350D01*
X161167801Y-70346295D01*
X160844211Y-70669884D01*
X160556499Y-70957596D01*
X160494187Y-70991621D01*
X160467404Y-70994500D01*
X154637767Y-70994500D01*
X154626584Y-70993973D01*
X154619091Y-70992298D01*
X154611165Y-70992547D01*
X154611164Y-70992547D01*
X154551001Y-70994438D01*
X154547043Y-70994500D01*
X154519144Y-70994500D01*
X154515154Y-70995004D01*
X154503320Y-70995936D01*
X154459111Y-70997326D01*
X154451497Y-70999538D01*
X154451492Y-70999539D01*
X154439659Y-71002977D01*
X154420296Y-71006988D01*
X154400203Y-71009526D01*
X154392836Y-71012443D01*
X154392831Y-71012444D01*
X154359092Y-71025802D01*
X154347865Y-71029646D01*
X154305407Y-71041982D01*
X154298581Y-71046019D01*
X154287972Y-71052293D01*
X154270224Y-71060988D01*
X154251383Y-71068448D01*
X154244967Y-71073110D01*
X154244966Y-71073110D01*
X154215613Y-71094436D01*
X154205693Y-71100952D01*
X154174465Y-71119420D01*
X154174462Y-71119422D01*
X154167638Y-71123458D01*
X154153317Y-71137779D01*
X154138284Y-71150619D01*
X154121893Y-71162528D01*
X154100843Y-71187973D01*
X154093702Y-71196605D01*
X154085712Y-71205384D01*
X151760078Y-73531017D01*
X151697766Y-73565043D01*
X151626950Y-73559978D01*
X151570115Y-73517431D01*
X151561864Y-73504922D01*
X151491342Y-73382774D01*
X151491339Y-73382769D01*
X151488040Y-73377056D01*
X151414863Y-73295785D01*
X151384147Y-73231779D01*
X151382500Y-73211476D01*
X151382500Y-72967462D01*
X151383027Y-72956279D01*
X151384702Y-72948786D01*
X151382562Y-72880709D01*
X151382500Y-72876750D01*
X151382500Y-72848839D01*
X151381995Y-72844839D01*
X151381062Y-72832997D01*
X151379852Y-72794504D01*
X151397704Y-72725788D01*
X151448812Y-72680515D01*
X151447999Y-72679107D01*
X151453722Y-72675803D01*
X151459752Y-72673118D01*
X151614253Y-72560866D01*
X151634577Y-72538294D01*
X151737621Y-72423852D01*
X151737622Y-72423851D01*
X151742040Y-72418944D01*
X151831669Y-72263702D01*
X151834223Y-72259279D01*
X151834224Y-72259278D01*
X151837527Y-72253556D01*
X151896542Y-72071928D01*
X151898137Y-72056759D01*
X151915814Y-71888565D01*
X151916504Y-71882000D01*
X151903196Y-71755378D01*
X151897232Y-71698635D01*
X151897232Y-71698633D01*
X151896542Y-71692072D01*
X151837527Y-71510444D01*
X151742040Y-71345056D01*
X151668863Y-71263785D01*
X151638147Y-71199779D01*
X151636500Y-71179476D01*
X151636500Y-71071767D01*
X151637027Y-71060584D01*
X151638702Y-71053091D01*
X151636900Y-70995750D01*
X151636562Y-70985014D01*
X151636500Y-70981055D01*
X151636500Y-70953144D01*
X151635995Y-70949144D01*
X151635062Y-70937301D01*
X151634375Y-70915425D01*
X151633673Y-70893110D01*
X151628022Y-70873658D01*
X151624014Y-70854306D01*
X151622467Y-70842063D01*
X151621474Y-70834203D01*
X151618556Y-70826832D01*
X151605200Y-70793097D01*
X151601355Y-70781870D01*
X151597805Y-70769653D01*
X151589018Y-70739407D01*
X151578707Y-70721972D01*
X151570012Y-70704224D01*
X151562552Y-70685383D01*
X151551292Y-70669884D01*
X151536564Y-70649613D01*
X151530048Y-70639693D01*
X151511580Y-70608465D01*
X151511578Y-70608462D01*
X151507542Y-70601638D01*
X151493221Y-70587317D01*
X151480380Y-70572283D01*
X151473131Y-70562306D01*
X151468472Y-70555893D01*
X151434395Y-70527702D01*
X151425616Y-70519712D01*
X151251299Y-70345395D01*
X151217273Y-70283083D01*
X151219836Y-70219671D01*
X151220611Y-70217123D01*
X151241408Y-70148671D01*
X151263997Y-69977095D01*
X157542001Y-69977095D01*
X157542338Y-69983614D01*
X157552257Y-70079206D01*
X157555149Y-70092600D01*
X157606588Y-70246784D01*
X157612761Y-70259962D01*
X157698063Y-70397807D01*
X157707099Y-70409208D01*
X157821829Y-70523739D01*
X157833240Y-70532751D01*
X157971243Y-70617816D01*
X157984424Y-70623963D01*
X158138710Y-70675138D01*
X158152086Y-70678005D01*
X158246438Y-70687672D01*
X158252854Y-70688000D01*
X158477885Y-70688000D01*
X158493124Y-70683525D01*
X158494329Y-70682135D01*
X158496000Y-70674452D01*
X158496000Y-70669884D01*
X159004000Y-70669884D01*
X159008475Y-70685123D01*
X159009865Y-70686328D01*
X159017548Y-70687999D01*
X159247095Y-70687999D01*
X159253614Y-70687662D01*
X159349206Y-70677743D01*
X159362600Y-70674851D01*
X159516784Y-70623412D01*
X159529962Y-70617239D01*
X159667807Y-70531937D01*
X159679208Y-70522901D01*
X159793739Y-70408171D01*
X159802751Y-70396760D01*
X159887816Y-70258757D01*
X159893963Y-70245576D01*
X159945138Y-70091290D01*
X159948005Y-70077914D01*
X159957672Y-69983562D01*
X159958000Y-69977146D01*
X159958000Y-69852115D01*
X159953525Y-69836876D01*
X159952135Y-69835671D01*
X159944452Y-69834000D01*
X159022115Y-69834000D01*
X159006876Y-69838475D01*
X159005671Y-69839865D01*
X159004000Y-69847548D01*
X159004000Y-70669884D01*
X158496000Y-70669884D01*
X158496000Y-69852115D01*
X158491525Y-69836876D01*
X158490135Y-69835671D01*
X158482452Y-69834000D01*
X157560116Y-69834000D01*
X157544877Y-69838475D01*
X157543672Y-69839865D01*
X157542001Y-69847548D01*
X157542001Y-69977095D01*
X151263997Y-69977095D01*
X151271640Y-69919041D01*
X151271840Y-69910849D01*
X151273245Y-69853365D01*
X151273245Y-69853361D01*
X151273327Y-69850000D01*
X151259953Y-69687327D01*
X151254773Y-69624318D01*
X151254772Y-69624312D01*
X151254349Y-69619167D01*
X151216813Y-69469731D01*
X151199184Y-69399544D01*
X151199183Y-69399540D01*
X151197925Y-69394533D01*
X151195841Y-69389740D01*
X151107630Y-69186868D01*
X151107628Y-69186865D01*
X151105570Y-69182131D01*
X150979764Y-68987665D01*
X150911738Y-68912905D01*
X150889848Y-68888848D01*
X150858796Y-68825002D01*
X150867192Y-68754504D01*
X150912369Y-68699736D01*
X150938812Y-68686067D01*
X150998297Y-68663767D01*
X151006705Y-68660615D01*
X151123261Y-68573261D01*
X151210615Y-68456705D01*
X151261745Y-68320316D01*
X151268500Y-68258134D01*
X151268500Y-66361866D01*
X151261745Y-66299684D01*
X151210615Y-66163295D01*
X151123261Y-66046739D01*
X151006705Y-65959385D01*
X150870316Y-65908255D01*
X150808134Y-65901500D01*
X148911866Y-65901500D01*
X148849684Y-65908255D01*
X148713295Y-65959385D01*
X148596739Y-66046739D01*
X148509385Y-66163295D01*
X148458255Y-66299684D01*
X148451500Y-66361866D01*
X148451500Y-66550500D01*
X148431498Y-66618621D01*
X148377842Y-66665114D01*
X148325500Y-66676500D01*
X147286781Y-66676500D01*
X147218660Y-66656498D01*
X147179637Y-66616803D01*
X147145538Y-66561699D01*
X147098478Y-66485652D01*
X146973303Y-66360695D01*
X146906046Y-66319237D01*
X146828968Y-66271725D01*
X146828966Y-66271724D01*
X146822738Y-66267885D01*
X146742995Y-66241436D01*
X146661389Y-66214368D01*
X146661387Y-66214368D01*
X146654861Y-66212203D01*
X146648025Y-66211503D01*
X146648022Y-66211502D01*
X146604969Y-66207091D01*
X146550400Y-66201500D01*
X145549600Y-66201500D01*
X145546354Y-66201837D01*
X145546350Y-66201837D01*
X145450692Y-66211762D01*
X145450688Y-66211763D01*
X145443834Y-66212474D01*
X145437298Y-66214655D01*
X145437296Y-66214655D01*
X145305194Y-66258728D01*
X145276054Y-66268450D01*
X145125652Y-66361522D01*
X145120479Y-66366704D01*
X145101797Y-66385419D01*
X145000695Y-66486697D01*
X144996855Y-66492927D01*
X144996854Y-66492928D01*
X144914301Y-66626854D01*
X144907885Y-66637262D01*
X144888931Y-66694408D01*
X144869989Y-66751517D01*
X144852203Y-66805139D01*
X144851503Y-66811975D01*
X144851502Y-66811978D01*
X144848855Y-66837819D01*
X144841500Y-66909600D01*
X144841500Y-67710400D01*
X144841837Y-67713646D01*
X144841837Y-67713650D01*
X144850820Y-67800221D01*
X144852474Y-67816166D01*
X144854655Y-67822702D01*
X144854655Y-67822704D01*
X144875675Y-67885707D01*
X144908450Y-67983946D01*
X145001522Y-68134348D01*
X145006704Y-68139521D01*
X145088463Y-68221138D01*
X145122542Y-68283421D01*
X145117539Y-68354241D01*
X145088618Y-68399329D01*
X145006261Y-68481829D01*
X144997249Y-68493240D01*
X144912184Y-68631243D01*
X144906037Y-68644424D01*
X144854862Y-68798710D01*
X144851995Y-68812086D01*
X144842328Y-68906438D01*
X144842000Y-68912855D01*
X144842000Y-69037885D01*
X144846475Y-69053124D01*
X144847865Y-69054329D01*
X144855548Y-69056000D01*
X147239884Y-69056000D01*
X147255123Y-69051525D01*
X147256328Y-69050135D01*
X147257999Y-69042452D01*
X147257999Y-68912905D01*
X147257662Y-68906386D01*
X147247743Y-68810794D01*
X147244851Y-68797400D01*
X147193412Y-68643216D01*
X147187239Y-68630038D01*
X147101937Y-68492193D01*
X147092901Y-68480792D01*
X147011538Y-68399570D01*
X146977459Y-68337287D01*
X146982462Y-68266467D01*
X147011383Y-68221380D01*
X147094130Y-68138488D01*
X147094134Y-68138483D01*
X147099305Y-68133303D01*
X147138634Y-68069500D01*
X147179389Y-68003384D01*
X147232162Y-67955890D01*
X147286649Y-67943500D01*
X148325500Y-67943500D01*
X148393621Y-67963502D01*
X148440114Y-68017158D01*
X148451500Y-68069500D01*
X148451500Y-68258134D01*
X148458255Y-68320316D01*
X148509385Y-68456705D01*
X148596739Y-68573261D01*
X148713295Y-68660615D01*
X148721704Y-68663767D01*
X148721705Y-68663768D01*
X148781164Y-68686058D01*
X148837929Y-68728699D01*
X148862629Y-68795261D01*
X148847422Y-68864609D01*
X148828029Y-68891091D01*
X148761639Y-68960564D01*
X148758725Y-68964836D01*
X148758724Y-68964837D01*
X148744205Y-68986121D01*
X148631119Y-69151899D01*
X148533602Y-69361981D01*
X148471707Y-69585169D01*
X148447095Y-69815469D01*
X148447392Y-69820622D01*
X148447392Y-69820625D01*
X148459279Y-70026793D01*
X148460427Y-70046697D01*
X148461564Y-70051743D01*
X148461565Y-70051749D01*
X148484524Y-70153624D01*
X148511346Y-70272642D01*
X148513288Y-70277424D01*
X148513289Y-70277428D01*
X148578388Y-70437747D01*
X148598484Y-70487237D01*
X148644197Y-70561834D01*
X148715976Y-70678966D01*
X148719501Y-70684719D01*
X148871147Y-70859784D01*
X148930797Y-70909306D01*
X148962415Y-70935556D01*
X149002050Y-70994458D01*
X149003548Y-71065439D01*
X148966434Y-71125962D01*
X148902489Y-71156811D01*
X148881930Y-71158500D01*
X148806594Y-71158500D01*
X148738473Y-71138498D01*
X148717499Y-71121595D01*
X148003292Y-70407388D01*
X147972553Y-70357227D01*
X147969144Y-70346735D01*
X147969143Y-70346734D01*
X147966694Y-70339195D01*
X147962445Y-70332499D01*
X147962280Y-70332239D01*
X147951515Y-70311112D01*
X147951401Y-70310824D01*
X147951398Y-70310819D01*
X147948482Y-70303453D01*
X147943826Y-70297045D01*
X147943823Y-70297039D01*
X147915472Y-70258018D01*
X147911022Y-70251471D01*
X147907281Y-70245576D01*
X147880930Y-70204052D01*
X147874923Y-70198411D01*
X147859242Y-70180624D01*
X147859064Y-70180379D01*
X147859062Y-70180377D01*
X147854402Y-70173963D01*
X147848292Y-70168908D01*
X147811134Y-70138167D01*
X147805200Y-70132936D01*
X147770032Y-70099912D01*
X147770029Y-70099910D01*
X147764251Y-70094484D01*
X147757027Y-70090512D01*
X147737424Y-70077189D01*
X147737184Y-70076990D01*
X147737177Y-70076986D01*
X147731074Y-70071937D01*
X147680254Y-70048023D01*
X147673222Y-70044441D01*
X147623990Y-70017375D01*
X147616315Y-70015405D01*
X147616309Y-70015402D01*
X147616011Y-70015326D01*
X147593702Y-70007294D01*
X147593427Y-70007164D01*
X147593419Y-70007161D01*
X147586248Y-70003787D01*
X147531081Y-69993264D01*
X147523372Y-69991541D01*
X147489379Y-69982813D01*
X147476637Y-69979541D01*
X147476636Y-69979541D01*
X147468960Y-69977570D01*
X147460723Y-69977570D01*
X147437114Y-69975338D01*
X147436811Y-69975280D01*
X147436807Y-69975280D01*
X147429024Y-69973795D01*
X147397729Y-69975764D01*
X147375454Y-69977165D01*
X147306212Y-69961480D01*
X147256442Y-69910849D01*
X147241946Y-69841348D01*
X147244342Y-69825002D01*
X147248005Y-69807914D01*
X147257672Y-69713562D01*
X147258000Y-69707146D01*
X147258000Y-69582115D01*
X147253525Y-69566876D01*
X147252135Y-69565671D01*
X147244452Y-69564000D01*
X144860116Y-69564000D01*
X144844877Y-69568475D01*
X144831468Y-69583949D01*
X144812633Y-69618442D01*
X144750321Y-69652467D01*
X144723539Y-69655346D01*
X142293825Y-69655346D01*
X142225704Y-69635344D01*
X142179211Y-69581688D01*
X142173763Y-69567082D01*
X142172135Y-69565671D01*
X142164452Y-69564000D01*
X139780116Y-69564000D01*
X139764877Y-69568475D01*
X139751468Y-69583949D01*
X139732633Y-69618442D01*
X139670321Y-69652467D01*
X139643539Y-69655346D01*
X138661702Y-69655346D01*
X138593581Y-69635344D01*
X138547088Y-69581688D01*
X138539498Y-69560042D01*
X138499183Y-69399541D01*
X138499183Y-69399540D01*
X138497925Y-69394533D01*
X138495841Y-69389740D01*
X138407630Y-69186868D01*
X138407628Y-69186865D01*
X138405570Y-69182131D01*
X138279764Y-68987665D01*
X138211738Y-68912905D01*
X138189848Y-68888848D01*
X138158796Y-68825002D01*
X138167192Y-68754504D01*
X138212369Y-68699736D01*
X138238812Y-68686067D01*
X138298297Y-68663767D01*
X138306705Y-68660615D01*
X138423261Y-68573261D01*
X138510615Y-68456705D01*
X138561745Y-68320316D01*
X138568500Y-68258134D01*
X138568500Y-68069500D01*
X138588502Y-68001379D01*
X138642158Y-67954886D01*
X138694500Y-67943500D01*
X139733219Y-67943500D01*
X139801340Y-67963502D01*
X139840363Y-68003197D01*
X139921522Y-68134348D01*
X139926704Y-68139521D01*
X140008463Y-68221138D01*
X140042542Y-68283421D01*
X140037539Y-68354241D01*
X140008618Y-68399329D01*
X139926261Y-68481829D01*
X139917249Y-68493240D01*
X139832184Y-68631243D01*
X139826037Y-68644424D01*
X139774862Y-68798710D01*
X139771995Y-68812086D01*
X139762328Y-68906438D01*
X139762000Y-68912855D01*
X139762000Y-69037885D01*
X139766475Y-69053124D01*
X139767865Y-69054329D01*
X139775548Y-69056000D01*
X142159884Y-69056000D01*
X142175123Y-69051525D01*
X142176328Y-69050135D01*
X142177999Y-69042452D01*
X142177999Y-68912905D01*
X142177662Y-68906386D01*
X142167743Y-68810794D01*
X142164851Y-68797400D01*
X142113412Y-68643216D01*
X142107239Y-68630038D01*
X142021937Y-68492193D01*
X142012901Y-68480792D01*
X141931538Y-68399570D01*
X141897459Y-68337287D01*
X141902462Y-68266467D01*
X141931383Y-68221380D01*
X142014130Y-68138488D01*
X142014134Y-68138483D01*
X142019305Y-68133303D01*
X142058634Y-68069500D01*
X142108275Y-67988968D01*
X142108276Y-67988966D01*
X142112115Y-67982738D01*
X142151572Y-67863779D01*
X142165632Y-67821389D01*
X142165632Y-67821387D01*
X142167797Y-67814861D01*
X142171356Y-67780131D01*
X142178172Y-67713598D01*
X142178500Y-67710400D01*
X142178500Y-66909600D01*
X142173364Y-66860100D01*
X142168238Y-66810692D01*
X142168237Y-66810688D01*
X142167526Y-66803834D01*
X142161812Y-66786705D01*
X142113868Y-66643002D01*
X142111550Y-66636054D01*
X142018478Y-66485652D01*
X141893303Y-66360695D01*
X141826046Y-66319237D01*
X141748968Y-66271725D01*
X141748966Y-66271724D01*
X141742738Y-66267885D01*
X141662995Y-66241436D01*
X141581389Y-66214368D01*
X141581387Y-66214368D01*
X141574861Y-66212203D01*
X141568025Y-66211503D01*
X141568022Y-66211502D01*
X141524969Y-66207091D01*
X141470400Y-66201500D01*
X140469600Y-66201500D01*
X140466354Y-66201837D01*
X140466350Y-66201837D01*
X140370692Y-66211762D01*
X140370688Y-66211763D01*
X140363834Y-66212474D01*
X140357298Y-66214655D01*
X140357296Y-66214655D01*
X140225194Y-66258728D01*
X140196054Y-66268450D01*
X140045652Y-66361522D01*
X140040479Y-66366704D01*
X140021797Y-66385419D01*
X139920695Y-66486697D01*
X139916855Y-66492927D01*
X139916854Y-66492928D01*
X139840611Y-66616616D01*
X139787838Y-66664110D01*
X139733351Y-66676500D01*
X138694500Y-66676500D01*
X138626379Y-66656498D01*
X138579886Y-66602842D01*
X138568500Y-66550500D01*
X138568500Y-66361866D01*
X138561745Y-66299684D01*
X138510615Y-66163295D01*
X138423261Y-66046739D01*
X138306705Y-65959385D01*
X138170316Y-65908255D01*
X138108134Y-65901500D01*
X136211866Y-65901500D01*
X136149684Y-65908255D01*
X136013295Y-65959385D01*
X135896739Y-66046739D01*
X135809385Y-66163295D01*
X135758255Y-66299684D01*
X135751500Y-66361866D01*
X135751500Y-68258134D01*
X135758255Y-68320316D01*
X135809385Y-68456705D01*
X135896739Y-68573261D01*
X136013295Y-68660615D01*
X136021704Y-68663767D01*
X136021705Y-68663768D01*
X136081164Y-68686058D01*
X136137929Y-68728699D01*
X136162629Y-68795261D01*
X136147422Y-68864609D01*
X136128029Y-68891091D01*
X136061639Y-68960564D01*
X136058725Y-68964836D01*
X136058724Y-68964837D01*
X136044205Y-68986121D01*
X135931119Y-69151899D01*
X135833602Y-69361981D01*
X135771707Y-69585169D01*
X135747095Y-69815469D01*
X135747392Y-69820622D01*
X135747392Y-69820625D01*
X135759279Y-70026793D01*
X135760427Y-70046697D01*
X135761564Y-70051743D01*
X135761565Y-70051749D01*
X135784524Y-70153624D01*
X135811346Y-70272642D01*
X135813288Y-70277424D01*
X135813289Y-70277428D01*
X135878388Y-70437747D01*
X135898484Y-70487237D01*
X135920965Y-70523923D01*
X135944197Y-70561834D01*
X135962735Y-70630368D01*
X135941279Y-70698045D01*
X135886639Y-70743377D01*
X135816165Y-70751974D01*
X135747669Y-70716764D01*
X135468652Y-70437747D01*
X135461112Y-70429461D01*
X135457000Y-70422982D01*
X135407348Y-70376356D01*
X135404507Y-70373602D01*
X135384770Y-70353865D01*
X135381573Y-70351385D01*
X135372551Y-70343680D01*
X135367775Y-70339195D01*
X135340321Y-70313414D01*
X135333375Y-70309595D01*
X135333372Y-70309593D01*
X135322566Y-70303652D01*
X135306047Y-70292801D01*
X135304972Y-70291967D01*
X135290041Y-70280386D01*
X135282772Y-70277241D01*
X135282768Y-70277238D01*
X135249463Y-70262826D01*
X135238813Y-70257609D01*
X135200060Y-70236305D01*
X135180437Y-70231267D01*
X135161734Y-70224863D01*
X135150420Y-70219967D01*
X135150419Y-70219967D01*
X135143145Y-70216819D01*
X135135322Y-70215580D01*
X135135312Y-70215577D01*
X135099476Y-70209901D01*
X135087856Y-70207495D01*
X135052711Y-70198472D01*
X135052710Y-70198472D01*
X135045030Y-70196500D01*
X135024776Y-70196500D01*
X135005065Y-70194949D01*
X134992886Y-70193020D01*
X134985057Y-70191780D01*
X134977165Y-70192526D01*
X134941039Y-70195941D01*
X134929181Y-70196500D01*
X131626566Y-70196500D01*
X131558445Y-70176498D01*
X131519133Y-70136335D01*
X131401759Y-69944798D01*
X131401755Y-69944792D01*
X131399176Y-69940584D01*
X131244969Y-69760031D01*
X131064416Y-69605824D01*
X131060208Y-69603245D01*
X131060202Y-69603241D01*
X130866183Y-69484346D01*
X130861963Y-69481760D01*
X130857393Y-69479867D01*
X130857389Y-69479865D01*
X130647167Y-69392789D01*
X130647165Y-69392788D01*
X130642594Y-69390895D01*
X130562391Y-69371640D01*
X130416524Y-69336620D01*
X130416518Y-69336619D01*
X130411711Y-69335465D01*
X130175000Y-69316835D01*
X129938289Y-69335465D01*
X129933482Y-69336619D01*
X129933476Y-69336620D01*
X129787609Y-69371640D01*
X129707406Y-69390895D01*
X129702835Y-69392788D01*
X129702833Y-69392789D01*
X129492611Y-69479865D01*
X129492607Y-69479867D01*
X129488037Y-69481760D01*
X129483817Y-69484346D01*
X129289798Y-69603241D01*
X129289792Y-69603245D01*
X129285584Y-69605824D01*
X129105031Y-69760031D01*
X128950824Y-69940584D01*
X128948245Y-69944792D01*
X128948241Y-69944798D01*
X128830867Y-70136335D01*
X128778219Y-70183966D01*
X128723434Y-70196500D01*
X125126566Y-70196500D01*
X125058445Y-70176498D01*
X125019133Y-70136335D01*
X124901759Y-69944798D01*
X124901755Y-69944792D01*
X124899176Y-69940584D01*
X124744969Y-69760031D01*
X124564416Y-69605824D01*
X124560208Y-69603245D01*
X124560202Y-69603241D01*
X124366183Y-69484346D01*
X124361963Y-69481760D01*
X124357393Y-69479867D01*
X124357389Y-69479865D01*
X124147167Y-69392789D01*
X124147165Y-69392788D01*
X124142594Y-69390895D01*
X124062391Y-69371640D01*
X123916524Y-69336620D01*
X123916518Y-69336619D01*
X123911711Y-69335465D01*
X123675000Y-69316835D01*
X123438289Y-69335465D01*
X123433482Y-69336619D01*
X123433476Y-69336620D01*
X123287609Y-69371640D01*
X123207406Y-69390895D01*
X123202835Y-69392788D01*
X123202833Y-69392789D01*
X122992611Y-69479865D01*
X122992607Y-69479867D01*
X122988037Y-69481760D01*
X122983817Y-69484346D01*
X122789798Y-69603241D01*
X122789792Y-69603245D01*
X122785584Y-69605824D01*
X122605031Y-69760031D01*
X122450824Y-69940584D01*
X122448245Y-69944792D01*
X122448241Y-69944798D01*
X122362461Y-70084778D01*
X122326760Y-70143037D01*
X122324867Y-70147607D01*
X122324865Y-70147611D01*
X122242941Y-70345395D01*
X122235895Y-70362406D01*
X122234740Y-70367218D01*
X122229291Y-70389914D01*
X122193939Y-70451483D01*
X122130912Y-70484166D01*
X122106772Y-70486500D01*
X118514826Y-70486500D01*
X118446705Y-70466498D01*
X118400212Y-70412842D01*
X118390108Y-70342568D01*
X118405269Y-70298266D01*
X118425769Y-70262179D01*
X118488197Y-70074513D01*
X118512985Y-69878295D01*
X118513380Y-69850000D01*
X118494080Y-69653167D01*
X118479007Y-69603241D01*
X118438697Y-69469731D01*
X118436916Y-69463831D01*
X118344066Y-69289204D01*
X118340170Y-69284427D01*
X118339404Y-69283274D01*
X118318366Y-69215466D01*
X118334795Y-69151308D01*
X118422262Y-68997337D01*
X118427256Y-68986121D01*
X118472142Y-68851190D01*
X118472643Y-68837097D01*
X118466454Y-68834000D01*
X116542282Y-68834000D01*
X116528751Y-68837973D01*
X116527601Y-68845975D01*
X116556552Y-68946941D01*
X116561067Y-68958345D01*
X116645794Y-69123207D01*
X116652432Y-69133507D01*
X116654131Y-69135650D01*
X116654667Y-69136975D01*
X116655774Y-69138692D01*
X116655448Y-69138902D01*
X116680770Y-69201460D01*
X116667600Y-69271224D01*
X116663979Y-69277316D01*
X116663846Y-69277474D01*
X116663370Y-69278341D01*
X116663364Y-69278350D01*
X116596738Y-69399544D01*
X116568567Y-69450787D01*
X116566706Y-69456654D01*
X116566705Y-69456656D01*
X116516743Y-69614156D01*
X116508765Y-69639306D01*
X116486719Y-69835851D01*
X116487701Y-69847548D01*
X116501962Y-70017375D01*
X116503268Y-70032934D01*
X116520001Y-70091290D01*
X116554013Y-70209901D01*
X116557783Y-70223050D01*
X116560602Y-70228535D01*
X116636573Y-70376357D01*
X116648187Y-70398956D01*
X116652016Y-70403787D01*
X116653839Y-70406088D01*
X116654414Y-70407509D01*
X116655353Y-70408966D01*
X116655076Y-70409144D01*
X116680474Y-70471898D01*
X116667301Y-70541662D01*
X116663846Y-70547474D01*
X116568567Y-70720787D01*
X116566706Y-70726654D01*
X116566705Y-70726656D01*
X116520073Y-70873658D01*
X116508765Y-70909306D01*
X116486719Y-71105851D01*
X116488292Y-71124584D01*
X116499097Y-71253257D01*
X116503268Y-71302934D01*
X116515346Y-71345056D01*
X116552904Y-71476034D01*
X116557783Y-71493050D01*
X116648187Y-71668956D01*
X116652016Y-71673787D01*
X116653839Y-71676088D01*
X116654414Y-71677509D01*
X116655353Y-71678966D01*
X116655076Y-71679144D01*
X116680474Y-71741898D01*
X116667301Y-71811662D01*
X116663846Y-71817474D01*
X116568567Y-71990787D01*
X116566706Y-71996654D01*
X116566705Y-71996656D01*
X116514393Y-72161564D01*
X116508765Y-72179306D01*
X116486719Y-72375851D01*
X116489182Y-72405181D01*
X116502581Y-72564749D01*
X116503268Y-72572934D01*
X116504967Y-72578858D01*
X116548277Y-72729898D01*
X116557783Y-72763050D01*
X116560602Y-72768535D01*
X116599851Y-72844904D01*
X116648187Y-72938956D01*
X116771035Y-73093953D01*
X116775728Y-73097947D01*
X116775729Y-73097948D01*
X116909125Y-73211476D01*
X116921650Y-73222136D01*
X117094294Y-73318624D01*
X117282392Y-73379740D01*
X117478777Y-73403158D01*
X117484912Y-73402686D01*
X117484914Y-73402686D01*
X117669830Y-73388457D01*
X117669834Y-73388456D01*
X117675972Y-73387984D01*
X117866463Y-73334798D01*
X117871967Y-73332018D01*
X117871969Y-73332017D01*
X118037495Y-73248404D01*
X118037497Y-73248403D01*
X118042996Y-73245625D01*
X118198847Y-73123861D01*
X118328078Y-72974145D01*
X118425769Y-72802179D01*
X118442167Y-72752885D01*
X132752000Y-72752885D01*
X132756475Y-72768124D01*
X132757865Y-72769329D01*
X132765548Y-72771000D01*
X133712885Y-72771000D01*
X133728124Y-72766525D01*
X133729329Y-72765135D01*
X133731000Y-72757452D01*
X133731000Y-72752885D01*
X134239000Y-72752885D01*
X134243475Y-72768124D01*
X134244865Y-72769329D01*
X134252548Y-72771000D01*
X135199884Y-72771000D01*
X135215123Y-72766525D01*
X135216328Y-72765135D01*
X135217999Y-72757452D01*
X135217999Y-72640405D01*
X135217662Y-72633886D01*
X135207743Y-72538294D01*
X135204851Y-72524900D01*
X135153412Y-72370716D01*
X135147239Y-72357538D01*
X135061937Y-72219693D01*
X135052901Y-72208292D01*
X134938171Y-72093761D01*
X134926760Y-72084749D01*
X134788757Y-71999684D01*
X134775576Y-71993537D01*
X134621290Y-71942362D01*
X134607914Y-71939495D01*
X134513562Y-71929828D01*
X134507145Y-71929500D01*
X134257115Y-71929500D01*
X134241876Y-71933975D01*
X134240671Y-71935365D01*
X134239000Y-71943048D01*
X134239000Y-72752885D01*
X133731000Y-72752885D01*
X133731000Y-71947616D01*
X133726525Y-71932377D01*
X133725135Y-71931172D01*
X133717452Y-71929501D01*
X133462905Y-71929501D01*
X133456386Y-71929838D01*
X133360794Y-71939757D01*
X133347400Y-71942649D01*
X133193216Y-71994088D01*
X133180038Y-72000261D01*
X133042193Y-72085563D01*
X133030792Y-72094599D01*
X132916261Y-72209329D01*
X132907249Y-72220740D01*
X132822184Y-72358743D01*
X132816037Y-72371924D01*
X132764862Y-72526210D01*
X132761995Y-72539586D01*
X132752328Y-72633938D01*
X132752000Y-72640355D01*
X132752000Y-72752885D01*
X118442167Y-72752885D01*
X118488197Y-72614513D01*
X118512985Y-72418295D01*
X118513380Y-72390000D01*
X118494080Y-72193167D01*
X118490146Y-72180135D01*
X118465387Y-72098131D01*
X118436916Y-72003831D01*
X118434024Y-71998392D01*
X118434022Y-71998387D01*
X118402261Y-71938652D01*
X118387942Y-71869115D01*
X118413490Y-71802874D01*
X118470795Y-71760962D01*
X118513513Y-71753500D01*
X122421849Y-71753500D01*
X122489970Y-71773502D01*
X122517659Y-71797669D01*
X122529610Y-71811662D01*
X122601813Y-71896202D01*
X122601818Y-71896207D01*
X122605031Y-71899969D01*
X122785584Y-72054176D01*
X122789792Y-72056755D01*
X122789798Y-72056759D01*
X122960824Y-72161564D01*
X122988037Y-72178240D01*
X122992607Y-72180133D01*
X122992611Y-72180135D01*
X123202833Y-72267211D01*
X123207406Y-72269105D01*
X123287609Y-72288360D01*
X123433476Y-72323380D01*
X123433482Y-72323381D01*
X123438289Y-72324535D01*
X123675000Y-72343165D01*
X123911711Y-72324535D01*
X123916518Y-72323381D01*
X123916524Y-72323380D01*
X124062391Y-72288360D01*
X124142594Y-72269105D01*
X124147167Y-72267211D01*
X124357389Y-72180135D01*
X124357393Y-72180133D01*
X124361963Y-72178240D01*
X124389176Y-72161564D01*
X124560202Y-72056759D01*
X124560208Y-72056755D01*
X124564416Y-72054176D01*
X124744969Y-71899969D01*
X124899176Y-71719416D01*
X124901755Y-71715208D01*
X124901759Y-71715202D01*
X125019133Y-71523665D01*
X125071781Y-71476034D01*
X125126566Y-71463500D01*
X128723434Y-71463500D01*
X128791555Y-71483502D01*
X128830867Y-71523665D01*
X128948241Y-71715202D01*
X128948245Y-71715208D01*
X128950824Y-71719416D01*
X129105031Y-71899969D01*
X129285584Y-72054176D01*
X129289792Y-72056755D01*
X129289798Y-72056759D01*
X129460824Y-72161564D01*
X129488037Y-72178240D01*
X129492607Y-72180133D01*
X129492611Y-72180135D01*
X129702833Y-72267211D01*
X129707406Y-72269105D01*
X129787609Y-72288360D01*
X129933476Y-72323380D01*
X129933482Y-72323381D01*
X129938289Y-72324535D01*
X130175000Y-72343165D01*
X130411711Y-72324535D01*
X130416518Y-72323381D01*
X130416524Y-72323380D01*
X130562391Y-72288360D01*
X130642594Y-72269105D01*
X130647167Y-72267211D01*
X130857389Y-72180135D01*
X130857393Y-72180133D01*
X130861963Y-72178240D01*
X130889176Y-72161564D01*
X131060202Y-72056759D01*
X131060208Y-72056755D01*
X131064416Y-72054176D01*
X131244969Y-71899969D01*
X131399176Y-71719416D01*
X131401755Y-71715208D01*
X131401759Y-71715202D01*
X131519133Y-71523665D01*
X131571781Y-71476034D01*
X131626566Y-71463500D01*
X134650406Y-71463500D01*
X134718527Y-71483502D01*
X134739501Y-71500405D01*
X135889595Y-72650500D01*
X135923621Y-72712812D01*
X135926500Y-72739595D01*
X135926500Y-73408500D01*
X135906498Y-73476621D01*
X135852842Y-73523114D01*
X135800500Y-73534500D01*
X135587767Y-73534500D01*
X135576584Y-73533973D01*
X135569091Y-73532298D01*
X135561165Y-73532547D01*
X135561164Y-73532547D01*
X135501014Y-73534438D01*
X135497055Y-73534500D01*
X135469144Y-73534500D01*
X135465210Y-73534997D01*
X135465209Y-73534997D01*
X135465144Y-73535005D01*
X135453307Y-73535938D01*
X135421049Y-73536952D01*
X135417030Y-73537078D01*
X135409111Y-73537327D01*
X135389657Y-73542979D01*
X135370304Y-73546986D01*
X135359251Y-73548383D01*
X135289161Y-73537074D01*
X135236312Y-73489668D01*
X135217627Y-73416948D01*
X135218000Y-73409646D01*
X135218000Y-73297115D01*
X135213525Y-73281876D01*
X135212135Y-73280671D01*
X135204452Y-73279000D01*
X132770116Y-73279000D01*
X132754877Y-73283475D01*
X132753672Y-73284865D01*
X132752001Y-73292548D01*
X132752001Y-73409595D01*
X132752338Y-73416114D01*
X132762257Y-73511706D01*
X132765149Y-73525100D01*
X132816588Y-73679284D01*
X132822761Y-73692462D01*
X132908063Y-73830307D01*
X132917099Y-73841708D01*
X133031828Y-73956238D01*
X133040762Y-73963294D01*
X133081823Y-74021212D01*
X133085053Y-74092135D01*
X133049426Y-74153546D01*
X133041593Y-74160346D01*
X133035652Y-74164022D01*
X132982008Y-74217760D01*
X132965279Y-74234518D01*
X132902997Y-74268597D01*
X132876106Y-74271500D01*
X121367056Y-74271500D01*
X121355200Y-74270941D01*
X121355197Y-74270941D01*
X121347463Y-74269212D01*
X121292446Y-74270941D01*
X121276631Y-74271438D01*
X121272673Y-74271500D01*
X121243568Y-74271500D01*
X121239168Y-74272056D01*
X121227336Y-74272988D01*
X121181169Y-74274438D01*
X121160579Y-74280420D01*
X121141218Y-74284430D01*
X121134230Y-74285312D01*
X121127796Y-74286125D01*
X121127795Y-74286125D01*
X121119936Y-74287118D01*
X121112571Y-74290034D01*
X121112567Y-74290035D01*
X121076979Y-74304126D01*
X121065769Y-74307965D01*
X121021400Y-74320855D01*
X121002935Y-74331775D01*
X120985195Y-74340466D01*
X120965244Y-74348365D01*
X120927874Y-74375516D01*
X120917952Y-74382033D01*
X120878192Y-74405547D01*
X120876482Y-74402656D01*
X120824719Y-74423002D01*
X120813530Y-74423500D01*
X116646595Y-74423500D01*
X116578474Y-74403498D01*
X116557499Y-74386595D01*
X116113404Y-73942499D01*
X116079379Y-73880187D01*
X116076500Y-73853404D01*
X116076500Y-67116595D01*
X116096502Y-67048474D01*
X116113405Y-67027499D01*
X116360913Y-66779992D01*
X116423225Y-66745967D01*
X116494041Y-66751032D01*
X116550876Y-66793579D01*
X116575687Y-66860100D01*
X116567227Y-66910362D01*
X116568567Y-66910787D01*
X116536409Y-67012163D01*
X116508765Y-67099306D01*
X116486719Y-67295851D01*
X116503268Y-67492934D01*
X116557783Y-67683050D01*
X116560602Y-67688535D01*
X116640277Y-67843564D01*
X116648187Y-67858956D01*
X116654164Y-67866497D01*
X116654843Y-67868174D01*
X116655353Y-67868966D01*
X116655203Y-67869063D01*
X116680802Y-67932304D01*
X116667633Y-68002069D01*
X116664254Y-68007754D01*
X116664262Y-68007758D01*
X116571998Y-68175585D01*
X116567166Y-68186858D01*
X116528506Y-68308731D01*
X116528202Y-68322831D01*
X116534763Y-68326000D01*
X118458183Y-68326000D01*
X118471714Y-68322027D01*
X118472806Y-68314433D01*
X118438231Y-68199919D01*
X118433558Y-68188581D01*
X118401694Y-68128652D01*
X118387375Y-68059115D01*
X118412923Y-67992874D01*
X118470229Y-67950962D01*
X118512946Y-67943500D01*
X120317233Y-67943500D01*
X120328416Y-67944027D01*
X120335909Y-67945702D01*
X120343835Y-67945453D01*
X120343836Y-67945453D01*
X120403986Y-67943562D01*
X120407945Y-67943500D01*
X120435856Y-67943500D01*
X120439791Y-67943003D01*
X120439856Y-67942995D01*
X120451693Y-67942062D01*
X120483951Y-67941048D01*
X120487970Y-67940922D01*
X120495889Y-67940673D01*
X120515343Y-67935021D01*
X120534700Y-67931013D01*
X120546930Y-67929468D01*
X120546931Y-67929468D01*
X120554797Y-67928474D01*
X120562168Y-67925555D01*
X120562170Y-67925555D01*
X120595912Y-67912196D01*
X120607142Y-67908351D01*
X120641983Y-67898229D01*
X120641984Y-67898229D01*
X120649593Y-67896018D01*
X120656412Y-67891985D01*
X120656417Y-67891983D01*
X120667028Y-67885707D01*
X120684776Y-67877012D01*
X120703617Y-67869552D01*
X120718202Y-67858956D01*
X120739387Y-67843564D01*
X120749307Y-67837048D01*
X120780535Y-67818580D01*
X120780538Y-67818578D01*
X120787362Y-67814542D01*
X120801683Y-67800221D01*
X120816717Y-67787380D01*
X120826694Y-67780131D01*
X120833107Y-67775472D01*
X120861298Y-67741395D01*
X120869288Y-67732616D01*
X121039234Y-67562670D01*
X122807160Y-67562670D01*
X122812887Y-67570320D01*
X122984042Y-67675205D01*
X122992837Y-67679687D01*
X123202988Y-67766734D01*
X123212373Y-67769783D01*
X123433554Y-67822885D01*
X123443301Y-67824428D01*
X123670070Y-67842275D01*
X123679930Y-67842275D01*
X123906699Y-67824428D01*
X123916446Y-67822885D01*
X124137627Y-67769783D01*
X124147012Y-67766734D01*
X124357163Y-67679687D01*
X124365958Y-67675205D01*
X124533445Y-67572568D01*
X124542400Y-67562670D01*
X129307160Y-67562670D01*
X129312887Y-67570320D01*
X129484042Y-67675205D01*
X129492837Y-67679687D01*
X129702988Y-67766734D01*
X129712373Y-67769783D01*
X129933554Y-67822885D01*
X129943301Y-67824428D01*
X130170070Y-67842275D01*
X130179930Y-67842275D01*
X130406699Y-67824428D01*
X130416446Y-67822885D01*
X130637627Y-67769783D01*
X130647012Y-67766734D01*
X130857163Y-67679687D01*
X130865958Y-67675205D01*
X131033445Y-67572568D01*
X131042907Y-67562110D01*
X131039124Y-67553334D01*
X130187812Y-66702022D01*
X130173868Y-66694408D01*
X130172035Y-66694539D01*
X130165420Y-66698790D01*
X129313920Y-67550290D01*
X129307160Y-67562670D01*
X124542400Y-67562670D01*
X124542907Y-67562110D01*
X124539124Y-67553334D01*
X123687812Y-66702022D01*
X123673868Y-66694408D01*
X123672035Y-66694539D01*
X123665420Y-66698790D01*
X122813920Y-67550290D01*
X122807160Y-67562670D01*
X121039234Y-67562670D01*
X121993663Y-66608241D01*
X122055975Y-66574215D01*
X122126790Y-66579280D01*
X122183626Y-66621827D01*
X122205276Y-66667921D01*
X122235214Y-66792618D01*
X122238266Y-66802012D01*
X122325313Y-67012163D01*
X122329795Y-67020958D01*
X122432432Y-67188445D01*
X122442890Y-67197907D01*
X122451666Y-67194124D01*
X123585905Y-66059885D01*
X123648217Y-66025859D01*
X123719032Y-66030924D01*
X123764095Y-66059885D01*
X124895290Y-67191080D01*
X124907670Y-67197840D01*
X124915320Y-67192113D01*
X125020205Y-67020958D01*
X125024687Y-67012163D01*
X125111734Y-66802012D01*
X125114783Y-66792627D01*
X125167885Y-66571446D01*
X125169428Y-66561699D01*
X125187275Y-66334930D01*
X125187275Y-66325070D01*
X125169428Y-66098301D01*
X125167885Y-66088554D01*
X125114783Y-65867373D01*
X125111734Y-65857988D01*
X125042056Y-65689771D01*
X125034467Y-65619181D01*
X125066246Y-65555694D01*
X125127304Y-65519467D01*
X125158465Y-65515553D01*
X128691535Y-65515553D01*
X128759656Y-65535555D01*
X128806149Y-65589211D01*
X128816253Y-65659485D01*
X128807944Y-65689771D01*
X128738266Y-65857988D01*
X128735217Y-65867373D01*
X128682115Y-66088554D01*
X128680572Y-66098301D01*
X128662725Y-66325070D01*
X128662725Y-66334930D01*
X128680572Y-66561699D01*
X128682115Y-66571446D01*
X128735217Y-66792627D01*
X128738266Y-66802012D01*
X128825313Y-67012163D01*
X128829795Y-67020958D01*
X128932432Y-67188445D01*
X128942890Y-67197907D01*
X128951666Y-67194124D01*
X130085905Y-66059885D01*
X130148217Y-66025859D01*
X130219032Y-66030924D01*
X130264095Y-66059885D01*
X131395290Y-67191080D01*
X131407670Y-67197840D01*
X131415320Y-67192113D01*
X131520205Y-67020958D01*
X131524687Y-67012163D01*
X131611734Y-66802012D01*
X131614783Y-66792627D01*
X131667885Y-66571446D01*
X131669428Y-66561699D01*
X131687275Y-66334930D01*
X131687275Y-66325070D01*
X131669428Y-66098301D01*
X131667885Y-66088554D01*
X131614783Y-65867373D01*
X131611734Y-65857988D01*
X131542056Y-65689771D01*
X131534467Y-65619181D01*
X131566246Y-65555694D01*
X131627304Y-65519467D01*
X131658465Y-65515553D01*
X151498316Y-65515553D01*
X151566437Y-65535555D01*
X151612930Y-65589211D01*
X151623626Y-65628382D01*
X151633458Y-65721928D01*
X151692473Y-65903556D01*
X151695776Y-65909278D01*
X151695777Y-65909279D01*
X151722886Y-65956233D01*
X151787960Y-66068944D01*
X151792378Y-66073851D01*
X151792379Y-66073852D01*
X151907314Y-66201500D01*
X151915747Y-66210866D01*
X151991814Y-66266132D01*
X152060150Y-66315781D01*
X152070248Y-66323118D01*
X152076276Y-66325802D01*
X152076278Y-66325803D01*
X152238681Y-66398109D01*
X152244712Y-66400794D01*
X152338112Y-66420647D01*
X152425056Y-66439128D01*
X152425061Y-66439128D01*
X152431513Y-66440500D01*
X152622487Y-66440500D01*
X152628939Y-66439128D01*
X152628944Y-66439128D01*
X152715888Y-66420647D01*
X152809288Y-66400794D01*
X152815319Y-66398109D01*
X152977722Y-66325803D01*
X152977724Y-66325802D01*
X152983752Y-66323118D01*
X152993851Y-66315781D01*
X153062186Y-66266132D01*
X153138253Y-66210866D01*
X153146686Y-66201500D01*
X153261621Y-66073852D01*
X153261622Y-66073851D01*
X153266040Y-66068944D01*
X153331114Y-65956233D01*
X153358223Y-65909279D01*
X153358224Y-65909278D01*
X153361527Y-65903556D01*
X153420542Y-65721928D01*
X153440504Y-65532000D01*
X153428893Y-65421526D01*
X153421232Y-65348635D01*
X153421232Y-65348633D01*
X153420542Y-65342072D01*
X153361527Y-65160444D01*
X153266040Y-64995056D01*
X153138253Y-64853134D01*
X152983752Y-64740882D01*
X152977724Y-64738198D01*
X152977722Y-64738197D01*
X152815319Y-64665891D01*
X152815318Y-64665891D01*
X152809288Y-64663206D01*
X152650225Y-64629396D01*
X152587752Y-64595667D01*
X152578253Y-64585135D01*
X152524328Y-64518113D01*
X152516113Y-64506643D01*
X152500301Y-64481728D01*
X152500299Y-64481726D01*
X152496053Y-64475035D01*
X152490275Y-64469609D01*
X152489206Y-64468317D01*
X152461195Y-64403080D01*
X152472900Y-64333055D01*
X152520606Y-64280475D01*
X152586289Y-64262000D01*
X165735737Y-64262000D01*
X165803858Y-64282002D01*
X165850351Y-64335658D01*
X165861737Y-64388262D01*
X165831800Y-78747172D01*
X165800262Y-93874214D01*
X165780118Y-93942293D01*
X165726365Y-93988674D01*
X165674213Y-93999951D01*
X133183484Y-93987333D01*
X114425951Y-93980049D01*
X114357838Y-93960020D01*
X114311366Y-93906347D01*
X114300000Y-93854049D01*
X114300000Y-77197885D01*
X116117000Y-77197885D01*
X116121475Y-77213124D01*
X116122865Y-77214329D01*
X116130548Y-77216000D01*
X117202885Y-77216000D01*
X117218124Y-77211525D01*
X117219329Y-77210135D01*
X117221000Y-77202452D01*
X117221000Y-77197885D01*
X117729000Y-77197885D01*
X117733475Y-77213124D01*
X117734865Y-77214329D01*
X117742548Y-77216000D01*
X118814884Y-77216000D01*
X118830123Y-77211525D01*
X118831328Y-77210135D01*
X118832999Y-77202452D01*
X118832999Y-76575331D01*
X118832629Y-76568510D01*
X118827105Y-76517648D01*
X118823479Y-76502396D01*
X118778324Y-76381946D01*
X118769786Y-76366351D01*
X118693285Y-76264276D01*
X118680724Y-76251715D01*
X118578649Y-76175214D01*
X118563054Y-76166676D01*
X118442606Y-76121522D01*
X118427351Y-76117895D01*
X118376486Y-76112369D01*
X118369672Y-76112000D01*
X117747115Y-76112000D01*
X117731876Y-76116475D01*
X117730671Y-76117865D01*
X117729000Y-76125548D01*
X117729000Y-77197885D01*
X117221000Y-77197885D01*
X117221000Y-76130116D01*
X117216525Y-76114877D01*
X117215135Y-76113672D01*
X117207452Y-76112001D01*
X116580331Y-76112001D01*
X116573510Y-76112371D01*
X116522648Y-76117895D01*
X116507396Y-76121521D01*
X116386946Y-76166676D01*
X116371351Y-76175214D01*
X116269276Y-76251715D01*
X116256715Y-76264276D01*
X116180214Y-76366351D01*
X116171676Y-76381946D01*
X116126522Y-76502394D01*
X116122895Y-76517649D01*
X116117369Y-76568514D01*
X116117000Y-76575328D01*
X116117000Y-77197885D01*
X114300000Y-77197885D01*
X114300000Y-64388000D01*
X114320002Y-64319879D01*
X114373658Y-64273386D01*
X114426000Y-64262000D01*
X122243906Y-64262000D01*
X122312027Y-64282002D01*
G37*
%TD.AperFunction*%
%TA.AperFunction,Conductor*%
G36*
X154692829Y-78124200D02*
G01*
X154713803Y-78141103D01*
X158699595Y-82126895D01*
X158733621Y-82189207D01*
X158736500Y-82215990D01*
X158736500Y-83537405D01*
X158716498Y-83605526D01*
X158699595Y-83626500D01*
X156659279Y-85666816D01*
X156596967Y-85700842D01*
X156583793Y-85702984D01*
X156579302Y-85703472D01*
X156553684Y-85706255D01*
X156546288Y-85709027D01*
X156546282Y-85709029D01*
X156467093Y-85738716D01*
X156396286Y-85743899D01*
X156332212Y-85707664D01*
X156329472Y-85703893D01*
X156295406Y-85675711D01*
X156286627Y-85667722D01*
X155483405Y-84864500D01*
X155449379Y-84802188D01*
X155446500Y-84775405D01*
X155446500Y-84645387D01*
X155466502Y-84577266D01*
X155483405Y-84556291D01*
X155781420Y-84258277D01*
X156104560Y-83935137D01*
X156112839Y-83927603D01*
X156119320Y-83923490D01*
X156165946Y-83873838D01*
X156168700Y-83870997D01*
X156188437Y-83851260D01*
X156190917Y-83848063D01*
X156198622Y-83839041D01*
X156217278Y-83819174D01*
X156228888Y-83806811D01*
X156232707Y-83799865D01*
X156232709Y-83799862D01*
X156238650Y-83789056D01*
X156249501Y-83772537D01*
X156249861Y-83772073D01*
X156261916Y-83756531D01*
X156265061Y-83749262D01*
X156265064Y-83749258D01*
X156279476Y-83715953D01*
X156284693Y-83705303D01*
X156305997Y-83666550D01*
X156311035Y-83646927D01*
X156317439Y-83628224D01*
X156322335Y-83616910D01*
X156322335Y-83616909D01*
X156325483Y-83609635D01*
X156326722Y-83601812D01*
X156326725Y-83601802D01*
X156332401Y-83565966D01*
X156334807Y-83554346D01*
X156343830Y-83519201D01*
X156343830Y-83519200D01*
X156345802Y-83511520D01*
X156345802Y-83491266D01*
X156347353Y-83471555D01*
X156349282Y-83459376D01*
X156350522Y-83451547D01*
X156346361Y-83407528D01*
X156345802Y-83395671D01*
X156345802Y-80859669D01*
X156346329Y-80848485D01*
X156348003Y-80840997D01*
X156345864Y-80772938D01*
X156345802Y-80768981D01*
X156345802Y-80741050D01*
X156345296Y-80737044D01*
X156344363Y-80725198D01*
X156344278Y-80722474D01*
X156342975Y-80681016D01*
X156337324Y-80661564D01*
X156333316Y-80642212D01*
X156331769Y-80629969D01*
X156330776Y-80622109D01*
X156327858Y-80614738D01*
X156314502Y-80581003D01*
X156310657Y-80569776D01*
X156308359Y-80561866D01*
X156298320Y-80527313D01*
X156294286Y-80520491D01*
X156294283Y-80520485D01*
X156288008Y-80509874D01*
X156279312Y-80492124D01*
X156274774Y-80480662D01*
X156274771Y-80480657D01*
X156271854Y-80473289D01*
X156257756Y-80453884D01*
X156245875Y-80437531D01*
X156239359Y-80427613D01*
X156228054Y-80408498D01*
X156216844Y-80389543D01*
X156202520Y-80375219D01*
X156189678Y-80360184D01*
X156177774Y-80343799D01*
X156143708Y-80315617D01*
X156134929Y-80307628D01*
X154146594Y-78319293D01*
X154112568Y-78256981D01*
X154117633Y-78186166D01*
X154160180Y-78129330D01*
X154226700Y-78104519D01*
X154235689Y-78104198D01*
X154624708Y-78104198D01*
X154692829Y-78124200D01*
G37*
%TD.AperFunction*%
%TA.AperFunction,Conductor*%
G36*
X139535212Y-73255751D02*
G01*
X139545434Y-73265877D01*
X139588470Y-73313673D01*
X139596747Y-73322866D01*
X139679203Y-73382774D01*
X139736634Y-73424500D01*
X139751248Y-73435118D01*
X139757276Y-73437802D01*
X139757278Y-73437803D01*
X139908031Y-73504922D01*
X139925712Y-73512794D01*
X139987471Y-73525921D01*
X140049943Y-73559649D01*
X140081105Y-73610231D01*
X140135473Y-73777556D01*
X140230960Y-73942944D01*
X140235378Y-73947851D01*
X140235379Y-73947852D01*
X140354325Y-74079955D01*
X140358747Y-74084866D01*
X140443197Y-74146223D01*
X140486877Y-74177958D01*
X140513248Y-74197118D01*
X140519276Y-74199802D01*
X140519278Y-74199803D01*
X140681425Y-74271995D01*
X140687712Y-74274794D01*
X140759415Y-74290035D01*
X140868056Y-74313128D01*
X140868061Y-74313128D01*
X140874513Y-74314500D01*
X141065487Y-74314500D01*
X141071939Y-74313128D01*
X141071944Y-74313128D01*
X141180585Y-74290035D01*
X141252288Y-74274794D01*
X141258575Y-74271995D01*
X141420722Y-74199803D01*
X141420724Y-74199802D01*
X141426752Y-74197118D01*
X141453124Y-74177958D01*
X141575242Y-74089233D01*
X141581253Y-74084866D01*
X141585668Y-74079963D01*
X141590580Y-74075540D01*
X141591705Y-74076789D01*
X141645014Y-74043949D01*
X141678200Y-74039500D01*
X143150500Y-74039500D01*
X143218621Y-74059502D01*
X143265114Y-74113158D01*
X143276500Y-74165500D01*
X143276500Y-75205500D01*
X143256498Y-75273621D01*
X143202842Y-75320114D01*
X143150500Y-75331500D01*
X141821756Y-75331500D01*
X141817670Y-75332038D01*
X141817669Y-75332038D01*
X141715862Y-75345441D01*
X141715860Y-75345442D01*
X141707676Y-75346519D01*
X141700051Y-75349678D01*
X141692066Y-75351817D01*
X141691560Y-75349930D01*
X141658515Y-75356500D01*
X140808394Y-75356500D01*
X140740273Y-75336498D01*
X140734333Y-75332436D01*
X140670094Y-75285763D01*
X140670093Y-75285762D01*
X140664752Y-75281882D01*
X140658724Y-75279198D01*
X140658722Y-75279197D01*
X140496319Y-75206891D01*
X140496318Y-75206891D01*
X140490288Y-75204206D01*
X140396887Y-75184353D01*
X140309944Y-75165872D01*
X140309939Y-75165872D01*
X140303487Y-75164500D01*
X140112513Y-75164500D01*
X140106061Y-75165872D01*
X140106056Y-75165872D01*
X140019113Y-75184353D01*
X139925712Y-75204206D01*
X139919682Y-75206891D01*
X139919681Y-75206891D01*
X139757278Y-75279197D01*
X139757276Y-75279198D01*
X139751248Y-75281882D01*
X139596747Y-75394134D01*
X139592326Y-75399044D01*
X139592325Y-75399045D01*
X139490635Y-75511984D01*
X139468960Y-75536056D01*
X139432683Y-75598889D01*
X139379792Y-75690500D01*
X139373473Y-75701444D01*
X139314458Y-75883072D01*
X139313768Y-75889633D01*
X139313768Y-75889635D01*
X139297697Y-76042541D01*
X139294496Y-76073000D01*
X139295186Y-76079565D01*
X139312817Y-76247314D01*
X139314458Y-76262928D01*
X139317244Y-76271500D01*
X139318040Y-76273951D01*
X139320070Y-76344918D01*
X139283409Y-76405717D01*
X139224405Y-76436138D01*
X139045310Y-76474206D01*
X139039280Y-76476891D01*
X139039279Y-76476891D01*
X138876876Y-76549197D01*
X138876874Y-76549198D01*
X138870846Y-76551882D01*
X138865505Y-76555762D01*
X138865504Y-76555763D01*
X138847954Y-76568514D01*
X138716345Y-76664134D01*
X138711924Y-76669044D01*
X138711923Y-76669045D01*
X138593977Y-76800038D01*
X138588558Y-76806056D01*
X138493071Y-76971444D01*
X138434056Y-77153072D01*
X138433366Y-77159633D01*
X138433366Y-77159635D01*
X138427912Y-77211525D01*
X138414094Y-77343000D01*
X138414784Y-77349565D01*
X138432053Y-77513866D01*
X138434056Y-77532928D01*
X138436097Y-77539209D01*
X138436810Y-77541403D01*
X138436848Y-77542743D01*
X138437470Y-77545668D01*
X138436935Y-77545782D01*
X138438840Y-77612370D01*
X138402179Y-77673169D01*
X138338468Y-77704497D01*
X138338446Y-77704500D01*
X138334513Y-77704500D01*
X138328059Y-77705872D01*
X138328058Y-77705872D01*
X138316772Y-77708271D01*
X138147712Y-77744206D01*
X138141682Y-77746891D01*
X138141681Y-77746891D01*
X137979278Y-77819197D01*
X137979276Y-77819198D01*
X137973248Y-77821882D01*
X137967907Y-77825762D01*
X137967906Y-77825763D01*
X137953511Y-77836222D01*
X137818747Y-77934134D01*
X137814326Y-77939044D01*
X137814325Y-77939045D01*
X137699380Y-78066705D01*
X137690960Y-78076056D01*
X137643890Y-78157583D01*
X137601539Y-78230938D01*
X137595473Y-78241444D01*
X137536458Y-78423072D01*
X137535768Y-78429633D01*
X137535768Y-78429635D01*
X137534930Y-78437606D01*
X137516496Y-78613000D01*
X137517186Y-78619565D01*
X137533347Y-78773325D01*
X137536458Y-78802928D01*
X137595473Y-78984556D01*
X137690960Y-79149944D01*
X137695375Y-79154847D01*
X137695379Y-79154852D01*
X137738257Y-79202473D01*
X137818747Y-79291866D01*
X137880428Y-79336680D01*
X137960982Y-79395206D01*
X137973248Y-79404118D01*
X137979276Y-79406802D01*
X137979278Y-79406803D01*
X138141681Y-79479109D01*
X138147712Y-79481794D01*
X138241113Y-79501647D01*
X138328056Y-79520128D01*
X138328061Y-79520128D01*
X138334513Y-79521500D01*
X138525487Y-79521500D01*
X138531939Y-79520128D01*
X138531944Y-79520128D01*
X138618887Y-79501647D01*
X138712288Y-79481794D01*
X138718319Y-79479109D01*
X138880722Y-79406803D01*
X138880724Y-79406802D01*
X138886752Y-79404118D01*
X138899019Y-79395206D01*
X139026146Y-79302842D01*
X139041253Y-79291866D01*
X139045668Y-79286963D01*
X139050580Y-79282540D01*
X139051705Y-79283789D01*
X139105014Y-79250949D01*
X139138200Y-79246500D01*
X139548048Y-79246500D01*
X139616169Y-79266502D01*
X139662662Y-79320158D01*
X139672766Y-79390432D01*
X139643272Y-79455012D01*
X139622109Y-79474436D01*
X139469747Y-79585134D01*
X139465326Y-79590044D01*
X139465325Y-79590045D01*
X139407788Y-79653947D01*
X139341960Y-79727056D01*
X139308966Y-79784203D01*
X139251926Y-79883000D01*
X139246473Y-79892444D01*
X139187458Y-80074072D01*
X139186768Y-80080633D01*
X139186768Y-80080635D01*
X139174153Y-80200665D01*
X139167496Y-80264000D01*
X139168186Y-80270565D01*
X139185735Y-80437531D01*
X139187458Y-80453928D01*
X139246473Y-80635556D01*
X139249776Y-80641278D01*
X139249777Y-80641279D01*
X139268322Y-80673399D01*
X139341960Y-80800944D01*
X139346378Y-80805851D01*
X139346379Y-80805852D01*
X139432909Y-80901953D01*
X139469747Y-80942866D01*
X139543839Y-80996697D01*
X139609206Y-81044189D01*
X139624248Y-81055118D01*
X139630276Y-81057802D01*
X139630278Y-81057803D01*
X139792681Y-81130109D01*
X139798712Y-81132794D01*
X139884218Y-81150969D01*
X139979056Y-81171128D01*
X139979061Y-81171128D01*
X139985513Y-81172500D01*
X140176487Y-81172500D01*
X140182939Y-81171128D01*
X140182944Y-81171128D01*
X140277782Y-81150969D01*
X140363288Y-81132794D01*
X140369316Y-81130110D01*
X140370677Y-81129668D01*
X140409615Y-81123500D01*
X141069405Y-81123500D01*
X141137526Y-81143502D01*
X141184019Y-81197158D01*
X141194123Y-81267432D01*
X141164629Y-81332012D01*
X141158505Y-81338591D01*
X140993237Y-81503858D01*
X140871499Y-81625596D01*
X140809187Y-81659621D01*
X140782404Y-81662500D01*
X139506594Y-81662500D01*
X139438473Y-81642498D01*
X139417499Y-81625595D01*
X139147159Y-81355255D01*
X139118866Y-81305653D01*
X139117475Y-81306204D01*
X139096801Y-81253989D01*
X139094129Y-81246570D01*
X139076764Y-81193125D01*
X139072514Y-81186428D01*
X139072350Y-81186169D01*
X139061585Y-81165042D01*
X139061471Y-81164754D01*
X139061468Y-81164749D01*
X139058552Y-81157383D01*
X139053896Y-81150975D01*
X139053893Y-81150969D01*
X139025542Y-81111948D01*
X139021092Y-81105401D01*
X138991000Y-81057982D01*
X138984993Y-81052341D01*
X138969312Y-81034554D01*
X138969134Y-81034309D01*
X138969132Y-81034307D01*
X138964472Y-81027893D01*
X138942920Y-81010063D01*
X138921204Y-80992097D01*
X138915270Y-80986866D01*
X138880102Y-80953842D01*
X138880099Y-80953840D01*
X138874321Y-80948414D01*
X138867097Y-80944442D01*
X138847494Y-80931119D01*
X138847254Y-80930920D01*
X138847247Y-80930916D01*
X138841144Y-80925867D01*
X138790324Y-80901953D01*
X138783292Y-80898371D01*
X138734060Y-80871305D01*
X138726385Y-80869335D01*
X138726379Y-80869332D01*
X138726081Y-80869256D01*
X138703772Y-80861224D01*
X138703497Y-80861094D01*
X138703489Y-80861091D01*
X138696318Y-80857717D01*
X138641151Y-80847194D01*
X138633442Y-80845471D01*
X138599449Y-80836743D01*
X138586707Y-80833471D01*
X138586706Y-80833471D01*
X138579030Y-80831500D01*
X138570793Y-80831500D01*
X138547184Y-80829268D01*
X138546881Y-80829210D01*
X138546877Y-80829210D01*
X138539094Y-80827725D01*
X138483049Y-80831251D01*
X138475138Y-80831500D01*
X136765818Y-80831500D01*
X136699701Y-80812759D01*
X136687738Y-80805385D01*
X136589916Y-80772939D01*
X136526389Y-80751868D01*
X136526387Y-80751868D01*
X136519861Y-80749703D01*
X136513025Y-80749003D01*
X136513022Y-80749002D01*
X136469969Y-80744591D01*
X136415400Y-80739000D01*
X135364600Y-80739000D01*
X135361353Y-80739337D01*
X135360791Y-80739366D01*
X135291728Y-80722910D01*
X135242524Y-80671729D01*
X135228803Y-80602071D01*
X135254919Y-80536053D01*
X135260644Y-80529224D01*
X135354621Y-80424852D01*
X135354625Y-80424847D01*
X135359040Y-80419944D01*
X135445284Y-80270565D01*
X135451223Y-80260279D01*
X135451224Y-80260278D01*
X135454527Y-80254556D01*
X135513542Y-80072928D01*
X135516199Y-80047654D01*
X135532814Y-79889565D01*
X135533504Y-79883000D01*
X135524097Y-79793501D01*
X135514232Y-79699635D01*
X135514232Y-79699633D01*
X135513542Y-79693072D01*
X135454527Y-79511444D01*
X135359040Y-79346056D01*
X135335722Y-79320158D01*
X135235675Y-79209045D01*
X135235674Y-79209044D01*
X135231253Y-79204134D01*
X135098016Y-79107331D01*
X135082094Y-79095763D01*
X135082093Y-79095762D01*
X135076752Y-79091882D01*
X135070724Y-79089198D01*
X135070722Y-79089197D01*
X134908319Y-79016891D01*
X134908318Y-79016891D01*
X134902288Y-79014206D01*
X134789721Y-78990279D01*
X134721944Y-78975872D01*
X134721939Y-78975872D01*
X134715487Y-78974500D01*
X134524513Y-78974500D01*
X134518061Y-78975872D01*
X134518056Y-78975872D01*
X134450279Y-78990279D01*
X134337712Y-79014206D01*
X134331682Y-79016891D01*
X134331681Y-79016891D01*
X134169278Y-79089197D01*
X134169276Y-79089198D01*
X134163248Y-79091882D01*
X134157907Y-79095762D01*
X134157906Y-79095763D01*
X134141984Y-79107331D01*
X134008747Y-79204134D01*
X134004326Y-79209044D01*
X134004325Y-79209045D01*
X133904279Y-79320158D01*
X133880960Y-79346056D01*
X133785473Y-79511444D01*
X133726458Y-79693072D01*
X133725768Y-79699633D01*
X133725768Y-79699635D01*
X133722285Y-79732774D01*
X133711384Y-79836498D01*
X133709093Y-79858292D01*
X133682080Y-79923949D01*
X133672878Y-79934217D01*
X133439879Y-80167216D01*
X133377567Y-80201242D01*
X133306752Y-80196177D01*
X133249916Y-80153630D01*
X133225105Y-80087110D01*
X133224846Y-80074165D01*
X133224980Y-80069883D01*
X133226220Y-80062057D01*
X133222059Y-80018038D01*
X133221500Y-80006181D01*
X133221500Y-79315524D01*
X133241502Y-79247403D01*
X133253858Y-79231221D01*
X133327040Y-79149944D01*
X133422527Y-78984556D01*
X133481542Y-78802928D01*
X133484654Y-78773325D01*
X133500814Y-78619565D01*
X133501504Y-78613000D01*
X133483070Y-78437606D01*
X133482232Y-78429635D01*
X133482232Y-78429633D01*
X133481542Y-78423072D01*
X133422527Y-78241444D01*
X133353440Y-78121782D01*
X133336703Y-78052790D01*
X133359923Y-77985698D01*
X133368924Y-77974475D01*
X133449621Y-77884852D01*
X133449622Y-77884851D01*
X133454040Y-77879944D01*
X133536253Y-77737548D01*
X133546223Y-77720279D01*
X133546224Y-77720278D01*
X133549527Y-77714556D01*
X133599853Y-77559671D01*
X133639926Y-77501066D01*
X133705322Y-77473429D01*
X133775279Y-77485536D01*
X133828804Y-77535608D01*
X133877658Y-77620226D01*
X133877661Y-77620231D01*
X133880960Y-77625944D01*
X133885378Y-77630851D01*
X133885379Y-77630852D01*
X133985561Y-77742115D01*
X134008747Y-77767866D01*
X134043773Y-77793314D01*
X134150982Y-77871206D01*
X134163248Y-77880118D01*
X134169276Y-77882802D01*
X134169278Y-77882803D01*
X134317695Y-77948882D01*
X134337712Y-77957794D01*
X134431113Y-77977647D01*
X134518056Y-77996128D01*
X134518061Y-77996128D01*
X134524513Y-77997500D01*
X134715487Y-77997500D01*
X134721939Y-77996128D01*
X134721944Y-77996128D01*
X134808887Y-77977647D01*
X134902288Y-77957794D01*
X134922305Y-77948882D01*
X135070722Y-77882803D01*
X135070724Y-77882802D01*
X135076752Y-77880118D01*
X135089019Y-77871206D01*
X135196227Y-77793314D01*
X135231253Y-77767866D01*
X135254439Y-77742115D01*
X135354621Y-77630852D01*
X135354622Y-77630851D01*
X135359040Y-77625944D01*
X135429133Y-77504540D01*
X135451223Y-77466279D01*
X135451224Y-77466278D01*
X135454527Y-77460556D01*
X135513542Y-77278928D01*
X135533504Y-77089000D01*
X135521149Y-76971444D01*
X135514232Y-76905635D01*
X135514232Y-76905633D01*
X135513542Y-76899072D01*
X135454527Y-76717444D01*
X135448649Y-76707262D01*
X135368542Y-76568514D01*
X135359040Y-76552056D01*
X135334980Y-76525334D01*
X135235675Y-76415045D01*
X135235674Y-76415044D01*
X135231253Y-76410134D01*
X135076752Y-76297882D01*
X135070724Y-76295198D01*
X135070722Y-76295197D01*
X134963174Y-76247314D01*
X134909078Y-76201334D01*
X134888429Y-76133407D01*
X134907781Y-76065099D01*
X134933344Y-76036599D01*
X134934348Y-76035978D01*
X135059305Y-75910803D01*
X135064649Y-75902134D01*
X135148275Y-75766468D01*
X135148276Y-75766466D01*
X135152115Y-75760238D01*
X135183030Y-75667033D01*
X135205632Y-75598889D01*
X135205632Y-75598887D01*
X135207797Y-75592361D01*
X135208721Y-75583348D01*
X135214069Y-75531148D01*
X135218500Y-75487900D01*
X135218500Y-75484595D01*
X135927001Y-75484595D01*
X135927338Y-75491114D01*
X135937257Y-75586706D01*
X135940149Y-75600100D01*
X135991588Y-75754284D01*
X135997761Y-75767462D01*
X136083063Y-75905307D01*
X136092099Y-75916708D01*
X136206829Y-76031239D01*
X136218240Y-76040251D01*
X136356243Y-76125316D01*
X136369424Y-76131463D01*
X136523710Y-76182638D01*
X136537086Y-76185505D01*
X136631438Y-76195172D01*
X136637854Y-76195500D01*
X136887885Y-76195500D01*
X136903124Y-76191025D01*
X136904329Y-76189635D01*
X136906000Y-76181952D01*
X136906000Y-76177384D01*
X137414000Y-76177384D01*
X137418475Y-76192623D01*
X137419865Y-76193828D01*
X137427548Y-76195499D01*
X137682095Y-76195499D01*
X137688614Y-76195162D01*
X137784206Y-76185243D01*
X137797600Y-76182351D01*
X137951784Y-76130912D01*
X137964962Y-76124739D01*
X138102807Y-76039437D01*
X138114208Y-76030401D01*
X138228739Y-75915671D01*
X138237751Y-75904260D01*
X138322816Y-75766257D01*
X138328963Y-75753076D01*
X138380138Y-75598790D01*
X138383005Y-75585414D01*
X138392672Y-75491062D01*
X138393000Y-75484646D01*
X138393000Y-75372115D01*
X138388525Y-75356876D01*
X138387135Y-75355671D01*
X138379452Y-75354000D01*
X137432115Y-75354000D01*
X137416876Y-75358475D01*
X137415671Y-75359865D01*
X137414000Y-75367548D01*
X137414000Y-76177384D01*
X136906000Y-76177384D01*
X136906000Y-75372115D01*
X136901525Y-75356876D01*
X136900135Y-75355671D01*
X136892452Y-75354000D01*
X135945116Y-75354000D01*
X135929877Y-75358475D01*
X135928672Y-75359865D01*
X135927001Y-75367548D01*
X135927001Y-75484595D01*
X135218500Y-75484595D01*
X135218500Y-75406595D01*
X135238502Y-75338474D01*
X135255405Y-75317499D01*
X135734501Y-74838404D01*
X135796813Y-74804379D01*
X135823596Y-74801500D01*
X135836442Y-74801500D01*
X135904563Y-74821502D01*
X135918954Y-74832275D01*
X135932865Y-74844329D01*
X135940548Y-74846000D01*
X138374884Y-74846000D01*
X138390123Y-74841525D01*
X138391328Y-74840135D01*
X138392999Y-74832452D01*
X138392999Y-74715405D01*
X138392662Y-74708886D01*
X138382744Y-74613297D01*
X138379851Y-74599899D01*
X138374271Y-74583175D01*
X138371687Y-74512225D01*
X138404700Y-74454204D01*
X138695247Y-74163657D01*
X138703537Y-74156113D01*
X138710018Y-74152000D01*
X138756659Y-74102332D01*
X138759413Y-74099491D01*
X138779134Y-74079770D01*
X138781612Y-74076575D01*
X138789318Y-74067553D01*
X138814158Y-74041101D01*
X138819586Y-74035321D01*
X138825732Y-74024142D01*
X138829346Y-74017568D01*
X138840199Y-74001045D01*
X138847753Y-73991306D01*
X138852613Y-73985041D01*
X138870176Y-73944457D01*
X138875383Y-73933827D01*
X138896695Y-73895060D01*
X138898666Y-73887383D01*
X138898668Y-73887378D01*
X138901732Y-73875442D01*
X138908138Y-73856730D01*
X138909578Y-73853404D01*
X138916181Y-73838145D01*
X138917423Y-73830307D01*
X138923097Y-73794481D01*
X138925504Y-73782860D01*
X138934528Y-73747711D01*
X138934528Y-73747710D01*
X138936500Y-73740030D01*
X138936500Y-73719769D01*
X138938051Y-73700058D01*
X138939979Y-73687885D01*
X138941219Y-73680057D01*
X138937059Y-73636046D01*
X138936500Y-73624189D01*
X138936500Y-73424500D01*
X138956502Y-73356379D01*
X139010158Y-73309886D01*
X139062500Y-73298500D01*
X139160487Y-73298500D01*
X139166939Y-73297128D01*
X139166944Y-73297128D01*
X139253887Y-73278647D01*
X139347288Y-73258794D01*
X139353315Y-73256111D01*
X139353323Y-73256108D01*
X139400548Y-73235081D01*
X139470915Y-73225646D01*
X139535212Y-73255751D01*
G37*
%TD.AperFunction*%
%TA.AperFunction,Conductor*%
G36*
X149542674Y-77541398D02*
G01*
X149592154Y-77592312D01*
X149605637Y-77634665D01*
X149615011Y-77705872D01*
X149616519Y-77717324D01*
X149615234Y-77717493D01*
X149615235Y-77762573D01*
X149617006Y-77762806D01*
X149609208Y-77822040D01*
X149611419Y-77836222D01*
X149630784Y-77841783D01*
X149690737Y-77879811D01*
X149695967Y-77886184D01*
X149716771Y-77913296D01*
X149742372Y-77979516D01*
X149728108Y-78049065D01*
X149716771Y-78066705D01*
X149695897Y-78093908D01*
X149638558Y-78135775D01*
X149631433Y-78138099D01*
X149611187Y-78144044D01*
X149609158Y-78157583D01*
X149617006Y-78217194D01*
X149615235Y-78217427D01*
X149615234Y-78262507D01*
X149616519Y-78262676D01*
X149611642Y-78299724D01*
X149601500Y-78376756D01*
X149601500Y-78603244D01*
X149602038Y-78607330D01*
X149602038Y-78607331D01*
X149616519Y-78717324D01*
X149614974Y-78717527D01*
X149614974Y-78762473D01*
X149616519Y-78762676D01*
X149601500Y-78876756D01*
X149601500Y-79103244D01*
X149602038Y-79107330D01*
X149602038Y-79107331D01*
X149616519Y-79217324D01*
X149614974Y-79217527D01*
X149614974Y-79262473D01*
X149616519Y-79262676D01*
X149603510Y-79361492D01*
X149601500Y-79376756D01*
X149601500Y-79603244D01*
X149602038Y-79607330D01*
X149602038Y-79607331D01*
X149616519Y-79717324D01*
X149614974Y-79717527D01*
X149614974Y-79762473D01*
X149616519Y-79762676D01*
X149601500Y-79876756D01*
X149601500Y-80103244D01*
X149602038Y-80107330D01*
X149602038Y-80107331D01*
X149616519Y-80217324D01*
X149614974Y-80217527D01*
X149614974Y-80262473D01*
X149616519Y-80262676D01*
X149608261Y-80325405D01*
X149601500Y-80376756D01*
X149601500Y-80484720D01*
X149581498Y-80552841D01*
X149564595Y-80573816D01*
X149354879Y-80783531D01*
X149292567Y-80817556D01*
X149221751Y-80812491D01*
X149164916Y-80769944D01*
X149156665Y-80757435D01*
X149153409Y-80751794D01*
X149075040Y-80616056D01*
X149062662Y-80602309D01*
X149031946Y-80538303D01*
X149040710Y-80467850D01*
X149062661Y-80433693D01*
X149075040Y-80419944D01*
X149161284Y-80270565D01*
X149167223Y-80260279D01*
X149167224Y-80260278D01*
X149170527Y-80254556D01*
X149229542Y-80072928D01*
X149232199Y-80047654D01*
X149248814Y-79889565D01*
X149249504Y-79883000D01*
X149240097Y-79793501D01*
X149230232Y-79699635D01*
X149230232Y-79699633D01*
X149229542Y-79693072D01*
X149170527Y-79511444D01*
X149091462Y-79374499D01*
X149074724Y-79305505D01*
X149091462Y-79248500D01*
X149092096Y-79247403D01*
X149148364Y-79149944D01*
X149167223Y-79117279D01*
X149167224Y-79117278D01*
X149170527Y-79111556D01*
X149229542Y-78929928D01*
X149235301Y-78875139D01*
X149248814Y-78746565D01*
X149249504Y-78740000D01*
X149230381Y-78558054D01*
X149230232Y-78556635D01*
X149230232Y-78556633D01*
X149229542Y-78550072D01*
X149170527Y-78368444D01*
X149161649Y-78353066D01*
X149097203Y-78241444D01*
X149075040Y-78203056D01*
X149021906Y-78144044D01*
X148951675Y-78066045D01*
X148951674Y-78066044D01*
X148947253Y-78061134D01*
X148823795Y-77971436D01*
X148780441Y-77915213D01*
X148774366Y-77844477D01*
X148807498Y-77781686D01*
X148869318Y-77746774D01*
X148897856Y-77743500D01*
X148939487Y-77743500D01*
X148945939Y-77742128D01*
X148945944Y-77742128D01*
X149032887Y-77723647D01*
X149126288Y-77703794D01*
X149186141Y-77677146D01*
X149294722Y-77628803D01*
X149294724Y-77628802D01*
X149300752Y-77626118D01*
X149317434Y-77613998D01*
X149406654Y-77549176D01*
X149473522Y-77525317D01*
X149542674Y-77541398D01*
G37*
%TD.AperFunction*%
%TA.AperFunction,Conductor*%
G36*
X132738081Y-75608502D02*
G01*
X132784574Y-75662158D01*
X132789483Y-75674621D01*
X132818450Y-75761446D01*
X132911522Y-75911848D01*
X133036697Y-76036805D01*
X133042927Y-76040645D01*
X133042928Y-76040646D01*
X133180288Y-76125316D01*
X133187262Y-76129615D01*
X133226173Y-76142521D01*
X133265167Y-76155455D01*
X133323527Y-76195886D01*
X133350764Y-76261450D01*
X133351500Y-76275048D01*
X133351500Y-76375233D01*
X133350973Y-76386416D01*
X133349298Y-76393909D01*
X133349547Y-76401832D01*
X133349547Y-76401833D01*
X133350550Y-76433747D01*
X133332697Y-76502462D01*
X133280529Y-76550618D01*
X133210607Y-76562924D01*
X133172422Y-76550377D01*
X133171752Y-76551882D01*
X133003319Y-76476891D01*
X133003318Y-76476891D01*
X132997288Y-76474206D01*
X132880407Y-76449362D01*
X132816944Y-76435872D01*
X132816939Y-76435872D01*
X132810487Y-76434500D01*
X132619513Y-76434500D01*
X132613061Y-76435872D01*
X132613056Y-76435872D01*
X132549593Y-76449362D01*
X132432712Y-76474206D01*
X132426682Y-76476891D01*
X132426681Y-76476891D01*
X132264278Y-76549197D01*
X132264276Y-76549198D01*
X132258248Y-76551882D01*
X132252907Y-76555762D01*
X132252906Y-76555763D01*
X132235356Y-76568514D01*
X132103747Y-76664134D01*
X132100979Y-76667208D01*
X132037799Y-76697528D01*
X131967345Y-76688765D01*
X131910351Y-76639478D01*
X131893841Y-76612797D01*
X131858478Y-76555652D01*
X131733303Y-76430695D01*
X131693648Y-76406251D01*
X131588968Y-76341725D01*
X131588966Y-76341724D01*
X131582738Y-76337885D01*
X131422254Y-76284655D01*
X131421389Y-76284368D01*
X131421387Y-76284368D01*
X131414861Y-76282203D01*
X131408025Y-76281503D01*
X131408022Y-76281502D01*
X131364969Y-76277091D01*
X131310400Y-76271500D01*
X130309600Y-76271500D01*
X130306354Y-76271837D01*
X130306350Y-76271837D01*
X130210692Y-76281762D01*
X130210688Y-76281763D01*
X130203834Y-76282474D01*
X130197298Y-76284655D01*
X130197296Y-76284655D01*
X130157129Y-76298056D01*
X130036054Y-76338450D01*
X129885652Y-76431522D01*
X129760695Y-76556697D01*
X129667885Y-76707262D01*
X129649856Y-76761617D01*
X129622080Y-76845362D01*
X129612203Y-76875139D01*
X129601500Y-76979600D01*
X129601500Y-77780400D01*
X129601837Y-77783646D01*
X129601837Y-77783650D01*
X129611444Y-77876237D01*
X129612474Y-77886166D01*
X129668450Y-78053946D01*
X129761522Y-78204348D01*
X129819783Y-78262507D01*
X129848109Y-78290784D01*
X129882188Y-78353066D01*
X129877185Y-78423886D01*
X129848264Y-78468975D01*
X129760695Y-78556697D01*
X129756855Y-78562927D01*
X129756854Y-78562928D01*
X129679583Y-78688285D01*
X129667885Y-78707262D01*
X129612203Y-78875139D01*
X129601500Y-78979600D01*
X129601500Y-79250500D01*
X129581498Y-79318621D01*
X129527842Y-79365114D01*
X129475500Y-79376500D01*
X127523354Y-79376500D01*
X127455233Y-79356498D01*
X127420141Y-79322771D01*
X127418312Y-79320158D01*
X127366736Y-79246500D01*
X127335908Y-79202473D01*
X127335906Y-79202470D01*
X127332749Y-79197962D01*
X127177038Y-79042251D01*
X127144083Y-79019175D01*
X127082922Y-78976350D01*
X126996654Y-78915944D01*
X126797076Y-78822880D01*
X126584371Y-78765885D01*
X126365000Y-78746693D01*
X126145629Y-78765885D01*
X125932924Y-78822880D01*
X125839562Y-78866415D01*
X125738334Y-78913618D01*
X125738329Y-78913621D01*
X125733347Y-78915944D01*
X125728840Y-78919100D01*
X125728838Y-78919101D01*
X125557473Y-79039092D01*
X125557470Y-79039094D01*
X125552962Y-79042251D01*
X125397251Y-79197962D01*
X125394094Y-79202470D01*
X125394092Y-79202473D01*
X125363264Y-79246500D01*
X125311689Y-79320158D01*
X125309859Y-79322771D01*
X125254402Y-79367099D01*
X125206646Y-79376500D01*
X123279500Y-79376500D01*
X123211379Y-79356498D01*
X123164886Y-79302842D01*
X123153500Y-79250500D01*
X123153500Y-78979600D01*
X123152971Y-78974500D01*
X123143238Y-78880692D01*
X123143237Y-78880688D01*
X123142526Y-78873834D01*
X123125527Y-78822880D01*
X123088868Y-78713002D01*
X123086550Y-78706054D01*
X122993478Y-78555652D01*
X122868303Y-78430695D01*
X122863765Y-78427898D01*
X122823176Y-78370647D01*
X122819946Y-78299724D01*
X122855572Y-78238313D01*
X122864068Y-78230938D01*
X122874207Y-78222902D01*
X122988739Y-78108171D01*
X122997751Y-78096760D01*
X123082816Y-77958757D01*
X123088963Y-77945576D01*
X123140138Y-77791290D01*
X123143005Y-77777914D01*
X123152672Y-77683562D01*
X123153000Y-77677146D01*
X123153000Y-77652115D01*
X123148525Y-77636876D01*
X123147135Y-77635671D01*
X123139452Y-77634000D01*
X121792000Y-77634000D01*
X121723879Y-77613998D01*
X121677386Y-77560342D01*
X121666000Y-77508000D01*
X121666000Y-77107885D01*
X122174000Y-77107885D01*
X122178475Y-77123124D01*
X122179865Y-77124329D01*
X122187548Y-77126000D01*
X123134884Y-77126000D01*
X123150123Y-77121525D01*
X123151328Y-77120135D01*
X123152999Y-77112452D01*
X123152999Y-77082905D01*
X123152662Y-77076386D01*
X123142743Y-76980794D01*
X123139851Y-76967400D01*
X123088412Y-76813216D01*
X123082239Y-76800038D01*
X122996937Y-76662193D01*
X122987901Y-76650792D01*
X122873171Y-76536261D01*
X122861760Y-76527249D01*
X122723757Y-76442184D01*
X122710576Y-76436037D01*
X122556290Y-76384862D01*
X122542914Y-76381995D01*
X122448562Y-76372328D01*
X122442145Y-76372000D01*
X122192115Y-76372000D01*
X122176876Y-76376475D01*
X122175671Y-76377865D01*
X122174000Y-76385548D01*
X122174000Y-77107885D01*
X121666000Y-77107885D01*
X121666000Y-76390116D01*
X121661525Y-76374877D01*
X121660135Y-76373672D01*
X121652452Y-76372001D01*
X121397905Y-76372001D01*
X121391386Y-76372338D01*
X121295794Y-76382257D01*
X121282400Y-76385149D01*
X121128216Y-76436588D01*
X121115038Y-76442761D01*
X120977193Y-76528063D01*
X120965792Y-76537099D01*
X120888673Y-76614352D01*
X120826390Y-76648431D01*
X120755570Y-76643428D01*
X120698697Y-76600931D01*
X120673829Y-76534432D01*
X120673500Y-76525334D01*
X120673500Y-76524950D01*
X120693502Y-76456829D01*
X120710405Y-76435855D01*
X121520855Y-75625405D01*
X121583167Y-75591379D01*
X121609950Y-75588500D01*
X132669960Y-75588500D01*
X132738081Y-75608502D01*
G37*
%TD.AperFunction*%
%TD*%
M02*
